{
.appVersion = "1342";
DisplayStrings = (
"/florin f"
);
classes = (
{
code = "braceleft braceright bracketleft bracketright parenleft parenright emdash endash hyphen guillemetleft guillemetright guilsinglleft guilsinglright questiondown exclamdown";
name = Punctuation;
},
{
code = "braceleft.case braceright.case bracketleft.case bracketright.case parenleft.case parenright.case emdash.case endash.case hyphen.case guillemetleft.case guillemetright.case guilsinglleft.case guilsinglright.case questiondown.case exclamdown.case";
name = CasePunctuation;
},
{
code = "zero one two three four five six seven eight nine";
name = LiningFigures;
},
{
code = "A B C D E F G H I J K L M N O P Q R S T U V W X Y Z Aacute Abreve Acircumflex Adieresis Agrave Amacron Aogonek Aring Atilde AE Cacute Ccaron Ccedilla Eth Dcaron Dcroat Ddotbelow Eacute Ecaron Ecircumflex Edieresis Edotaccent Egrave Emacron Eogonek Gbreve Gcommaaccent Hbar Hdotbelow IJ Iacute Icircumflex Idieresis Idotaccent Igrave Imacron Iogonek Kcommaaccent Kdotbelow Lacute Lcaron Lcommaaccent Ldot Lslash Ldotbelow Lmacrondotbelow Lmacronbelow Mdotaccent Mdotbelow Nacute Ncaron Ncommaaccent Ntilde Ndotaccent Ndotbelow Eng Oacute Ocircumflex Odieresis Ograve Ohungarumlaut Omacron Oslash Otilde OE Thorn Racute Rcaron Rdotbelow Rcommaaccent Rmacrondotbelow Sacute Scaron Scedilla Sdotbelow Scommaaccent Tcaron Tcedilla Tcommaaccent Tdotbelow Tbar Uacute Ucircumflex Udieresis Ugrave Uhungarumlaut Umacron Uogonek Uring Yacute Ydieresis Ydotaccent Zacute Zcaron Zdotaccent Iacute_J.loclNLD Delta Omega ";
name = Uppercase;
notes = "exclam question";
},
{

glyphs = (
{
glyphname = .notdef;
lastChange = "2016-08-09 15:24:24 +0000";
layers = (
{
background = {
paths = (
{
closed = 1;
nodes = (
"204 323 LINE",
"213 668 LINE",
"195 687 OFFCURVE",
"138 716 OFFCURVE",
"116 720 CURVE",
"87 700 LINE",
"99 336 LINE",
"50 90 LINE",
"73 47 OFFCURVE",
"112 17 OFFCURVE",
"147 0 CURVE",
"205 14 LINE"
);
},
{
closed = 1;
nodes = (
"534 323 LINE",
"543 668 LINE",
"525 687 OFFCURVE",
"468 716 OFFCURVE",
"446 720 CURVE",
"417 700 LINE",
"429 336 LINE",
"380 90 LINE",
"403 47 OFFCURVE",
"442 17 OFFCURVE",
"477 0 CURVE",
"535 44 LINE"
);
},
{
closed = 1;
nodes = (
"446 720 LINE",
"116 720 LINE",
"109 609 LINE",
"458 606 LINE"
);
},
{
closed = 1;
nodes = (
"465 112 LINE",
"154 112 LINE",
"147 0 LINE",
"477 0 LINE"
);
}
);
};
layerId = "B08EA6CB-0345-4FE8-BF44-53271D6C1876";
paths = (
{
closed = 1;
nodes = (
"525 687 OFFCURVE",
"468 716 OFFCURVE",
"446 720 CURVE",
"116 720 LINE",
"87 700 LINE",
"99 336 LINE",
"70 90 LINE",
"88 47 OFFCURVE",
"119 17 OFFCURVE",
"147 0 CURVE",
"477 0 LINE",
"535 44 LINE",
"534 323 LINE",
"543 668 LINE"
);
},
{
closed = 1;
nodes = (
"211 608 LINE",
"420 606 LINE",
"424 490 LINE",
"208 490 LINE"
);
},
{
closed = 1;
nodes = (
"425 302 LINE",
"204 302 LINE",
"204 323 LINE",
"206 418 LINE",
"426 418 LINE",
"429 336 LINE"
);
},
{
closed = 1;
nodes = (
"403 112 LINE",
"205 112 LINE",
"204 230 LINE",
"417 230 LINE"
);
}
);
width = 600;
}
);
},
{
color = 4;
glyphname = A;
lastChange = "2016-08-09 15:24:24 +0000";
layers = (
{
anchors = (
{
name = bottom;
position = "{295, 0}";
},
{
name = ogonek;
position = "{511, 0}";
},
{
name = top;
position = "{308, 700}";
}
);
background = {
paths = (
{
closed = 1;
nodes = (
"224 292 LINE",
"335 647 LINE",
"327 697 LINE",
"252 707 LINE",
"130 337 LINE",
"11 105 LINE",
"24 57 OFFCURVE",
"48 21 OFFCURVE",
"76 -6 CURVE",
"135 -6 LINE"
);
},
{
closed = 1;
nodes = (
"516 330 LINE",
"439 613 LINE",
"407 660 OFFCURVE",
"349 708 OFFCURVE",
"312 729 CURVE",
"107 729 LINE",
"97 695 OFFCURVE",
"98 648 OFFCURVE",
"117 616 CURVE",
"258 625 LINE",
"321 629 LINE",
"412 315 LINE",
"440 51 LINE",
"474 16 OFFCURVE",
"520 -7 OFFCURVE",
"558 -14 CURVE",
"609 20 LINE"
);
},
{
closed = 1;
nodes = (
"482 304 LINE",
"148 302 LINE",
"141 197 LINE",
"494 196 LINE"
);
}
);
};
layerId = "B08EA6CB-0345-4FE8-BF44-53271D6C1876";
paths = (
{
closed = 1;
nodes = (
"439 583 LINE",
"407 630 OFFCURVE",
"349 678 OFFCURVE",
"312 699 CURVE",
"107 699 LINE",
"97 665 OFFCURVE",
"98 618 OFFCURVE",
"117 586 CURVE",
"222 593 LINE",
"130 337 LINE",
"11 111 LINE",
"24 63 OFFCURVE",
"48 27 OFFCURVE",
"76 0 CURVE",
"135 0 LINE",
"195 197 LINE",
"425 196 LINE",
"440 49 LINE",
"474 14 OFFCURVE",
"520 -9 OFFCURVE",
"558 -16 CURVE",
"609 18 LINE",
"516 330 LINE"
);
},
{
closed = 1;
nodes = (
"325 587 LINE",
"412 315 LINE",
"413 304 LINE",
"228 302 LINE"
);
}
);
width = 622;
}
);
leftKerningGroup = A;
rightKerningGroup = A;
unicode = 0041;
},
{
color = 4;
glyphname = B;
lastChange = "2016-08-09 15:24:24 +0000";
layers = (
{
anchors = (
{
name = bottom;
position = "{272, 0}";
},
{
name = top;
position = "{272, 700}";
}
);
background = {
paths = (
{
closed = 1;
nodes = (
"48 90 LINE",
"64 18 LINE",
"363 -14 LINE",
"399 16 OFFCURVE",
"435 58 OFFCURVE",
"454 98 CURVE",
"429 135 LINE"
);
},
{
closed = 1;
nodes = (
"353 347 LINE",
"438 270 OFFCURVE",
"448 195 OFFCURVE",
"383 46 CURVE",
"363 -14 LINE",
"405 -9 OFFCURVE",
"511 61 OFFCURVE",
"535 110 CURVE",
"556 258 OFFCURVE",
"540 321 OFFCURVE",
"411 382 CURVE"
);
},
{
closed = 1;
nodes = (
"149 574 LINE",
"235 626 OFFCURVE",
"371 629 OFFCURVE",
"437 602 CURVE",
"383 665 LINE",
"412 621 OFFCURVE",
"420 571 OFFCURVE",
"419 464 CURVE",
"120 381 LINE",
"117 350 OFFCURVE",
"124 321 OFFCURVE",
"141 290 CURVE",
"492 383 LINE",
"526 424 LINE",
"532 599 LINE",
"513 633 OFFCURVE",
"466 692 OFFCURVE",
"413 723 CURVE",
"333 739 OFFCURVE",
"199 728 OFFCURVE",
"118 660 CURVE"
);
},
{
closed = 1;
nodes = (
"173 323 LINE",
"184 684 LINE",
"166 703 OFFCURVE",
"109 732 OFFCURVE",
"87 736 CURVE",
"58 716 LINE",
"70 336 LINE",
"31 31 LINE",
"46 11 OFFCURVE",
"70 -5 OFFCURVE",
"96 -14 CURVE",
"173 33 LINE"
);
}
);
};
layerId = "B08EA6CB-0345-4FE8-BF44-53271D6C1876";
paths = (
{
closed = 1;
nodes = (
"525 441 LINE",
"533 591 LINE",
"514 625 OFFCURVE",
"467 684 OFFCURVE",
"414 715 CURVE",
"350 728 OFFCURVE",
"252 717 OFFCURVE",
"174 677 CURVE",
"150 695 OFFCURVE",
"106 717 OFFCURVE",
"87 720 CURVE",
"58 700 LINE",
"70 336 LINE",
"31 29 LINE",
"46 9 OFFCURVE",
"70 -7 OFFCURVE",
"96 -16 CURVE",
"146 14 LINE",
"363 -16 LINE",
"405 -11 OFFCURVE",
"511 59 OFFCURVE",
"535 108 CURVE",
"554 241 OFFCURVE",
"543 307 OFFCURVE",
"447 363 CURVE"
);
},
{
closed = 1;
nodes = (
"413 562 OFFCURVE",
"412 507 OFFCURVE",
"404 444 CURVE",
"176 408 LINE",
"181 575 LINE",
"252 612 OFFCURVE",
"342 617 OFFCURVE",
"404 604 CURVE"
);
},
{
closed = 1;
nodes = (
"173 317 LINE",
"369 331 LINE",
"424 274 OFFCURVE",
"435 214 OFFCURVE",
"412 121 CURVE",
"173 99 LINE"
);
}
);
width = 576;
},
{
associatedMasterId = "B08EA6CB-0345-4FE8-BF44-53271D6C1876";
background = {
paths = (
{
closed = 1;
nodes = (
"87 90 LINE",
"103 18 LINE",
"402 -14 LINE",
"438 16 OFFCURVE",
"474 58 OFFCURVE",
"493 98 CURVE",
"468 135 LINE"
);
},
{
closed = 1;
nodes = (
"212 323 LINE",
"223 684 LINE",
"205 693 OFFCURVE",
"142 732 OFFCURVE",
"120 736 CURVE",
"91 716 LINE",
"108 336 LINE",
"70 31 LINE",
"85 11 OFFCURVE",
"109 -5 OFFCURVE",
"135 -14 CURVE",
"212 33 LINE"
);
},
{
closed = 1;
nodes = (
"392 347 LINE",
"477 270 OFFCURVE",
"487 195 OFFCURVE",
"422 46 CURVE",
"402 -14 LINE",
"444 -9 OFFCURVE",
"550 61 OFFCURVE",
"574 110 CURVE",
"595 258 OFFCURVE",
"579 321 OFFCURVE",
"450 382 CURVE"
);
},
{
closed = 1;
nodes = (
"188 574 LINE",
"274 626 OFFCURVE",
"410 629 OFFCURVE",
"476 602 CURVE",
"422 665 LINE",
"451 621 OFFCURVE",
"459 571 OFFCURVE",
"458 464 CURVE",
"159 381 LINE",
"156 350 OFFCURVE",
"163 321 OFFCURVE",
"180 290 CURVE",
"531 383 LINE",
"565 424 LINE",
"571 599 LINE",
"552 633 OFFCURVE",
"505 692 OFFCURVE",
"452 723 CURVE",
"372 739 OFFCURVE",
"238 728 OFFCURVE",
"157 660 CURVE"
);
}
);
};
layerId = "4CF0E093-BF8D-4FC2-87A1-A0FD6BA0483D";
name = "Regular Sep 2 15, 15:33";
paths = (
{
closed = 1;
nodes = (
"87 90 LINE",
"103 28 LINE",
"402 -14 LINE",
"438 16 OFFCURVE",
"474 58 OFFCURVE",
"493 98 CURVE",
"468 135 LINE"
);
},
{
closed = 1;
nodes = (
"212 323 LINE",
"223 684 LINE",
"205 703 OFFCURVE",
"142 732 OFFCURVE",
"120 736 CURVE",
"91 716 LINE",
"108 336 LINE",
"70 31 LINE",
"85 11 OFFCURVE",
"109 -5 OFFCURVE",
"135 -14 CURVE",
"212 33 LINE"
);
},
{
closed = 1;
nodes = (
"392 347 LINE",
"477 270 OFFCURVE",
"487 195 OFFCURVE",
"432 46 CURVE",
"402 -14 LINE",
"444 -9 OFFCURVE",
"550 61 OFFCURVE",
"574 110 CURVE",
"595 258 OFFCURVE",
"579 321 OFFCURVE",
"450 382 CURVE"
);
},
{
closed = 1;
nodes = (
"188 565 LINE",
"274 617 OFFCURVE",
"410 629 OFFCURVE",
"476 602 CURVE",
"422 665 LINE",
"455 615 OFFCURVE",
"453 556 OFFCURVE",
"449 414 CURVE",
"501 476 LINE",
"257 408 LINE",
"254 377 OFFCURVE",
"261 345 OFFCURVE",
"278 314 CURVE",
"478 356 LINE",
"569 441 LINE",
"571 599 LINE",
"552 633 OFFCURVE",
"505 692 OFFCURVE",
"452 723 CURVE",
"372 739 OFFCURVE",
"238 718 OFFCURVE",
"157 650 CURVE"
);
}
);
width = 622;
}
);
leftKerningGroup = H;
leftMetricsKey = H;
rightKerningGroup = O;
unicode = 0042;
},
{
color = 4;
glyphname = C;
lastChange = "2016-08-09 15:24:24 +0000";
layers = (
{
associatedMasterId = "B08EA6CB-0345-4FE8-BF44-53271D6C1876";
background = {
paths = (
{
closed = 1;
nodes = (
"547 662 OFFCURVE",
"526 694 OFFCURVE",
"508 711 CURVE",
"410 740 OFFCURVE",
"295 739 OFFCURVE",
"198 720 CURVE",
"161 690 OFFCURVE",
"108 630 OFFCURVE",
"89 596 CURVE",
"80 100 LINE",
"94 51 OFFCURVE",
"208 -11 OFFCURVE",
"270 -16 CURVE",
"364 -5 OFFCURVE",
"481 17 OFFCURVE",
"542 32 CURVE",
"541 215 LINE",
"515 227 OFFCURVE",
"479 228 OFFCURVE",
"450 218 CURVE",
"430 60 LINE",
"523 99 LINE",
"185 109 LINE",
"234 56 LINE",
"178 155 OFFCURVE",
"193 557 OFFCURVE",
"242 662 CURVE",
"194 589 LINE",
"278 624 OFFCURVE",
"401 633 OFFCURVE",
"490 621 CURVE",
"442 665 LINE",
"454 491 LINE",
"481 485 OFFCURVE",
"521 486 OFFCURVE",
"544 494 CURVE",
"558 641 LINE"
);
}
);
};
layerId = "A017E173-D3DE-4298-9731-1AB33B0B33FC";
name = "Regular Sep 1 15, 11:34";
paths = (
{
closed = 1;
nodes = (
"537 662 OFFCURVE",
"516 694 OFFCURVE",
"498 711 CURVE",
"400 740 OFFCURVE",
"295 739 OFFCURVE",
"198 720 CURVE",
"161 690 OFFCURVE",
"108 630 OFFCURVE",
"89 596 CURVE",
"80 100 LINE",
"94 51 OFFCURVE",
"218 -11 OFFCURVE",
"280 -16 CURVE",
"543 32 LINE",
"550 68 OFFCURVE",
"545 107 OFFCURVE",
"531 129 CURVE",
"185 109 LINE",
"234 56 LINE",
"178 155 OFFCURVE",
"193 557 OFFCURVE",
"242 662 CURVE",
"194 589 LINE",
"278 624 OFFCURVE",
"391 633 OFFCURVE",
"480 621 CURVE",
"432 665 LINE",
"441 491 LINE",
"468 485 OFFCURVE",
"511 486 OFFCURVE",
"534 494 CURVE",
"548 641 LINE"
);
}
);
width = 568;
},
{
associatedMasterId = "B08EA6CB-0345-4FE8-BF44-53271D6C1876";
background = {
paths = (
{
closed = 1;
nodes = (
"547 662 OFFCURVE",
"526 694 OFFCURVE",
"508 711 CURVE",
"410 740 OFFCURVE",
"295 739 OFFCURVE",
"198 720 CURVE",
"161 690 OFFCURVE",
"108 630 OFFCURVE",
"89 596 CURVE",
"80 100 LINE",
"94 51 OFFCURVE",
"208 -11 OFFCURVE",
"270 -16 CURVE",
"364 -5 OFFCURVE",
"481 17 OFFCURVE",
"542 32 CURVE",
"541 215 LINE",
"515 227 OFFCURVE",
"479 228 OFFCURVE",
"450 218 CURVE",
"430 60 LINE",
"523 99 LINE",
"185 109 LINE",
"234 56 LINE",
"178 155 OFFCURVE",
"193 557 OFFCURVE",
"242 662 CURVE",
"194 589 LINE",
"278 624 OFFCURVE",
"401 633 OFFCURVE",
"490 621 CURVE",
"442 665 LINE",
"454 491 LINE",
"481 485 OFFCURVE",
"521 486 OFFCURVE",
"544 494 CURVE",
"558 641 LINE"
);
}
);
};
layerId = "7AD207CA-5C01-4C80-A58F-BCF9EA6625DD";
name = "Regular Sep 1 15, 12:56";
paths = (
{
closed = 1;
nodes = (
"537 662 OFFCURVE",
"516 694 OFFCURVE",
"498 711 CURVE",
"400 740 OFFCURVE",
"295 739 OFFCURVE",
"198 720 CURVE",
"161 690 OFFCURVE",
"108 630 OFFCURVE",
"89 596 CURVE",
"80 100 LINE",
"104 51 OFFCURVE",
"200 1 OFFCURVE",
"242 -4 CURVE",
"234 56 LINE",
"178 155 OFFCURVE",
"193 557 OFFCURVE",
"242 662 CURVE",
"194 589 LINE",
"278 624 OFFCURVE",
"391 633 OFFCURVE",
"480 621 CURVE",
"432 665 LINE",
"441 491 LINE",
"468 485 OFFCURVE",
"511 486 OFFCURVE",
"534 494 CURVE",
"548 641 LINE"
);
},
{
closed = 1;
nodes = (
"373 77 LINE",
"478 133 LINE",
"194 108 LINE",
"242 -4 LINE",
"422 -4 LINE",
"478 37 OFFCURVE",
"503 109 OFFCURVE",
"541 182 CURVE",
"478 234 LINE"
);
}
);
width = 581;
},
{
anchors = (
{
name = bottom;
position = "{282, 0}";
},
{
name = top;
position = "{303, 700}";
}
);
background = {
paths = (
{
closed = 1;
nodes = (
"523 635 OFFCURVE",
"472 687 OFFCURVE",
"434 716 CURVE",
"356 735 OFFCURVE",
"271 734 OFFCURVE",
"174 715 CURVE",
"137 685 OFFCURVE",
"84 625 OFFCURVE",
"65 591 CURVE",
"38 134 LINE",
"53 85 OFFCURVE",
"168 5 OFFCURVE",
"210 0 CURVE",
"192 60 LINE",
"136 149 OFFCURVE",
"155 553 OFFCURVE",
"224 657 CURVE",
"170 584 LINE",
"254 619 OFFCURVE",
"377 618 OFFCURVE",
"456 586 CURVE",
"392 660 LINE",
"444 543 OFFCURVE",
"431 211 OFFCURVE",
"386 88 CURVE",
"527 126 LINE",
"544 596 LINE"
);
}
);
};
layerId = "B08EA6CB-0345-4FE8-BF44-53271D6C1876";
paths = (
{
closed = 1;
nodes = (
"147 218 OFFCURVE",
"158 459 OFFCURVE",
"198 588 CURVE",
"259 606 OFFCURVE",
"331 608 OFFCURVE",
"396 603 CURVE",
"410 478 LINE",
"437 472 OFFCURVE",
"480 473 OFFCURVE",
"503 481 CURVE",
"517 628 LINE",
"506 649 OFFCURVE",
"485 681 OFFCURVE",
"467 698 CURVE",
"369 727 OFFCURVE",
"271 725 OFFCURVE",
"174 706 CURVE",
"137 676 OFFCURVE",
"84 616 OFFCURVE",
"65 582 CURVE",
"38 134 LINE",
"53 85 OFFCURVE",
"169 5 OFFCURVE",
"211 0 CURVE",
"407 0 LINE",
"443 29 OFFCURVE",
"486 75 OFFCURVE",
"508 116 CURVE",
"483 167 LINE",
"175 105 LINE"
);
}
);
width = 552;
},
{
anchors = (
{
name = bottom;
position = "{264, 0}";
},
{
name = top;
position = "{264, 700}";
}
);
associatedMasterId = "B08EA6CB-0345-4FE8-BF44-53271D6C1876";
background = {
paths = (
{
closed = 1;
nodes = (
"534 635 OFFCURVE",
"483 687 OFFCURVE",
"445 716 CURVE",
"367 735 OFFCURVE",
"282 734 OFFCURVE",
"185 715 CURVE",
"148 685 OFFCURVE",
"95 625 OFFCURVE",
"76 591 CURVE",
"49 134 LINE",
"64 85 OFFCURVE",
"179 5 OFFCURVE",
"221 0 CURVE",
"203 60 LINE",
"147 149 OFFCURVE",
"166 553 OFFCURVE",
"235 657 CURVE",
"181 584 LINE",
"265 619 OFFCURVE",
"388 618 OFFCURVE",
"467 586 CURVE",
"403 660 LINE",
"455 543 OFFCURVE",
"442 211 OFFCURVE",
"397 88 CURVE",
"538 126 LINE",
"555 596 LINE"
);
}
);
};
layerId = "D7DD34BD-60DF-43D4-BF3C-304E96BB7F2D";
name = "Regular Sep 27 15, 15:19";
paths = (
{
closed = 1;
nodes = (
"517 658 OFFCURVE",
"496 690 OFFCURVE",
"478 707 CURVE",
"380 736 OFFCURVE",
"275 735 OFFCURVE",
"178 716 CURVE",
"141 686 OFFCURVE",
"88 626 OFFCURVE",
"69 592 CURVE",
"50 124 LINE",
"74 75 OFFCURVE",
"180 5 OFFCURVE",
"222 0 CURVE",
"212 60 LINE",
"156 148 OFFCURVE",
"159 554 OFFCURVE",
"228 658 CURVE",
"174 585 LINE",
"258 620 OFFCURVE",
"371 619 OFFCURVE",
"460 607 CURVE",
"402 661 LINE",
"421 487 LINE",
"448 481 OFFCURVE",
"491 482 OFFCURVE",
"514 490 CURVE",
"528 637 LINE"
);
},
{
closed = 1;
nodes = (
"136 95 LINE",
"222 0 LINE",
"418 0 LINE",
"454 29 OFFCURVE",
"497 75 OFFCURVE",
"519 116 CURVE",
"494 167 LINE"
);
}
);
width = 548;
}
);
leftKerningGroup = O;
leftMetricsKey = O;
rightKerningGroup = C;
unicode = 0043;
},
{
color = 4;
glyphname = D;
lastChange = "2016-08-09 15:24:24 +0000";
layers = (
{
anchors = (
{
name = bottom;
position = "{267, 0}";
},
{
name = center;
position = "{137, 350}";
},
{
name = top;
position = "{295, 700}";
}
);
background = {
paths = (
{
closed = 1;
nodes = (
"48 90 LINE",
"64 28 LINE",
"363 -14 LINE",
"399 16 OFFCURVE",
"435 58 OFFCURVE",
"454 98 CURVE",
"429 134 LINE"
);
},
{
closed = 1;
nodes = (
"159 564 LINE",
"228 607 OFFCURVE",
"373 629 OFFCURVE",
"457 604 CURVE",
"393 667 LINE",
"462 562 OFFCURVE",
"429 135 OFFCURVE",
"373 46 CURVE",
"363 -14 LINE",
"405 -9 OFFCURVE",
"511 61 OFFCURVE",
"535 110 CURVE",
"552 601 LINE",
"533 635 OFFCURVE",
"486 694 OFFCURVE",
"433 725 CURVE",
"353 741 OFFCURVE",
"209 720 OFFCURVE",
"128 650 CURVE"
);
},
{
closed = 1;
nodes = (
"173 323 LINE",
"184 668 LINE",
"166 687 OFFCURVE",
"109 716 OFFCURVE",
"87 720 CURVE",
"58 700 LINE",
"70 336 LINE",
"31 29 LINE",
"46 9 OFFCURVE",
"70 -7 OFFCURVE",
"96 -16 CURVE",
"173 31 LINE"
);
}
);
};
layerId = "B08EA6CB-0345-4FE8-BF44-53271D6C1876";
paths = (
{
closed = 1;
nodes = (
"368 728 OFFCURVE",
"260 716 OFFCURVE",
"178 674 CURVE",
"156 692 OFFCURVE",
"107 716 OFFCURVE",
"87 720 CURVE",
"58 700 LINE",
"70 336 LINE",
"31 29 LINE",
"46 9 OFFCURVE",
"70 -7 OFFCURVE",
"96 -16 CURVE",
"146 14 LINE",
"363 -16 LINE",
"405 -11 OFFCURVE",
"511 59 OFFCURVE",
"535 108 CURVE",
"552 591 LINE",
"533 625 OFFCURVE",
"486 684 OFFCURVE",
"433 715 CURVE"
);
},
{
closed = 1;
nodes = (
"173 323 LINE",
"181 566 LINE",
"243 595 OFFCURVE",
"340 611 OFFCURVE",
"415 602 CURVE",
"445 484 OFFCURVE",
"432 259 OFFCURVE",
"403 129 CURVE",
"173 102 LINE"
);
}
);
width = 590;
}
);
leftKerningGroup = H;
leftMetricsKey = H;
rightKerningGroup = O;
rightMetricsKey = O;
unicode = 0044;
},
{
color = 4;
glyphname = E;
lastChange = "2016-08-09 15:24:24 +0000";
layers = (
{
associatedMasterId = "B08EA6CB-0345-4FE8-BF44-53271D6C1876";
background = {
paths = (
{
closed = 1;
nodes = (
"128 -14 LINE",
"280 -4 OFFCURVE",
"393 -37 OFFCURVE",
"501 25 CURVE",
"493 56 OFFCURVE",
"484 71 OFFCURVE",
"468 100 CURVE",
"381 69 OFFCURVE",
"262 94 OFFCURVE",
"151 102 CURVE"
);
}
);
};
layerId = "42B8E774-5AA1-49DB-9396-14D0F5361E85";
name = "Regular Aug 26 15, 15:40";
paths = (
{
closed = 1;
nodes = (
"403 321 LINE",
"410 353 OFFCURVE",
"414 370 OFFCURVE",
"412 402 CURVE",
"291 409 OFFCURVE",
"245 405 OFFCURVE",
"97 389 CURVE",
"154 286 LINE"
);
},
{
closed = 1;
nodes = (
"63 65 OFFCURVE",
"91 32 OFFCURVE",
"128 -1 CURVE",
"235 -15 OFFCURVE",
"365 -16 OFFCURVE",
"471 19 CURVE",
"473 51 OFFCURVE",
"469 68 OFFCURVE",
"462 100 CURVE",
"384 96 OFFCURVE",
"250 92 OFFCURVE",
"163 112 CURVE",
"49 98 LINE"
);
},
{
closed = 1;
nodes = (
"163 587 LINE",
"250 607 OFFCURVE",
"394 603 OFFCURVE",
"472 599 CURVE",
"479 631 OFFCURVE",
"483 648 OFFCURVE",
"481 680 CURVE",
"375 715 OFFCURVE",
"235 714 OFFCURVE",
"128 700 CURVE",
"101 637 OFFCURVE",
"105 620 OFFCURVE",
"91 587 CURVE"
);
},
{
closed = 1;
nodes = (
"181 323 LINE",
"190 608 LINE",
"172 623 OFFCURVE",
"146 698 OFFCURVE",
"126 700 CURVE",
"106 689 OFFCURVE",
"76 663 OFFCURVE",
"68 650 CURVE",
"80 316 LINE",
"40 90 LINE",
"63 47 OFFCURVE",
"93 17 OFFCURVE",
"128 0 CURVE",
"182 14 LINE"
);
}
);
width = 502;
},
{
associatedMasterId = "B08EA6CB-0345-4FE8-BF44-53271D6C1876";
background = {
paths = (
{
closed = 1;
nodes = (
"582 644 LINE",
"562 680 OFFCURVE",
"525 709 OFFCURVE",
"482 732 CURVE",
"194 683 LINE",
"225 591 LINE",
"568 590 LINE"
);
},
{
closed = 1;
nodes = (
"233 62 LINE",
"232 343 LINE",
"234 628 LINE",
"167 720 LINE",
"147 709 OFFCURVE",
"117 673 OFFCURVE",
"109 660 CURVE",
"137 336 LINE",
"91 67 LINE",
"101 48 OFFCURVE",
"113 31 OFFCURVE",
"126 17 CURVE"
);
},
{
closed = 1;
nodes = (
"529 348 LINE",
"509 383 OFFCURVE",
"482 413 OFFCURVE",
"439 436 CURVE",
"198 392 LINE",
"191 301 LINE",
"514 290 LINE"
);
},
{
closed = 1;
nodes = (
"211 568 LINE",
"227 602 OFFCURVE",
"237 679 OFFCURVE",
"174 748 CURVE",
"141 742 OFFCURVE",
"70 696 OFFCURVE",
"30 656 CURVE",
"32 626 OFFCURVE",
"41 595 OFFCURVE",
"51 572 CURVE",
"172 568 LINE"
);
},
{
closed = 1;
nodes = (
"458 104 OFFCURVE",
"347 140 OFFCURVE",
"215 133 CURVE",
"155 45 LINE",
"286 50 OFFCURVE",
"401 -18 OFFCURVE",
"492 -18 CURVE",
"535 5 OFFCURVE",
"591 101 OFFCURVE",
"602 128 CURVE",
"568 168 LINE"
);
},
{
closed = 1;
nodes = (
"41 153 LINE",
"31 130 OFFCURVE",
"22 99 OFFCURVE",
"20 69 CURVE",
"60 19 OFFCURVE",
"121 -17 OFFCURVE",
"164 -23 CURVE",
"227 46 OFFCURVE",
"217 123 OFFCURVE",
"201 157 CURVE",
"162 157 LINE"
);
}
);
};
layerId = "997A97CC-90FD-4440-A05C-9065E4A2D939";
name = "Regular Aug 27 15, 15:42";
paths = (
{
closed = 1;
nodes = (
"582 644 LINE",
"562 680 OFFCURVE",
"525 709 OFFCURVE",
"482 732 CURVE",
"194 683 LINE",
"225 591 LINE",
"568 590 LINE"
);
},
{
closed = 1;
nodes = (
"233 62 LINE",
"232 343 LINE",
"234 628 LINE",
"167 720 LINE",
"147 709 OFFCURVE",
"117 673 OFFCURVE",
"109 660 CURVE",
"137 336 LINE",
"91 67 LINE",
"101 48 OFFCURVE",
"113 31 OFFCURVE",
"126 17 CURVE"
);
},
{
closed = 1;
nodes = (
"529 348 LINE",
"509 383 OFFCURVE",
"482 413 OFFCURVE",
"439 436 CURVE",
"198 392 LINE",
"191 301 LINE",
"514 290 LINE"
);
},
{
closed = 1;
nodes = (
"211 568 LINE",
"227 602 OFFCURVE",
"237 679 OFFCURVE",
"174 748 CURVE",
"141 742 OFFCURVE",
"70 696 OFFCURVE",
"30 656 CURVE",
"32 626 OFFCURVE",
"41 595 OFFCURVE",
"51 572 CURVE",
"172 568 LINE"
);
},
{
closed = 1;
nodes = (
"215 113 LINE",
"155 25 LINE",
"492 -18 LINE",
"535 5 OFFCURVE",
"591 61 OFFCURVE",
"602 88 CURVE",
"588 134 LINE"
);
},
{
closed = 1;
nodes = (
"211 34 LINE",
"159 170 LINE",
"45 68 LINE",
"47 38 OFFCURVE",
"78 -3 OFFCURVE",
"98 -26 CURVE"
);
}
);
width = 637;
},
{
associatedMasterId = "B08EA6CB-0345-4FE8-BF44-53271D6C1876";
background = {
paths = (
{
closed = 1;
nodes = (
"582 644 LINE",
"562 680 OFFCURVE",
"525 709 OFFCURVE",
"482 732 CURVE",
"194 683 LINE",
"225 591 LINE",
"568 590 LINE"
);
},
{
closed = 1;
nodes = (
"233 62 LINE",
"232 343 LINE",
"244 628 LINE",
"167 720 LINE",
"147 709 OFFCURVE",
"117 673 OFFCURVE",
"109 660 CURVE",
"137 336 LINE",
"81 67 LINE",
"91 48 OFFCURVE",
"103 31 OFFCURVE",
"116 17 CURVE"
);
},
{
closed = 1;
nodes = (
"529 348 LINE",
"509 383 OFFCURVE",
"482 413 OFFCURVE",
"439 436 CURVE",
"198 392 LINE",
"191 301 LINE",
"514 290 LINE"
);
},
{
closed = 1;
nodes = (
"211 568 LINE",
"227 602 OFFCURVE",
"237 679 OFFCURVE",
"174 748 CURVE",
"141 742 OFFCURVE",
"70 696 OFFCURVE",
"30 656 CURVE",
"32 626 OFFCURVE",
"41 595 OFFCURVE",
"51 572 CURVE",
"172 568 LINE"
);
},
{
closed = 1;
nodes = (
"51 153 LINE",
"41 130 OFFCURVE",
"32 99 OFFCURVE",
"30 69 CURVE",
"70 29 OFFCURVE",
"141 -17 OFFCURVE",
"174 -23 CURVE",
"237 46 OFFCURVE",
"227 123 OFFCURVE",
"211 157 CURVE",
"172 157 LINE"
);
},
{
closed = 1;
nodes = (
"225 134 LINE",
"194 42 LINE",
"482 -17 LINE",
"525 6 OFFCURVE",
"562 35 OFFCURVE",
"582 71 CURVE",
"568 125 LINE"
);
}
);
};
layerId = "49557A4A-662B-4F06-A494-A52183F9E134";
name = "Regular Sep 1 15, 11:32";
paths = (
{
closed = 1;
nodes = (
"233 323 LINE",
"242 684 LINE",
"224 699 OFFCURVE",
"167 734 OFFCURVE",
"147 736 CURVE",
"112 706 LINE",
"133 336 LINE",
"87 74 LINE",
"110 31 OFFCURVE",
"143 1 OFFCURVE",
"178 -16 CURVE",
"232 0 LINE"
);
},
{
closed = 1;
nodes = (
"602 644 LINE",
"582 680 OFFCURVE",
"545 709 OFFCURVE",
"502 732 CURVE",
"197 700 LINE",
"228 608 LINE",
"588 590 LINE"
);
},
{
closed = 1;
nodes = (
"549 348 LINE",
"529 383 OFFCURVE",
"502 413 OFFCURVE",
"459 436 CURVE",
"218 392 LINE",
"211 301 LINE",
"534 290 LINE"
);
},
{
closed = 1;
nodes = (
"210 102 LINE",
"209 0 LINE",
"502 -17 LINE",
"545 6 OFFCURVE",
"582 35 OFFCURVE",
"602 71 CURVE",
"588 125 LINE"
);
}
);
width = 637;
},
{
associatedMasterId = "B08EA6CB-0345-4FE8-BF44-53271D6C1876";
background = {
paths = (
{
closed = 1;
nodes = (
"233 323 LINE",
"242 684 LINE",
"224 699 OFFCURVE",
"177 734 OFFCURVE",
"157 736 CURVE",
"112 706 LINE",
"133 336 LINE",
"87 44 LINE",
"111 15 OFFCURVE",
"133 -1 OFFCURVE",
"168 -16 CURVE",
"232 30 LINE"
);
},
{
closed = 1;
nodes = (
"549 348 LINE",
"529 383 OFFCURVE",
"502 404 OFFCURVE",
"459 427 CURVE",
"218 392 LINE",
"211 301 LINE",
"534 290 LINE"
);
},
{
closed = 1;
nodes = (
"210 111 LINE",
"209 20 LINE",
"502 -17 LINE",
"545 6 OFFCURVE",
"582 44 OFFCURVE",
"602 80 CURVE",
"588 134 LINE"
);
},
{
closed = 1;
nodes = (
"600 644 LINE",
"574 680 OFFCURVE",
"547 709 OFFCURVE",
"510 732 CURVE",
"215 690 LINE",
"220 600 LINE",
"586 590 LINE"
);
}
);
};
layerId = "EBA343CF-37A3-4D98-91CD-074A2858B4DC";
name = "Regular Sep 1 15, 12:09";
paths = (
{
closed = 1;
nodes = (
"582 644 LINE",
"562 680 OFFCURVE",
"525 709 OFFCURVE",
"482 732 CURVE",
"194 683 LINE",
"225 591 LINE",
"568 590 LINE"
);
},
{
closed = 1;
nodes = (
"233 62 LINE",
"232 343 LINE",
"244 628 LINE",
"167 720 LINE",
"147 709 OFFCURVE",
"117 673 OFFCURVE",
"109 660 CURVE",
"137 336 LINE",
"81 67 LINE",
"91 48 OFFCURVE",
"103 31 OFFCURVE",
"116 17 CURVE"
);
},
{
closed = 1;
nodes = (
"529 348 LINE",
"509 383 OFFCURVE",
"482 413 OFFCURVE",
"439 436 CURVE",
"198 392 LINE",
"191 301 LINE",
"514 290 LINE"
);
},
{
closed = 1;
nodes = (
"211 568 LINE",
"227 602 OFFCURVE",
"237 679 OFFCURVE",
"174 748 CURVE",
"141 742 OFFCURVE",
"70 696 OFFCURVE",
"30 656 CURVE",
"32 626 OFFCURVE",
"41 595 OFFCURVE",
"51 572 CURVE",
"172 568 LINE"
);
},
{
closed = 1;
nodes = (
"51 153 LINE",
"41 130 OFFCURVE",
"32 99 OFFCURVE",
"30 69 CURVE",
"70 29 OFFCURVE",
"141 -17 OFFCURVE",
"174 -23 CURVE",
"237 46 OFFCURVE",
"227 123 OFFCURVE",
"211 157 CURVE",
"172 157 LINE"
);
},
{
closed = 1;
nodes = (
"225 134 LINE",
"194 42 LINE",
"482 -17 LINE",
"525 6 OFFCURVE",
"562 35 OFFCURVE",
"582 71 CURVE",
"568 125 LINE"
);
}
);
width = 637;
},
{
associatedMasterId = "B08EA6CB-0345-4FE8-BF44-53271D6C1876";
background = {
paths = (
{
closed = 1;
nodes = (
"233 323 LINE",
"242 684 LINE",
"224 699 OFFCURVE",
"177 734 OFFCURVE",
"157 736 CURVE",
"112 706 LINE",
"133 336 LINE",
"87 44 LINE",
"111 15 OFFCURVE",
"133 -1 OFFCURVE",
"168 -16 CURVE",
"232 30 LINE"
);
},
{
closed = 1;
nodes = (
"549 348 LINE",
"529 383 OFFCURVE",
"502 404 OFFCURVE",
"459 427 CURVE",
"218 392 LINE",
"211 301 LINE",
"534 290 LINE"
);
},
{
closed = 1;
nodes = (
"210 111 LINE",
"209 20 LINE",
"502 -17 LINE",
"545 6 OFFCURVE",
"582 44 OFFCURVE",
"602 80 CURVE",
"588 134 LINE"
);
},
{
closed = 1;
nodes = (
"600 644 LINE",
"574 680 OFFCURVE",
"547 709 OFFCURVE",
"510 732 CURVE",
"215 690 LINE",
"220 600 LINE",
"586 590 LINE"
);
}
);
};
layerId = "31A95B2C-FEE9-4676-BCBF-7AEA7294F786";
name = "Regular Sep 1 15, 12:13";
paths = (
{
closed = 1;
nodes = (
"61 160 LINE",
"57 137 OFFCURVE",
"42 106 OFFCURVE",
"40 76 CURVE",
"80 36 OFFCURVE",
"151 -10 OFFCURVE",
"184 -16 CURVE",
"247 53 OFFCURVE",
"237 130 OFFCURVE",
"221 164 CURVE",
"182 164 LINE"
);
},
{
closed = 1;
nodes = (
"157 736 LINE",
"112 706 LINE",
"143 379 LINE",
"110 63 LINE",
"232 91 LINE",
"246 379 LINE",
"254 672 LINE"
);
},
{
closed = 1;
nodes = (
"202 155 LINE",
"197 65 LINE",
"492 -7 LINE",
"529 26 OFFCURVE",
"556 65 OFFCURVE",
"582 101 CURVE",
"568 155 LINE"
);
},
{
closed = 1;
nodes = (
"547 348 LINE",
"528 381 OFFCURVE",
"506 411 OFFCURVE",
"465 433 CURVE",
"236 399 LINE",
"225 304 LINE",
"533 293 LINE"
);
},
{
closed = 1;
nodes = (
"582 644 LINE",
"556 680 OFFCURVE",
"529 709 OFFCURVE",
"492 732 CURVE",
"197 690 LINE",
"202 600 LINE",
"568 590 LINE"
);
}
);
width = 637;
},
{
anchors = (
{
name = bottom;
position = "{272, 0}";
},
{
name = ogonek;
position = "{514, 0}";
},
{
name = top;
position = "{292, 700}";
},
{
name = topleft;
position = "{-15, 700}";
}
);
background = {
paths = (
{
closed = 1;
nodes = (
"490 348 LINE",
"470 383 OFFCURVE",
"443 404 OFFCURVE",
"400 427 CURVE",
"159 392 LINE",
"152 301 LINE",
"475 290 LINE"
);
},
{
closed = 1;
nodes = (
"541 644 LINE",
"515 680 OFFCURVE",
"488 709 OFFCURVE",
"451 732 CURVE",
"156 690 LINE",
"161 600 LINE",
"527 590 LINE"
);
},
{
closed = 1;
nodes = (
"107 98 LINE",
"127 18 LINE",
"456 -4 LINE",
"492 26 OFFCURVE",
"528 68 OFFCURVE",
"547 108 CURVE",
"522 158 LINE"
);
},
{
closed = 1;
nodes = (
"174 323 LINE",
"183 684 LINE",
"165 699 OFFCURVE",
"118 728 OFFCURVE",
"98 736 CURVE",
"53 706 LINE",
"74 336 LINE",
"30 44 LINE",
"47 17 OFFCURVE",
"66 5 OFFCURVE",
"100 -7 CURVE",
"173 30 LINE"
);
}
);
};
layerId = "B08EA6CB-0345-4FE8-BF44-53271D6C1876";
paths = (
{
closed = 1;
nodes = (
"173 104 LINE",
"173 300 LINE",
"475 290 LINE",
"490 348 LINE",
"470 383 OFFCURVE",
"443 404 OFFCURVE",
"400 427 CURVE",
"175 394 LINE",
"181 587 LINE",
"527 578 LINE",
"541 632 LINE",
"515 668 OFFCURVE",
"488 697 OFFCURVE",
"451 720 CURVE",
"157 688 LINE",
"133 703 OFFCURVE",
"102 717 OFFCURVE",
"87 720 CURVE",
"58 700 LINE",
"70 336 LINE",
"31 29 LINE",
"46 9 OFFCURVE",
"70 -7 OFFCURVE",
"96 -16 CURVE",
"139 10 LINE",
"456 -16 LINE",
"492 14 OFFCURVE",
"528 56 OFFCURVE",
"547 96 CURVE",
"522 146 LINE"
);
}
);
width = 574;
},
{
associatedMasterId = "B08EA6CB-0345-4FE8-BF44-53271D6C1876";
background = {
paths = (
{
closed = 1;
nodes = (
"569 644 LINE",
"549 680 OFFCURVE",
"512 709 OFFCURVE",
"469 732 CURVE",
"181 683 LINE",
"212 591 LINE",
"555 590 LINE"
);
},
{
closed = 1;
nodes = (
"220 62 LINE",
"219 343 LINE",
"231 628 LINE",
"154 720 LINE",
"134 709 OFFCURVE",
"104 673 OFFCURVE",
"96 660 CURVE",
"124 336 LINE",
"68 67 LINE",
"78 48 OFFCURVE",
"90 31 OFFCURVE",
"103 17 CURVE"
);
},
{
closed = 1;
nodes = (
"516 348 LINE",
"496 383 OFFCURVE",
"469 413 OFFCURVE",
"426 436 CURVE",
"185 392 LINE",
"178 301 LINE",
"501 290 LINE"
);
},
{
closed = 1;
nodes = (
"198 568 LINE",
"214 602 OFFCURVE",
"224 679 OFFCURVE",
"161 748 CURVE",
"128 742 OFFCURVE",
"57 696 OFFCURVE",
"17 656 CURVE",
"19 626 OFFCURVE",
"28 595 OFFCURVE",
"38 572 CURVE",
"159 568 LINE"
);
},
{
closed = 1;
nodes = (
"38 153 LINE",
"28 130 OFFCURVE",
"19 99 OFFCURVE",
"17 69 CURVE",
"57 29 OFFCURVE",
"128 -17 OFFCURVE",
"161 -23 CURVE",
"224 46 OFFCURVE",
"214 123 OFFCURVE",
"198 157 CURVE",
"159 157 LINE"
);
},
{
closed = 1;
nodes = (
"212 134 LINE",
"181 42 LINE",
"469 -17 LINE",
"512 6 OFFCURVE",
"549 35 OFFCURVE",
"569 71 CURVE",
"555 125 LINE"
);
}
);
};
layerId = "30ABDE41-3B41-48CB-858E-98B2AD4FDF33";
name = "Regular Sep 1 15, 17:10";
paths = (
{
closed = 1;
nodes = (
"220 323 LINE",
"229 684 LINE",
"211 699 OFFCURVE",
"164 734 OFFCURVE",
"144 736 CURVE",
"99 706 LINE",
"120 336 LINE",
"74 44 LINE",
"98 15 OFFCURVE",
"120 -1 OFFCURVE",
"155 -16 CURVE",
"219 30 LINE"
);
},
{
closed = 1;
nodes = (
"536 348 LINE",
"516 383 OFFCURVE",
"489 404 OFFCURVE",
"446 427 CURVE",
"205 392 LINE",
"198 301 LINE",
"521 290 LINE"
);
},
{
closed = 1;
nodes = (
"197 111 LINE",
"196 20 LINE",
"489 -17 LINE",
"532 6 OFFCURVE",
"569 44 OFFCURVE",
"589 80 CURVE",
"575 134 LINE"
);
},
{
closed = 1;
nodes = (
"587 644 LINE",
"561 680 OFFCURVE",
"534 709 OFFCURVE",
"497 732 CURVE",
"202 690 LINE",
"207 600 LINE",
"573 590 LINE"
);
}
);
width = 624;
}
);
leftKerningGroup = H;
leftMetricsKey = H;
rightKerningGroup = H;
unicode = 0045;
},
{
color = 4;
glyphname = F;
lastChange = "2016-08-09 15:24:24 +0000";
layers = (
{
anchors = (
{
name = bottom;
position = "{242, 0}";
},
{
name = top;
position = "{242, 700}";
}
);
background = {
paths = (
{
closed = 1;
nodes = (
"498 348 LINE",
"478 383 OFFCURVE",
"451 404 OFFCURVE",
"408 427 CURVE",
"167 392 LINE",
"160 301 LINE",
"483 290 LINE"
);
},
{
closed = 1;
nodes = (
"549 632 LINE",
"523 668 OFFCURVE",
"496 697 OFFCURVE",
"459 720 CURVE",
"164 688 LINE",
"169 588 LINE",
"535 578 LINE"
);
},
{
closed = 1;
nodes = (
"115 96 LINE",
"135 11 LINE",
"464 -16 LINE",
"500 14 OFFCURVE",
"536 56 OFFCURVE",
"555 96 CURVE",
"530 146 LINE"
);
},
{
closed = 1;
nodes = (
"181 323 LINE",
"192 668 LINE",
"174 687 OFFCURVE",
"117 716 OFFCURVE",
"95 720 CURVE",
"66 700 LINE",
"78 336 LINE",
"39 29 LINE",
"54 9 OFFCURVE",
"78 -7 OFFCURVE",
"104 -16 CURVE",
"181 31 LINE"
);
}
);
};
layerId = "B08EA6CB-0345-4FE8-BF44-53271D6C1876";
paths = (
{
closed = 1;
nodes = (
"542 632 LINE",
"516 668 OFFCURVE",
"489 697 OFFCURVE",
"452 720 CURVE",
"164 689 LINE",
"140 703 OFFCURVE",
"110 717 OFFCURVE",
"95 720 CURVE",
"66 700 LINE",
"78 336 LINE",
"31 74 LINE",
"54 31 OFFCURVE",
"93 1 OFFCURVE",
"128 -16 CURVE",
"184 -2 LINE",
"181 280 LINE",
"460 271 LINE",
"475 328 LINE",
"455 363 OFFCURVE",
"432 394 OFFCURVE",
"389 417 CURVE",
"183 387 LINE",
"189 587 LINE",
"528 578 LINE"
);
}
);
width = 542;
},
{
associatedMasterId = "B08EA6CB-0345-4FE8-BF44-53271D6C1876";
layerId = "EC96BD91-3D5B-4688-AB35-EB044B445133";
name = "Regular Jul 15 15, 19:49";
paths = (
{
closed = 1;
nodes = (
"200 642 OFFCURVE",
"145 677 OFFCURVE",
"125 679 CURVE",
"115 668 OFFCURVE",
"106 656 OFFCURVE",
"98 643 CURVE",
"108 366 LINE",
"68 76 LINE",
"91 33 OFFCURVE",
"121 3 OFFCURVE",
"156 -14 CURVE",
"303 18 LINE",
"304 55 OFFCURVE",
"300 84 OFFCURVE",
"294 96 CURVE",
"185 99 LINE",
"210 54 LINE",
"209 373 LINE",
"218 627 LINE"
);
},
{
closed = 1;
nodes = (
"285 616 OFFCURVE",
"419 622 OFFCURVE",
"511 618 CURVE",
"518 650 OFFCURVE",
"522 667 OFFCURVE",
"520 699 CURVE",
"399 726 OFFCURVE",
"273 715 OFFCURVE",
"125 679 CURVE",
"182 576 LINE"
);
},
{
closed = 1;
nodes = (
"285 326 OFFCURVE",
"339 332 OFFCURVE",
"431 348 CURVE",
"438 380 OFFCURVE",
"442 397 OFFCURVE",
"440 429 CURVE",
"319 436 OFFCURVE",
"273 425 OFFCURVE",
"125 409 CURVE",
"182 306 LINE"
);
}
);
width = 600;
},
{
associatedMasterId = "B08EA6CB-0345-4FE8-BF44-53271D6C1876";
background = {
paths = (
{
closed = 1;
nodes = (
"541 644 LINE",
"524 679 OFFCURVE",
"494 709 OFFCURVE",
"451 732 CURVE",
"191 702 LINE",
"126 720 LINE",
"184 601 LINE",
"527 590 LINE"
);
},
{
closed = 1;
nodes = (
"181 343 LINE",
"190 628 LINE",
"172 643 OFFCURVE",
"146 718 OFFCURVE",
"126 720 CURVE",
"106 709 OFFCURVE",
"76 683 OFFCURVE",
"68 670 CURVE",
"80 336 LINE",
"40 76 LINE",
"63 33 OFFCURVE",
"93 3 OFFCURVE",
"128 -14 CURVE",
"192 0 LINE"
);
},
{
closed = 1;
nodes = (
"481 334 LINE",
"464 369 OFFCURVE",
"434 399 OFFCURVE",
"391 422 CURVE",
"151 392 LINE",
"144 291 LINE",
"467 280 LINE"
);
}
);
};
layerId = "48105138-C7DE-4E5C-A92F-1218C49CC793";
name = "Regular Aug 26 15, 15:30";
paths = (
{
closed = 1;
nodes = (
"161 587 LINE",
"248 607 OFFCURVE",
"392 603 OFFCURVE",
"470 599 CURVE",
"477 631 OFFCURVE",
"481 648 OFFCURVE",
"479 680 CURVE",
"373 715 OFFCURVE",
"233 714 OFFCURVE",
"126 700 CURVE",
"99 637 OFFCURVE",
"103 620 OFFCURVE",
"89 587 CURVE"
);
},
{
closed = 1;
nodes = (
"393 321 LINE",
"400 353 OFFCURVE",
"404 370 OFFCURVE",
"402 402 CURVE",
"281 409 OFFCURVE",
"235 405 OFFCURVE",
"87 389 CURVE",
"144 286 LINE"
);
},
{
closed = 1;
nodes = (
"181 323 LINE",
"190 608 LINE",
"172 623 OFFCURVE",
"146 698 OFFCURVE",
"126 700 CURVE",
"106 689 OFFCURVE",
"76 663 OFFCURVE",
"68 650 CURVE",
"80 316 LINE",
"40 76 LINE",
"63 33 OFFCURVE",
"93 3 OFFCURVE",
"128 -14 CURVE",
"182 0 LINE"
);
}
);
width = 520;
},
{
associatedMasterId = "B08EA6CB-0345-4FE8-BF44-53271D6C1876";
background = {
paths = (
{
closed = 1;
nodes = (
"161 587 LINE",
"248 607 OFFCURVE",
"392 603 OFFCURVE",
"470 599 CURVE",
"477 631 OFFCURVE",
"481 648 OFFCURVE",
"479 680 CURVE",
"373 715 OFFCURVE",
"233 714 OFFCURVE",
"126 700 CURVE",
"99 637 OFFCURVE",
"103 620 OFFCURVE",
"89 587 CURVE"
);
},
{
closed = 1;
nodes = (
"393 321 LINE",
"400 353 OFFCURVE",
"404 370 OFFCURVE",
"402 402 CURVE",
"281 409 OFFCURVE",
"235 405 OFFCURVE",
"87 389 CURVE",
"144 286 LINE"
);
},
{
closed = 1;
nodes = (
"181 323 LINE",
"190 608 LINE",
"172 623 OFFCURVE",
"146 698 OFFCURVE",
"126 700 CURVE",
"106 689 OFFCURVE",
"76 663 OFFCURVE",
"68 650 CURVE",
"80 316 LINE",
"40 76 LINE",
"63 33 OFFCURVE",
"93 3 OFFCURVE",
"128 -14 CURVE",
"182 0 LINE"
);
}
);
};
layerId = "112DCED4-3AF6-4CB2-B0B8-061253B4F405";
name = "Regular Aug 26 15, 15:31";
paths = (
{
closed = 1;
nodes = (
"541 644 LINE",
"524 679 OFFCURVE",
"494 709 OFFCURVE",
"451 732 CURVE",
"191 702 LINE",
"126 720 LINE",
"184 601 LINE",
"527 590 LINE"
);
},
{
closed = 1;
nodes = (
"181 343 LINE",
"190 628 LINE",
"172 643 OFFCURVE",
"146 718 OFFCURVE",
"126 720 CURVE",
"106 709 OFFCURVE",
"76 683 OFFCURVE",
"68 670 CURVE",
"80 336 LINE",
"40 76 LINE",
"63 33 OFFCURVE",
"93 3 OFFCURVE",
"128 -14 CURVE",
"192 0 LINE"
);
},
{
closed = 1;
nodes = (
"481 334 LINE",
"464 369 OFFCURVE",
"434 399 OFFCURVE",
"391 422 CURVE",
"151 392 LINE",
"144 291 LINE",
"467 280 LINE"
);
}
);
width = 520;
}
);
leftKerningGroup = H;
leftMetricsKey = H;
unicode = 0046;
},
{
color = 4;
glyphname = G;
lastChange = "2016-08-09 15:24:24 +0000";
layers = (
{
anchors = (
{
name = bottom;
position = "{285, 0}";
},
{
name = top;
position = "{303, 700}";
}
);
background = {
paths = (
{
closed = 1;
nodes = (
"525 659 OFFCURVE",
"504 691 OFFCURVE",
"486 708 CURVE",
"388 737 OFFCURVE",
"263 736 OFFCURVE",
"166 717 CURVE",
"129 687 OFFCURVE",
"76 627 OFFCURVE",
"57 593 CURVE",
"38 123 LINE",
"62 74 OFFCURVE",
"168 4 OFFCURVE",
"210 -1 CURVE",
"200 59 LINE",
"144 148 OFFCURVE",
"147 555 OFFCURVE",
"216 659 CURVE",
"162 586 LINE",
"246 621 OFFCURVE",
"379 620 OFFCURVE",
"468 608 CURVE",
"410 662 LINE",
"429 488 LINE",
"456 482 OFFCURVE",
"499 483 OFFCURVE",
"522 491 CURVE",
"536 638 LINE"
);
}
);
};
layerId = "B08EA6CB-0345-4FE8-BF44-53271D6C1876";
paths = (
{
closed = 1;
nodes = (
"324 304 LINE",
"413 249 LINE",
"413 144 LINE",
"175 104 LINE",
"147 216 OFFCURVE",
"158 459 OFFCURVE",
"198 588 CURVE",
"263 606 OFFCURVE",
"346 608 OFFCURVE",
"416 603 CURVE",
"430 478 LINE",
"457 472 OFFCURVE",
"500 473 OFFCURVE",
"523 481 CURVE",
"537 628 LINE",
"526 649 OFFCURVE",
"505 681 OFFCURVE",
"487 698 CURVE",
"389 727 OFFCURVE",
"271 725 OFFCURVE",
"174 706 CURVE",
"137 676 OFFCURVE",
"84 616 OFFCURVE",
"65 582 CURVE",
"38 134 LINE",
"53 85 OFFCURVE",
"169 5 OFFCURVE",
"211 0 CURVE",
"416 0 LINE",
"452 29 OFFCURVE",
"495 75 OFFCURVE",
"517 116 CURVE",
"527 296 LINE",
"581 305 LINE",
"581 383 LINE",
"339 383 LINE"
);
}
);
width = 601;
}
);
leftKerningGroup = O;
leftMetricsKey = O;
rightKerningGroup = G;
unicode = 0047;
},
{
color = 4;
glyphname = H;
lastChange = "2016-08-09 15:24:24 +0000";
layers = (
{
anchors = (
{
name = bottom;
position = "{312, 0}";
},
{
name = center;
position = "{318, 540}";
},
{
name = top;
position = "{322, 700}";
},
{
name = topleft;
position = "{-19, 700}";
}
);
background = {
paths = (
{
closed = 1;
nodes = (
"185 323 LINE",
"194 684 LINE",
"176 699 OFFCURVE",
"129 727 OFFCURVE",
"99 736 CURVE",
"64 706 LINE",
"85 336 LINE",
"39 74 LINE",
"62 31 OFFCURVE",
"95 1 OFFCURVE",
"130 -16 CURVE",
"184 -2 LINE"
);
},
{
closed = 1;
nodes = (
"563 323 LINE",
"572 684 LINE",
"554 699 OFFCURVE",
"507 727 OFFCURVE",
"477 736 CURVE",
"442 706 LINE",
"463 336 LINE",
"417 74 LINE",
"440 31 OFFCURVE",
"473 1 OFFCURVE",
"508 -16 CURVE",
"562 -2 LINE"
);
},
{
closed = 1;
nodes = (
"483 414 LINE",
"139 412 LINE",
"132 301 LINE",
"495 300 LINE"
);
}
);
};
layerId = "B08EA6CB-0345-4FE8-BF44-53271D6C1876";
paths = (
{
closed = 1;
nodes = (
"554 687 OFFCURVE",
"497 716 OFFCURVE",
"475 720 CURVE",
"446 700 LINE",
"455 413 LINE",
"187 413 LINE",
"194 668 LINE",
"176 687 OFFCURVE",
"119 716 OFFCURVE",
"97 720 CURVE",
"68 700 LINE",
"80 336 LINE",
"31 74 LINE",
"54 31 OFFCURVE",
"93 1 OFFCURVE",
"128 -16 CURVE",
"186 -2 LINE",
"185 301 LINE",
"451 301 LINE",
"409 74 LINE",
"432 31 OFFCURVE",
"471 1 OFFCURVE",
"506 -16 CURVE",
"564 -2 LINE",
"563 323 LINE",
"572 668 LINE"
);
}
);
width = 633;
}
);
leftKerningGroup = H;
rightKerningGroup = H;
unicode = 0048;
},
{
color = 4;
glyphname = I;
lastChange = "2016-08-09 15:24:24 +0000";
layers = (
{
anchors = (
{
name = bottom;
position = "{116, 0}";
},
{
name = ogonek;
position = "{182, 0}";
},
{
name = top;
position = "{126, 700}";
},
{
name = topleft;
position = "{-19, 700}";
}
);
background = {
paths = (
{
closed = 1;
nodes = (
"186 323 LINE",
"195 684 LINE",
"177 703 OFFCURVE",
"119 732 OFFCURVE",
"97 736 CURVE",
"68 716 LINE",
"80 336 LINE",
"31 76 LINE",
"54 33 OFFCURVE",
"94 3 OFFCURVE",
"129 -14 CURVE",
"187 0 LINE"
);
}
);
};
layerId = "B08EA6CB-0345-4FE8-BF44-53271D6C1876";
paths = (
{
closed = 1;
nodes = (
"185 323 LINE",
"194 668 LINE",
"176 687 OFFCURVE",
"119 716 OFFCURVE",
"97 720 CURVE",
"68 700 LINE",
"80 336 LINE",
"31 74 LINE",
"54 31 OFFCURVE",
"93 1 OFFCURVE",
"128 -16 CURVE",
"186 -2 LINE"
);
}
);
width = 255;
},
{
associatedMasterId = "B08EA6CB-0345-4FE8-BF44-53271D6C1876";
layerId = "1C53D935-0DA5-46DC-9980-73B25E997A19";
name = "Regular Aug 31 15, 19:32";
paths = (
{
closed = 1;
nodes = (
"100 726 LINE",
"115 364 LINE",
"70 67 LINE",
"93 24 OFFCURVE",
"123 -6 OFFCURVE",
"158 -23 CURVE",
"222 -9 LINE",
"202 371 LINE",
"252 650 LINE",
"229 693 OFFCURVE",
"199 723 OFFCURVE",
"164 740 CURVE"
);
}
);
width = 312;
}
);
leftKerningGroup = H;
leftMetricsKey = H;
rightKerningGroup = H;
rightMetricsKey = H;
unicode = 0049;
},
{
color = 4;
glyphname = J;
lastChange = "2020-11-19 14:17:17 +0000";
layers = (
{
anchors = (
{
name = bottom;
position = "{170, 0}";
},
{
name = top;
position = "{170, 700}";
}
);
background = {
anchors = (
{
name = bottom;
position = "{170, 0}";
},
{
name = top;
position = "{170, 700}";
}
);
paths = (
{
closed = 1;
nodes = (
"26 700 LINE",
"7 649 LINE",
"33 614 OFFCURVE",
"55 594 OFFCURVE",
"88 573 CURVE",
"189 586 LINE",
"193 336 LINE",
"160 -10 LINE",
"-27 -61 LINE",
"-46 -105 LINE",
"-37 -148 OFFCURVE",
"-13 -188 OFFCURVE",
"9 -205 CURVE",
"120 -163 OFFCURVE",
"262 -65 OFFCURVE",
"296 63 CURVE",
"315 628 LINE",
"297 647 OFFCURVE",
"239 696 OFFCURVE",
"217 700 CURVE"
);
}
);
};
layerId = "B08EA6CB-0345-4FE8-BF44-53271D6C1876";
paths = (
{
closed = 1;
nodes = (
"26 700 LINE",
"7 649 LINE",
"33 614 OFFCURVE",
"55 594 OFFCURVE",
"88 573 CURVE",
"189 586 LINE",
"193 336 LINE",
"160 -10 LINE",
"-27 -61 LINE",
"-46 -105 LINE",
"-37 -148 OFFCURVE",
"-13 -188 OFFCURVE",
"9 -205 CURVE",
"120 -163 OFFCURVE",
"262 -65 OFFCURVE",
"296 63 CURVE",
"315 628 LINE",
"297 647 OFFCURVE",
"239 696 OFFCURVE",
"217 700 CURVE"
);
}
);
width = 374;
},
{
associatedMasterId = "B08EA6CB-0345-4FE8-BF44-53271D6C1876";
background = {
paths = (
{
closed = 1;
nodes = (
"333 113 LINE",
"351 663 LINE",
"333 682 OFFCURVE",
"275 731 OFFCURVE",
"253 735 CURVE",
"224 715 LINE",
"236 336 LINE",
"194 45 LINE",
"254 95 LINE",
"33 69 LINE",
"1 15 LINE",
"10 -28 OFFCURVE",
"32 -68 OFFCURVE",
"54 -85 CURVE",
"251 -8 LINE"
);
}
);
};
layerId = "63F35066-E1DF-4284-A661-8AC8B81453C1";
name = "Regular Sep 3 15, 17:28";
paths = (
{
closed = 1;
nodes = (
"79 629 OFFCURVE",
"101 609 OFFCURVE",
"134 588 CURVE",
"259 604 LINE",
"263 715 LINE",
"72 719 LINE",
"53 664 LINE"
);
},
{
closed = 1;
nodes = (
"342 123 LINE",
"361 643 LINE",
"343 662 OFFCURVE",
"285 711 OFFCURVE",
"263 715 CURVE",
"234 695 LINE",
"239 336 LINE",
"203 55 LINE",
"263 105 LINE",
"32 49 LINE",
"0 -5 LINE",
"9 -48 OFFCURVE",
"31 -88 OFFCURVE",
"53 -105 CURVE",
"260 2 LINE"
);
}
);
width = 431;
},
{
associatedMasterId = "B08EA6CB-0345-4FE8-BF44-53271D6C1876";
background = {
paths = (
{
closed = 1;
nodes = (
"79 629 OFFCURVE",
"101 609 OFFCURVE",
"134 588 CURVE",
"259 604 LINE",
"263 715 LINE",
"72 719 LINE",
"53 664 LINE"
);
},
{
closed = 1;
nodes = (
"342 123 LINE",
"361 643 LINE",
"343 662 OFFCURVE",
"285 711 OFFCURVE",
"263 715 CURVE",
"234 695 LINE",
"239 336 LINE",
"203 55 LINE",
"263 105 LINE",
"32 49 LINE",
"0 -5 LINE",
"9 -48 OFFCURVE",
"31 -88 OFFCURVE",
"53 -105 CURVE",
"260 2 LINE"
);
}
);
};
layerId = "8E3BC4A1-C112-4235-950D-9347FABFB047";
name = "Regular Sep 3 15, 17:29";
paths = (
{
closed = 1;
nodes = (
"333 113 LINE",
"351 663 LINE",
"333 682 OFFCURVE",
"275 731 OFFCURVE",
"253 735 CURVE",
"224 715 LINE",
"236 336 LINE",
"194 45 LINE",
"254 95 LINE",
"33 69 LINE",
"1 15 LINE",
"10 -28 OFFCURVE",
"32 -68 OFFCURVE",
"54 -85 CURVE",
"251 -8 LINE"
);
}
);
width = 431;
},
{
associatedMasterId = "B08EA6CB-0345-4FE8-BF44-53271D6C1876";
background = {
paths = (
{
closed = 1;
nodes = (
"79 629 OFFCURVE",
"101 609 OFFCURVE",
"134 588 CURVE",
"259 604 LINE",
"263 715 LINE",
"72 719 LINE",
"53 664 LINE"
);
},
{
closed = 1;
nodes = (
"166 -63 OFFCURVE",
"308 35 OFFCURVE",
"342 163 CURVE",
"361 643 LINE",
"343 662 OFFCURVE",
"285 711 OFFCURVE",
"263 715 CURVE",
"234 695 LINE",
"239 336 LINE",
"203 55 LINE",
"263 105 LINE",
"19 39 LINE",
"0 -5 LINE",
"9 -48 OFFCURVE",
"33 -88 OFFCURVE",
"55 -105 CURVE"
);
}
);
};
layerId = "29AF19FB-FEED-45AE-A434-0F64417779F3";
name = "Regular Sep 3 15, 17:33";
paths = (
{
closed = 1;
nodes = (
"79 629 OFFCURVE",
"101 609 OFFCURVE",
"134 588 CURVE",
"259 604 LINE",
"263 715 LINE",
"72 719 LINE",
"53 664 LINE"
);
},
{
closed = 1;
nodes = (
"211 -52 OFFCURVE",
"311 61 OFFCURVE",
"342 143 CURVE",
"361 643 LINE",
"343 662 OFFCURVE",
"285 711 OFFCURVE",
"263 715 CURVE",
"234 695 LINE",
"239 336 LINE",
"203 55 LINE",
"263 125 LINE",
"50 -35 LINE",
"64 -78 OFFCURVE",
"89 -105 OFFCURVE",
"121 -124 CURVE"
);
}
);
width = 431;
}
);
leftKerningGroup = J;
rightKerningGroup = J;
unicode = 004A;
},
{
color = 4;
glyphname = K;
lastChange = "2016-08-09 15:24:24 +0000";
layers = (
{
anchors = (
{
name = bottom;
position = "{303, 0}";
},
{
name = top;
position = "{303, 700}";
}
);
background = {
paths = (
{
closed = 1;
nodes = (
"376 670 OFFCURVE",
"208 500 OFFCURVE",
"72 175 CURVE",
"87 141 OFFCURVE",
"106 113 OFFCURVE",
"130 90 CURVE",
"170 90 LINE",
"160 347 OFFCURVE",
"365 512 OFFCURVE",
"571 624 CURVE",
"584 661 LINE",
"569 691 OFFCURVE",
"540 724 OFFCURVE",
"510 740 CURVE"
);
},
{
closed = 1;
nodes = (
"242 368 LINE",
"360 74 LINE",
"390 41 OFFCURVE",
"460 0 OFFCURVE",
"520 -14 CURVE",
"630 39 LINE",
"627 70 OFFCURVE",
"617 108 OFFCURVE",
"606 124 CURVE",
"466 88 LINE",
"548 47 LINE",
"454 129 OFFCURVE",
"386 310 OFFCURVE",
"333 476 CURVE"
);
},
{
closed = 1;
nodes = (
"185 323 LINE",
"194 684 LINE",
"176 703 OFFCURVE",
"119 732 OFFCURVE",
"97 736 CURVE",
"68 716 LINE",
"80 336 LINE",
"31 76 LINE",
"54 33 OFFCURVE",
"93 3 OFFCURVE",
"128 -14 CURVE",
"186 0 LINE"
);
}
);
};
layerId = "B08EA6CB-0345-4FE8-BF44-53271D6C1876";
paths = (
{
closed = 1;
nodes = (
"509 97 LINE",
"450 175 OFFCURVE",
"394 291 OFFCURVE",
"353 394 CURVE",
"571 586 LINE",
"565 625 OFFCURVE",
"548 668 OFFCURVE",
"526 700 CURVE",
"485 700 LINE",
"186 353 LINE",
"194 668 LINE",
"176 687 OFFCURVE",
"119 716 OFFCURVE",
"97 720 CURVE",
"68 700 LINE",
"80 336 LINE",
"31 76 LINE",
"54 33 OFFCURVE",
"93 3 OFFCURVE",
"128 -14 CURVE",
"186 0 LINE",
"185 246 LINE",
"263 314 LINE",
"360 72 LINE",
"390 39 OFFCURVE",
"460 -2 OFFCURVE",
"520 -16 CURVE",
"630 37 LINE",
"627 68 OFFCURVE",
"617 106 OFFCURVE",
"606 122 CURVE"
);
}
);
width = 638;
}
);
leftKerningGroup = H;
leftMetricsKey = H;
rightKerningGroup = K;
unicode = 004B;
},
{
color = 4;
glyphname = L;
lastChange = "2016-08-09 15:24:24 +0000";
layers = (
{
anchors = (
{
name = bottom;
position = "{223, 0}";
},
{
name = center;
position = "{131, 350}";
},
{
name = germinatedl;
position = "{311, 350}";
},
{
name = top;
position = "{111, 700}";
},
{
name = topright;
position = "{350, 500}";
}
);
background = {
paths = (
{
closed = 1;
nodes = (
"173 323 LINE",
"184 684 LINE",
"166 703 OFFCURVE",
"103 732 OFFCURVE",
"81 736 CURVE",
"52 716 LINE",
"69 336 LINE",
"31 31 LINE",
"46 11 OFFCURVE",
"70 -5 OFFCURVE",
"96 -14 CURVE",
"173 33 LINE"
);
}
);
};
layerId = "B08EA6CB-0345-4FE8-BF44-53271D6C1876";
paths = (
{
closed = 1;
nodes = (
"173 106 LINE",
"173 323 LINE",
"184 668 LINE",
"166 687 OFFCURVE",
"109 716 OFFCURVE",
"87 720 CURVE",
"58 700 LINE",
"70 336 LINE",
"31 29 LINE",
"46 9 OFFCURVE",
"70 -7 OFFCURVE",
"96 -16 CURVE",
"137 9 LINE",
"393 -16 LINE",
"429 14 OFFCURVE",
"465 56 OFFCURVE",
"484 96 CURVE",
"459 146 LINE"
);
}
);
width = 492;
},
{
associatedMasterId = "B08EA6CB-0345-4FE8-BF44-53271D6C1876";
background = {
paths = (
{
closed = 1;
nodes = (
"253 62 LINE",
"252 343 LINE",
"254 628 LINE",
"187 720 LINE",
"167 709 OFFCURVE",
"137 673 OFFCURVE",
"129 660 CURVE",
"157 336 LINE",
"111 67 LINE",
"121 48 OFFCURVE",
"133 31 OFFCURVE",
"146 17 CURVE"
);
}
);
};
layerId = "6AEE6AAF-CD4E-471E-B9FF-3E7510473A25";
name = "Regular Aug 27 15, 15:45";
paths = (
{
closed = 1;
nodes = (
"438 114 OFFCURVE",
"377 140 OFFCURVE",
"245 133 CURVE",
"185 45 LINE",
"316 64 OFFCURVE",
"391 -18 OFFCURVE",
"482 -18 CURVE",
"525 5 OFFCURVE",
"571 121 OFFCURVE",
"582 148 CURVE",
"548 188 LINE"
);
},
{
closed = 1;
nodes = (
"71 153 LINE",
"61 130 OFFCURVE",
"52 99 OFFCURVE",
"50 69 CURVE",
"90 19 OFFCURVE",
"151 -17 OFFCURVE",
"194 -23 CURVE",
"257 46 OFFCURVE",
"247 123 OFFCURVE",
"231 157 CURVE",
"192 157 LINE"
);
},
{
closed = 1;
nodes = (
"131 726 LINE",
"156 364 LINE",
"121 67 LINE",
"199 72 LINE",
"263 86 LINE",
"243 371 LINE",
"283 650 LINE",
"260 693 OFFCURVE",
"230 723 OFFCURVE",
"195 740 CURVE"
);
}
);
width = 597;
},
{
associatedMasterId = "B08EA6CB-0345-4FE8-BF44-53271D6C1876";
background = {
paths = (
{
closed = 1;
nodes = (
"56 153 LINE",
"46 130 OFFCURVE",
"37 99 OFFCURVE",
"35 69 CURVE",
"75 29 OFFCURVE",
"146 -17 OFFCURVE",
"179 -23 CURVE",
"242 46 OFFCURVE",
"232 123 OFFCURVE",
"216 157 CURVE",
"177 157 LINE"
);
},
{
closed = 1;
nodes = (
"239 64 LINE",
"249 313 LINE",
"258 674 LINE",
"240 689 OFFCURVE",
"177 734 OFFCURVE",
"157 736 CURVE",
"123 716 LINE",
"148 336 LINE",
"95 76 LINE"
);
},
{
closed = 1;
nodes = (
"202 134 LINE",
"181 42 LINE",
"459 -17 LINE",
"502 6 OFFCURVE",
"539 35 OFFCURVE",
"559 71 CURVE",
"545 125 LINE"
);
}
);
};
layerId = "E8D9800D-082D-45DF-9BAB-0BCBC5CA587F";
name = "Regular Sep 1 15, 11:37";
paths = (
{
closed = 1;
nodes = (
"220 323 LINE",
"229 684 LINE",
"211 699 OFFCURVE",
"164 734 OFFCURVE",
"144 736 CURVE",
"99 706 LINE",
"120 336 LINE",
"74 44 LINE",
"98 15 OFFCURVE",
"120 -1 OFFCURVE",
"155 -16 CURVE",
"219 30 LINE"
);
},
{
closed = 1;
nodes = (
"147 112 LINE",
"146 30 LINE",
"439 -17 LINE",
"482 6 OFFCURVE",
"523 51 OFFCURVE",
"543 87 CURVE",
"529 141 LINE"
);
}
);
width = 548;
},
{
associatedMasterId = "B08EA6CB-0345-4FE8-BF44-53271D6C1876";
background = {
paths = (
{
closed = 1;
nodes = (
"228 62 LINE",
"264 652 LINE",
"245 685 OFFCURVE",
"201 723 OFFCURVE",
"170 740 CURVE",
"117 716 LINE",
"142 346 LINE",
"86 67 LINE",
"96 48 OFFCURVE",
"108 31 OFFCURVE",
"121 17 CURVE"
);
},
{
closed = 1;
nodes = (
"56 153 LINE",
"46 130 OFFCURVE",
"37 99 OFFCURVE",
"35 69 CURVE",
"75 29 OFFCURVE",
"146 -17 OFFCURVE",
"179 -23 CURVE",
"242 46 OFFCURVE",
"232 123 OFFCURVE",
"216 157 CURVE",
"177 157 LINE"
);
},
{
closed = 1;
nodes = (
"230 134 LINE",
"199 42 LINE",
"457 -17 LINE",
"500 6 OFFCURVE",
"537 35 OFFCURVE",
"557 71 CURVE",
"543 125 LINE"
);
}
);
};
layerId = "A4E67CEA-E0F7-428A-A493-6EB0503B03E4";
name = "Regular Sep 1 15, 17:33";
paths = (
{
closed = 1;
nodes = (
"151 91 LINE",
"171 18 LINE",
"453 -4 LINE",
"485 26 OFFCURVE",
"515 72 OFFCURVE",
"534 112 CURVE",
"509 162 LINE"
);
},
{
closed = 1;
nodes = (
"218 323 LINE",
"227 684 LINE",
"209 699 OFFCURVE",
"162 728 OFFCURVE",
"142 736 CURVE",
"97 706 LINE",
"118 336 LINE",
"74 44 LINE",
"91 17 OFFCURVE",
"110 5 OFFCURVE",
"144 -7 CURVE",
"217 30 LINE"
);
}
);
width = 534;
}
);
leftKerningGroup = H;
leftMetricsKey = H;
rightKerningGroup = L;
unicode = 004C;
},
{
color = 4;
glyphname = M;
lastChange = "2016-08-09 15:24:24 +0000";
layers = (
{
anchors = (
{
name = bottom;
position = "{387, 0}";
},
{
name = top;
position = "{387, 700}";
}
);
background = {
paths = (
{
closed = 1;
nodes = (
"254 643 LINE",
"222 672 OFFCURVE",
"164 715 OFFCURVE",
"135 729 CURVE",
"-10 729 LINE",
"-20 695 OFFCURVE",
"-19 649 OFFCURVE",
"0 617 CURVE",
"91 620 LINE",
"176 629 LINE",
"297 127 LINE",
"320 82 OFFCURVE",
"353 46 OFFCURVE",
"396 21 CURVE",
"433 33 LINE"
);
},
{
closed = 1;
nodes = (
"193 323 LINE",
"192 601 LINE",
"192 669 LINE",
"76 711 LINE",
"88 336 LINE",
"39 76 LINE",
"62 33 OFFCURVE",
"101 3 OFFCURVE",
"136 -14 CURVE",
"194 0 LINE"
);
},
{
closed = 1;
nodes = (
"721 323 LINE",
"730 684 LINE",
"712 703 OFFCURVE",
"657 732 OFFCURVE",
"635 736 CURVE",
"606 716 LINE",
"617 669 LINE",
"618 336 LINE",
"569 76 LINE",
"592 33 OFFCURVE",
"631 3 OFFCURVE",
"666 -14 CURVE",
"722 0 LINE"
);
},
{
closed = 1;
nodes = (
"385 58 LINE",
"433 33 LINE",
"684 701 LINE",
"606 716 LINE",
"356 93 LINE"
);
}
);
};
layerId = "B08EA6CB-0345-4FE8-BF44-53271D6C1876";
paths = (
{
closed = 1;
nodes = (
"700 655 LINE",
"682 674 OFFCURVE",
"617 703 OFFCURVE",
"595 707 CURVE",
"566 687 LINE",
"393 199 LINE",
"294 614 LINE",
"262 643 OFFCURVE",
"204 686 OFFCURVE",
"175 700 CURVE",
"30 700 LINE",
"20 666 OFFCURVE",
"21 620 OFFCURVE",
"40 588 CURVE",
"124 591 LINE",
"96 336 LINE",
"39 74 LINE",
"62 31 OFFCURVE",
"91 1 OFFCURVE",
"126 -16 CURVE",
"184 -2 LINE",
"193 323 LINE",
"220 539 LINE",
"297 127 LINE",
"320 82 OFFCURVE",
"353 46 OFFCURVE",
"396 21 CURVE",
"433 33 LINE",
"608 564 LINE",
"618 336 LINE",
"596 74 LINE",
"619 31 OFFCURVE",
"658 1 OFFCURVE",
"693 -16 CURVE",
"749 -2 LINE",
"721 323 LINE"
);
}
);
width = 782;
},
{
associatedMasterId = "B08EA6CB-0345-4FE8-BF44-53271D6C1876";
layerId = "4CC7C8F2-3C99-4EAA-968E-84F44C011178";
name = "Regular Sep 19 15, 19:17";
paths = (
{
closed = 1;
nodes = (
"301 643 LINE",
"269 672 OFFCURVE",
"211 715 OFFCURVE",
"182 729 CURVE",
"37 729 LINE",
"27 695 OFFCURVE",
"28 649 OFFCURVE",
"47 617 CURVE",
"138 620 LINE",
"223 629 LINE",
"344 127 LINE",
"367 82 OFFCURVE",
"400 46 OFFCURVE",
"443 21 CURVE",
"480 33 LINE"
);
},
{
closed = 1;
nodes = (
"240 323 LINE",
"239 601 LINE",
"239 669 LINE",
"123 711 LINE",
"135 336 LINE",
"86 76 LINE",
"109 33 OFFCURVE",
"148 3 OFFCURVE",
"183 -14 CURVE",
"241 0 LINE"
);
},
{
closed = 1;
nodes = (
"768 323 LINE",
"777 684 LINE",
"759 703 OFFCURVE",
"704 732 OFFCURVE",
"682 736 CURVE",
"653 716 LINE",
"664 669 LINE",
"665 336 LINE",
"616 76 LINE",
"639 33 OFFCURVE",
"678 3 OFFCURVE",
"713 -14 CURVE",
"769 0 LINE"
);
},
{
closed = 1;
nodes = (
"432 58 LINE",
"480 33 LINE",
"731 701 LINE",
"653 716 LINE",
"403 93 LINE"
);
}
);
width = 847;
}
);
leftKerningGroup = M;
rightKerningGroup = M;
unicode = 004D;
},
{
color = 4;
glyphname = N;
lastChange = "2016-08-09 15:24:24 +0000";
layers = (
{
anchors = (
{
name = bottom;
position = "{323, 0}";
},
{
name = top;
position = "{333, 700}";
}
);
background = {
paths = (
{
closed = 1;
nodes = (
"214 323 LINE",
"223 679 LINE",
"97 711 LINE",
"109 336 LINE",
"60 76 LINE",
"83 33 OFFCURVE",
"122 3 OFFCURVE",
"157 -14 CURVE",
"215 0 LINE"
);
}
);
};
layerId = "B08EA6CB-0345-4FE8-BF44-53271D6C1876";
paths = (
{
closed = 1;
nodes = (
"584 687 OFFCURVE",
"527 716 OFFCURVE",
"505 720 CURVE",
"476 700 LINE",
"488 336 LINE",
"478 284 LINE",
"275 614 LINE",
"243 643 OFFCURVE",
"185 686 OFFCURVE",
"156 700 CURVE",
"11 700 LINE",
"1 666 OFFCURVE",
"2 620 OFFCURVE",
"21 588 CURVE",
"101 591 LINE",
"109 336 LINE",
"60 74 LINE",
"83 31 OFFCURVE",
"122 1 OFFCURVE",
"157 -16 CURVE",
"215 -2 LINE",
"214 323 LINE",
"220 530 LINE",
"452 146 LINE",
"439 74 LINE",
"462 31 OFFCURVE",
"501 1 OFFCURVE",
"536 -16 CURVE",
"594 -2 LINE",
"593 323 LINE",
"602 668 LINE"
);
}
);
width = 663;
}
);
leftKerningGroup = N;
rightKerningGroup = H;
rightMetricsKey = H;
unicode = 004E;
},
{
color = 4;
glyphname = O;
lastChange = "2016-08-09 15:24:24 +0000";
layers = (
{
anchors = (
{
name = bottom;
position = "{287, 0}";
},
{
name = center;
position = "{287, 350}";
},
{
name = ogonek;
position = "{526, 10}";
},
{
name = top;
position = "{307, 700}";
},
{
name = topleft;
position = "{8, 700}";
},
{
name = topright;
position = "{566, 700}";
}
);
background = {
paths = (
{
closed = 1;
nodes = (
"523 635 OFFCURVE",
"472 687 OFFCURVE",
"434 716 CURVE",
"356 735 OFFCURVE",
"271 734 OFFCURVE",
"174 715 CURVE",
"137 685 OFFCURVE",
"84 625 OFFCURVE",
"65 591 CURVE",
"38 134 LINE",
"53 85 OFFCURVE",
"168 5 OFFCURVE",
"210 0 CURVE",
"192 60 LINE",
"136 149 OFFCURVE",
"155 553 OFFCURVE",
"224 657 CURVE",
"170 584 LINE",
"254 619 OFFCURVE",
"377 618 OFFCURVE",
"456 586 CURVE",
"392 660 LINE",
"444 543 OFFCURVE",
"431 211 OFFCURVE",
"386 88 CURVE",
"527 126 LINE",
"544 596 LINE"
);
},
{
closed = 1;
nodes = (
"124 95 LINE",
"210 0 LINE",
"396 0 LINE",
"442 29 OFFCURVE",
"499 85 OFFCURVE",
"527 126 CURVE",
"502 157 LINE"
);
}
);
};
layerId = "B08EA6CB-0345-4FE8-BF44-53271D6C1876";
paths = (
{
closed = 1;
nodes = (
"356 725 OFFCURVE",
"271 724 OFFCURVE",
"174 705 CURVE",
"137 675 OFFCURVE",
"84 615 OFFCURVE",
"65 581 CURVE",
"38 134 LINE",
"53 85 OFFCURVE",
"168 5 OFFCURVE",
"210 0 CURVE",
"396 0 LINE",
"442 29 OFFCURVE",
"499 85 OFFCURVE",
"527 126 CURVE",
"544 586 LINE",
"523 625 OFFCURVE",
"472 677 OFFCURVE",
"434 706 CURVE"
);
},
{
closed = 1;
nodes = (
"147 215 OFFCURVE",
"157 454 OFFCURVE",
"197 584 CURVE",
"262 604 OFFCURVE",
"344 605 OFFCURVE",
"410 590 CURVE",
"436 467 OFFCURVE",
"428 262 OFFCURVE",
"401 140 CURVE",
"175 103 LINE"
);
}
);
width = 582;
}
);
leftKerningGroup = O;
rightKerningGroup = O;
unicode = 004F;
},
{
color = 4;
glyphname = P;
lastChange = "2016-08-09 15:24:24 +0000";
layers = (
{
anchors = (
{
name = bottom;
position = "{261, 0}";
},
{
name = top;
position = "{261, 700}";
}
);
background = {
paths = (
{
closed = 1;
nodes = (
"157 565 LINE",
"243 617 OFFCURVE",
"379 629 OFFCURVE",
"445 602 CURVE",
"391 665 LINE",
"423 616 OFFCURVE",
"424 453 OFFCURVE",
"404 341 CURVE",
"459 412 LINE",
"240 335 LINE",
"237 304 OFFCURVE",
"246 259 OFFCURVE",
"265 238 CURVE",
"445 265 LINE",
"532 381 LINE",
"540 599 LINE",
"521 633 OFFCURVE",
"474 692 OFFCURVE",
"421 723 CURVE",
"341 739 OFFCURVE",
"207 718 OFFCURVE",
"126 650 CURVE"
);
},
{
closed = 1;
nodes = (
"181 323 LINE",
"190 684 LINE",
"172 703 OFFCURVE",
"117 732 OFFCURVE",
"95 736 CURVE",
"66 716 LINE",
"78 336 LINE",
"31 76 LINE",
"54 33 OFFCURVE",
"93 3 OFFCURVE",
"128 -14 CURVE",
"184 0 LINE"
);
}
);
};
layerId = "B08EA6CB-0345-4FE8-BF44-53271D6C1876";
paths = (
{
closed = 1;
nodes = (
"357 728 OFFCURVE",
"259 717 OFFCURVE",
"181 678 CURVE",
"157 696 OFFCURVE",
"114 717 OFFCURVE",
"95 720 CURVE",
"66 700 LINE",
"78 336 LINE",
"31 74 LINE",
"54 31 OFFCURVE",
"93 1 OFFCURVE",
"128 -16 CURVE",
"184 -2 LINE",
"182 250 LINE",
"417 255 LINE",
"524 371 LINE",
"540 591 LINE",
"521 625 OFFCURVE",
"474 684 OFFCURVE",
"421 715 CURVE"
);
},
{
closed = 1;
nodes = (
"416 547 OFFCURVE",
"414 463 OFFCURVE",
"405 390 CURVE",
"182 340 LINE",
"189 574 LINE",
"258 604 OFFCURVE",
"346 614 OFFCURVE",
"408 604 CURVE"
);
}
);
width = 559;
}
);
leftKerningGroup = H;
leftMetricsKey = H;
rightKerningGroup = P;
unicode = 0050;
},
{
color = 4;
glyphname = Q;
lastChange = "2016-08-09 15:24:24 +0000";
layers = (
{
associatedMasterId = "B08EA6CB-0345-4FE8-BF44-53271D6C1876";
background = {
paths = (
{
closed = 1;
nodes = (
"535 640 OFFCURVE",
"484 692 OFFCURVE",
"446 721 CURVE",
"368 740 OFFCURVE",
"283 739 OFFCURVE",
"186 720 CURVE",
"149 690 OFFCURVE",
"96 630 OFFCURVE",
"77 596 CURVE",
"50 127 LINE",
"65 78 OFFCURVE",
"180 -2 OFFCURVE",
"222 -7 CURVE",
"204 53 LINE",
"148 142 OFFCURVE",
"167 557 OFFCURVE",
"236 662 CURVE",
"182 589 LINE",
"266 624 OFFCURVE",
"389 623 OFFCURVE",
"468 591 CURVE",
"404 665 LINE",
"456 547 OFFCURVE",
"443 204 OFFCURVE",
"398 81 CURVE",
"539 119 LINE",
"556 601 LINE"
);
},
{
closed = 1;
nodes = (
"136 88 LINE",
"222 -7 LINE",
"370 -7 LINE",
"408 3 LINE",
"454 32 OFFCURVE",
"508 78 OFFCURVE",
"539 119 CURVE",
"514 140 LINE"
);
},
{
closed = 1;
nodes = (
"300 -6 LINE",
"463 -188 LINE",
"507 -185 OFFCURVE",
"567 -170 OFFCURVE",
"593 -157 CURVE",
"654 -45 LINE",
"641 -26 OFFCURVE",
"622 -8 OFFCURVE",
"596 0 CURVE",
"508 -94 LINE",
"592 -98 LINE",
"534 -78 OFFCURVE",
"453 -27 OFFCURVE",
"406 14 CURVE"
);
}
);
};
layerId = "4FA54F07-F1DE-4ED6-92B1-B41ACE4F8B2E";
name = "Regular Sep 3 15, 17:35";
paths = (
{
closed = 1;
nodes = (
"230 -30 LINE",
"82 -166 LINE",
"97 -207 OFFCURVE",
"136 -241 OFFCURVE",
"185 -258 CURVE",
"296 -81 LINE",
"249 -93 LINE",
"438 -281 LINE",
"483 -284 OFFCURVE",
"551 -272 OFFCURVE",
"594 -240 CURVE",
"654 -105 LINE",
"630 -85 OFFCURVE",
"596 -66 OFFCURVE",
"577 -62 CURVE",
"503 -187 LINE",
"567 -191 LINE",
"476 -156 OFFCURVE",
"381 -96 OFFCURVE",
"274 -30 CURVE"
);
},
{
closed = 1;
nodes = (
"535 640 OFFCURVE",
"484 692 OFFCURVE",
"446 721 CURVE",
"368 740 OFFCURVE",
"283 739 OFFCURVE",
"186 720 CURVE",
"149 690 OFFCURVE",
"96 630 OFFCURVE",
"77 596 CURVE",
"50 127 LINE",
"65 78 OFFCURVE",
"180 -2 OFFCURVE",
"222 -7 CURVE",
"204 53 LINE",
"148 142 OFFCURVE",
"167 557 OFFCURVE",
"236 662 CURVE",
"182 589 LINE",
"266 624 OFFCURVE",
"389 623 OFFCURVE",
"468 591 CURVE",
"404 665 LINE",
"456 547 OFFCURVE",
"443 204 OFFCURVE",
"398 81 CURVE",
"539 119 LINE",
"556 601 LINE"
);
},
{
closed = 1;
nodes = (
"136 80 LINE",
"222 -7 LINE",
"408 -7 LINE",
"454 22 OFFCURVE",
"511 78 OFFCURVE",
"539 119 CURVE",
"514 142 LINE"
);
}
);
width = 634;
},
{
associatedMasterId = "B08EA6CB-0345-4FE8-BF44-53271D6C1876";
background = {
paths = (
{
closed = 1;
nodes = (
"535 640 OFFCURVE",
"484 692 OFFCURVE",
"446 721 CURVE",
"368 740 OFFCURVE",
"283 739 OFFCURVE",
"186 720 CURVE",
"149 690 OFFCURVE",
"96 630 OFFCURVE",
"77 596 CURVE",
"50 127 LINE",
"65 78 OFFCURVE",
"180 -2 OFFCURVE",
"222 -7 CURVE",
"204 53 LINE",
"148 142 OFFCURVE",
"167 557 OFFCURVE",
"236 662 CURVE",
"182 589 LINE",
"266 624 OFFCURVE",
"389 623 OFFCURVE",
"468 591 CURVE",
"404 665 LINE",
"456 547 OFFCURVE",
"443 204 OFFCURVE",
"398 81 CURVE",
"539 119 LINE",
"556 601 LINE"
);
},
{
closed = 1;
nodes = (
"136 88 LINE",
"222 -7 LINE",
"370 -7 LINE",
"408 3 LINE",
"454 32 OFFCURVE",
"508 78 OFFCURVE",
"539 119 CURVE",
"514 140 LINE"
);
},
{
closed = 1;
nodes = (
"300 -6 LINE",
"463 -188 LINE",
"507 -185 OFFCURVE",
"567 -170 OFFCURVE",
"593 -157 CURVE",
"654 -45 LINE",
"641 -26 OFFCURVE",
"622 -8 OFFCURVE",
"596 0 CURVE",
"508 -94 LINE",
"592 -98 LINE",
"534 -78 OFFCURVE",
"453 -27 OFFCURVE",
"406 14 CURVE"
);
}
);
};
layerId = "724EF940-8D4A-4357-A294-6F93A2DE3126";
name = "Regular Sep 3 15, 17:42";
paths = (
{
closed = 1;
nodes = (
"230 20 LINE",
"82 -116 LINE",
"97 -157 OFFCURVE",
"136 -191 OFFCURVE",
"185 -208 CURVE",
"296 -31 LINE",
"249 -43 LINE",
"448 -241 LINE",
"493 -245 OFFCURVE",
"568 -229 OFFCURVE",
"604 -210 CURVE",
"662 -75 LINE",
"648 -55 OFFCURVE",
"610 -31 OFFCURVE",
"587 -27 CURVE",
"503 -137 LINE",
"567 -151 LINE",
"476 -116 OFFCURVE",
"381 -41 OFFCURVE",
"274 25 CURVE"
);
},
{
closed = 1;
nodes = (
"535 640 OFFCURVE",
"484 692 OFFCURVE",
"446 721 CURVE",
"368 740 OFFCURVE",
"283 739 OFFCURVE",
"186 720 CURVE",
"149 690 OFFCURVE",
"96 630 OFFCURVE",
"77 596 CURVE",
"50 127 LINE",
"65 78 OFFCURVE",
"180 -2 OFFCURVE",
"222 -7 CURVE",
"204 53 LINE",
"148 142 OFFCURVE",
"167 557 OFFCURVE",
"236 662 CURVE",
"182 589 LINE",
"266 624 OFFCURVE",
"389 623 OFFCURVE",
"468 591 CURVE",
"404 665 LINE",
"456 547 OFFCURVE",
"443 204 OFFCURVE",
"398 81 CURVE",
"539 119 LINE",
"556 601 LINE"
);
},
{
closed = 1;
nodes = (
"136 81 LINE",
"222 -7 LINE",
"408 -7 LINE",
"454 22 OFFCURVE",
"511 78 OFFCURVE",
"539 119 CURVE",
"514 132 LINE"
);
}
);
width = 634;
},
{
anchors = (
{
name = bottom;
position = "{306, 0}";
},
{
name = top;
position = "{306, 700}";
}
);
background = {
paths = (
{
closed = 1;
nodes = (
"524 640 OFFCURVE",
"473 692 OFFCURVE",
"435 721 CURVE",
"357 740 OFFCURVE",
"272 739 OFFCURVE",
"175 720 CURVE",
"138 690 OFFCURVE",
"85 630 OFFCURVE",
"66 596 CURVE",
"39 127 LINE",
"54 78 OFFCURVE",
"169 -2 OFFCURVE",
"211 -7 CURVE",
"193 53 LINE",
"137 142 OFFCURVE",
"156 557 OFFCURVE",
"225 662 CURVE",
"171 589 LINE",
"255 624 OFFCURVE",
"378 623 OFFCURVE",
"457 591 CURVE",
"393 665 LINE",
"445 547 OFFCURVE",
"432 204 OFFCURVE",
"387 81 CURVE",
"528 119 LINE",
"545 601 LINE"
);
},
{
closed = 1;
nodes = (
"125 88 LINE",
"211 -7 LINE",
"359 -7 LINE",
"397 3 LINE",
"443 32 OFFCURVE",
"497 78 OFFCURVE",
"528 119 CURVE",
"503 140 LINE"
);
}
);
};
layerId = "B08EA6CB-0345-4FE8-BF44-53271D6C1876";
paths = (
{
closed = 1;
nodes = (
"510 -70 LINE",
"471 -49 OFFCURVE",
"431 -22 OFFCURVE",
"400 2 CURVE",
"445 32 OFFCURVE",
"500 86 OFFCURVE",
"527 126 CURVE",
"544 586 LINE",
"523 625 OFFCURVE",
"472 677 OFFCURVE",
"434 706 CURVE",
"356 725 OFFCURVE",
"271 724 OFFCURVE",
"174 705 CURVE",
"137 675 OFFCURVE",
"84 615 OFFCURVE",
"65 581 CURVE",
"38 134 LINE",
"53 85 OFFCURVE",
"168 5 OFFCURVE",
"210 0 CURVE",
"275 0 LINE",
"443 -188 LINE",
"487 -185 OFFCURVE",
"547 -170 OFFCURVE",
"573 -157 CURVE",
"634 -45 LINE",
"621 -26 OFFCURVE",
"602 -8 OFFCURVE",
"576 0 CURVE"
);
},
{
closed = 1;
nodes = (
"147 215 OFFCURVE",
"157 454 OFFCURVE",
"197 584 CURVE",
"262 604 OFFCURVE",
"344 605 OFFCURVE",
"410 590 CURVE",
"436 467 OFFCURVE",
"428 262 OFFCURVE",
"401 140 CURVE",
"175 103 LINE"
);
}
);
width = 582;
}
);
leftKerningGroup = O;
leftMetricsKey = O;
rightKerningGroup = O;
unicode = 0051;
},
{
color = 4;
glyphname = R;
lastChange = "2016-08-09 15:24:24 +0000";
layers = (
{
anchors = (
{
name = bottom;
position = "{270, 0}";
},
{
name = top;
position = "{270, 700}";
}
);
layerId = "B08EA6CB-0345-4FE8-BF44-53271D6C1876";
paths = (
{
closed = 1;
nodes = (
"529 390 LINE",
"542 590 LINE",
"523 624 OFFCURVE",
"474 684 OFFCURVE",
"421 715 CURVE",
"357 728 OFFCURVE",
"253 717 OFFCURVE",
"172 678 CURVE",
"148 696 OFFCURVE",
"105 717 OFFCURVE",
"87 720 CURVE",
"58 700 LINE",
"70 336 LINE",
"31 29 LINE",
"46 9 OFFCURVE",
"70 -7 OFFCURVE",
"96 -16 CURVE",
"173 31 LINE",
"173 278 LINE",
"320 283 LINE",
"384 49 LINE",
"418 14 OFFCURVE",
"470 -9 OFFCURVE",
"508 -16 CURVE",
"557 26 LINE",
"413 296 LINE"
);
},
{
closed = 1;
nodes = (
"417 554 OFFCURVE",
"416 486 OFFCURVE",
"408 420 CURVE",
"175 370 LINE",
"181 574 LINE",
"252 605 OFFCURVE",
"346 614 OFFCURVE",
"409 604 CURVE"
);
}
);
width = 584;
}
);
leftKerningGroup = H;
leftMetricsKey = H;
rightKerningGroup = R;
unicode = 0052;
},
{
color = 4;
glyphname = S;
lastChange = "2016-08-09 15:24:24 +0000";
layers = (
{
anchors = (
{
name = bottom;
position = "{248, 0}";
},
{
name = top;
position = "{278, 700}";
}
);
layerId = "B08EA6CB-0345-4FE8-BF44-53271D6C1876";
paths = (
{
closed = 1;
nodes = (
"221 599 OFFCURVE",
"321 607 OFFCURVE",
"389 602 CURVE",
"398 494 LINE",
"428 487 OFFCURVE",
"462 487 OFFCURVE",
"487 496 CURVE",
"502 632 LINE",
"490 650 OFFCURVE",
"466 696 OFFCURVE",
"447 708 CURVE",
"348 728 OFFCURVE",
"247 724 OFFCURVE",
"152 697 CURVE",
"105 664 OFFCURVE",
"53 580 OFFCURVE",
"40 502 CURVE",
"100 350 OFFCURVE",
"333 278 OFFCURVE",
"400 146 CURVE",
"331 110 OFFCURVE",
"217 99 OFFCURVE",
"138 111 CURVE",
"129 241 LINE",
"102 249 OFFCURVE",
"64 245 OFFCURVE",
"39 237 CURVE",
"23 83 LINE",
"42 57 OFFCURVE",
"70 23 OFFCURVE",
"89 9 CURVE",
"183 -21 OFFCURVE",
"294 -18 OFFCURVE",
"367 -5 CURVE",
"434 30 OFFCURVE",
"505 117 OFFCURVE",
"517 195 CURVE",
"429 392 OFFCURVE",
"190 446 OFFCURVE",
"153 564 CURVE"
);
}
);
width = 540;
}
);
leftKerningGroup = S;
rightKerningGroup = S;
unicode = 0053;
},
{
color = 4;
glyphname = T;
lastChange = "2016-08-09 15:24:24 +0000";
layers = (
{
anchors = (
{
name = bottom;
position = "{261, 0}";
},
{
name = center;
position = "{311, 350}";
},
{
name = top;
position = "{311, 700}";
}
);
background = {
paths = (
{
closed = 1;
nodes = (
"31 615 OFFCURVE",
"53 595 OFFCURVE",
"86 574 CURVE",
"308 608 LINE",
"589 581 LINE",
"610 638 LINE",
"593 663 OFFCURVE",
"570 686 OFFCURVE",
"527 716 CURVE",
"312 700 LINE",
"24 708 LINE",
"5 650 LINE"
);
},
{
closed = 1;
nodes = (
"242 652 LINE",
"252 336 LINE",
"205 74 LINE",
"228 31 OFFCURVE",
"267 1 OFFCURVE",
"302 -16 CURVE",
"358 -2 LINE",
"355 323 LINE",
"365 651 LINE"
);
}
);
};
layerId = "B08EA6CB-0345-4FE8-BF44-53271D6C1876";
paths = (
{
closed = 1;
nodes = (
"610 638 LINE",
"593 663 OFFCURVE",
"570 686 OFFCURVE",
"527 716 CURVE",
"312 700 LINE",
"24 708 LINE",
"5 650 LINE",
"31 615 OFFCURVE",
"53 595 OFFCURVE",
"86 574 CURVE",
"244 598 LINE",
"252 336 LINE",
"205 74 LINE",
"228 31 OFFCURVE",
"267 1 OFFCURVE",
"302 -16 CURVE",
"358 -2 LINE",
"355 323 LINE",
"364 603 LINE",
"589 581 LINE"
);
}
);
width = 615;
}
);
leftKerningGroup = T;
rightKerningGroup = T;
unicode = 0054;
},
{
color = 4;
glyphname = U;
lastChange = "2016-08-09 15:24:24 +0000";
layers = (
{
anchors = (
{
name = bottom;
position = "{270, 0}";
},
{
name = ogonek;
position = "{463, 0}";
},
{
name = top;
position = "{290, 700}";
},
{
name = topright;
position = "{558, 700}";
}
);
background = {
paths = (
{
closed = 1;
nodes = (
"117 88 LINE",
"203 -7 LINE",
"409 -7 LINE",
"446 20 OFFCURVE",
"496 69 OFFCURVE",
"520 109 CURVE",
"495 160 LINE"
);
},
{
closed = 1;
nodes = (
"167 94 OFFCURVE",
"164 206 OFFCURVE",
"164 323 CURVE SMOOTH",
"173 684 LINE",
"155 703 OFFCURVE",
"98 732 OFFCURVE",
"76 736 CURVE",
"47 716 LINE",
"59 336 LINE",
"31 117 LINE",
"55 68 OFFCURVE",
"161 -2 OFFCURVE",
"203 -7 CURVE",
"193 53 LINE"
);
},
{
closed = 1;
nodes = (
"538 684 LINE",
"520 703 OFFCURVE",
"465 732 OFFCURVE",
"443 736 CURVE",
"414 716 LINE",
"426 336 LINE",
"387 76 LINE",
"520 109 LINE"
);
}
);
};
layerId = "B08EA6CB-0345-4FE8-BF44-53271D6C1876";
paths = (
{
closed = 1;
nodes = (
"414 700 LINE",
"426 336 LINE",
"397 148 LINE",
"176 106 LINE",
"164 160 OFFCURVE",
"162 242 OFFCURVE",
"164 323 CURVE SMOOTH",
"173 647 LINE",
"155 687 OFFCURVE",
"98 716 OFFCURVE",
"76 720 CURVE",
"47 700 LINE",
"59 336 LINE",
"31 124 LINE",
"55 75 OFFCURVE",
"161 5 OFFCURVE",
"203 0 CURVE",
"409 0 LINE",
"446 27 OFFCURVE",
"496 76 OFFCURVE",
"520 116 CURVE",
"538 668 LINE",
"520 687 OFFCURVE",
"465 716 OFFCURVE",
"443 720 CURVE"
);
}
);
width = 584;
}
);
leftKerningGroup = U;
leftMetricsKey = H;
rightKerningGroup = U;
unicode = 0055;
},
{
color = 4;
glyphname = V;
lastChange = "2016-08-09 15:24:24 +0000";
layers = (
{
anchors = (
{
name = bottom;
position = "{285, 0}";
},
{
name = top;
position = "{285, 700}";
}
);
background = {
paths = (
{
closed = 1;
nodes = (
"402 393 LINE",
"411 480 LINE",
"271 63 LINE",
"270 13 LINE",
"342 -7 LINE",
"575 615 LINE",
"555 661 OFFCURVE",
"505 714 OFFCURVE",
"463 736 CURVE",
"403 717 LINE"
);
},
{
closed = 1;
nodes = (
"108 400 LINE",
"175 77 LINE",
"204 42 OFFCURVE",
"265 0 OFFCURVE",
"305 -19 CURVE",
"342 -7 LINE",
"308 18 LINE",
"221 415 LINE",
"190 669 LINE",
"156 704 OFFCURVE",
"94 729 OFFCURVE",
"56 736 CURVE",
"15 692 LINE"
);
}
);
};
layerId = "B08EA6CB-0345-4FE8-BF44-53271D6C1876";
paths = (
{
closed = 1;
nodes = (
"403 701 LINE",
"402 454 LINE",
"287 114 LINE",
"221 415 LINE",
"190 653 LINE",
"156 688 OFFCURVE",
"94 713 OFFCURVE",
"56 720 CURVE",
"15 676 LINE",
"108 400 LINE",
"175 80 LINE",
"204 45 OFFCURVE",
"265 3 OFFCURVE",
"305 -16 CURVE",
"342 -4 LINE",
"575 599 LINE",
"555 645 OFFCURVE",
"505 698 OFFCURVE",
"463 720 CURVE"
);
}
);
width = 583;
}
);
leftKerningGroup = V;
rightKerningGroup = V;
unicode = 0056;
},
{
color = 4;
glyphname = W;
lastChange = "2016-08-09 15:24:24 +0000";
layers = (
{
anchors = (
{
name = bottom;
position = "{445, 0}";
},
{
name = top;
position = "{445, 700}";
}
);
background = {
paths = (
{
closed = 1;
nodes = (
"422 393 LINE",
"428 480 LINE",
"269 63 LINE",
"270 13 LINE",
"342 -7 LINE",
"473 346 LINE",
"509 393 LINE",
"573 586 LINE",
"547 647 OFFCURVE",
"497 705 OFFCURVE",
"431 732 CURVE",
"367 699 LINE"
);
},
{
closed = 1;
nodes = (
"118 400 LINE",
"175 77 LINE",
"204 42 OFFCURVE",
"265 0 OFFCURVE",
"305 -19 CURVE",
"342 -7 LINE",
"299 18 LINE",
"231 415 LINE",
"200 669 LINE",
"166 704 OFFCURVE",
"104 729 OFFCURVE",
"66 736 CURVE",
"25 692 LINE"
);
},
{
closed = 1;
nodes = (
"731 393 LINE",
"748 480 LINE",
"588 63 LINE",
"590 13 LINE",
"662 -7 LINE",
"904 615 LINE",
"884 661 OFFCURVE",
"834 714 OFFCURVE",
"791 736 CURVE",
"732 717 LINE"
);
},
{
closed = 1;
nodes = (
"438 400 LINE",
"495 77 LINE",
"524 42 OFFCURVE",
"585 0 OFFCURVE",
"625 -19 CURVE",
"662 -7 LINE",
"619 18 LINE",
"551 415 LINE",
"518 632 LINE"
);
}
);
};
layerId = "B08EA6CB-0345-4FE8-BF44-53271D6C1876";
paths = (
{
closed = 1;
nodes = (
"722 702 LINE",
"722 456 LINE",
"607 118 LINE",
"541 415 LINE",
"531 483 LINE",
"563 575 LINE",
"537 636 OFFCURVE",
"487 694 OFFCURVE",
"421 721 CURVE",
"357 688 LINE",
"403 439 LINE",
"287 117 LINE",
"221 415 LINE",
"190 654 LINE",
"156 689 OFFCURVE",
"94 714 OFFCURVE",
"56 721 CURVE",
"15 677 LINE",
"108 400 LINE",
"175 80 LINE",
"204 45 OFFCURVE",
"265 3 OFFCURVE",
"305 -16 CURVE",
"342 -4 LINE",
"448 303 LINE",
"495 80 LINE",
"524 45 OFFCURVE",
"585 3 OFFCURVE",
"625 -16 CURVE",
"662 -4 LINE",
"894 600 LINE",
"874 646 OFFCURVE",
"824 699 OFFCURVE",
"781 721 CURVE"
);
}
);
width = 902;
}
);
leftKerningGroup = V;
leftMetricsKey = V;
rightKerningGroup = V;
rightMetricsKey = V;
unicode = 0057;
},
{
color = 4;
glyphname = X;
lastChange = "2016-08-09 15:24:24 +0000";
layers = (
{
anchors = (
{
name = bottom;
position = "{277, 0}";
},
{
name = top;
position = "{277, 700}";
}
);
background = {
paths = (
{
closed = 1;
nodes = (
"484 0 LINE",
"505 32 OFFCURVE",
"524 91 OFFCURVE",
"521 140 CURVE",
"346 328 LINE",
"113 734 LINE",
"78 734 LINE",
"61 719 OFFCURVE",
"33 674 OFFCURVE",
"25 645 CURVE",
"427 0 LINE"
);
},
{
closed = 1;
nodes = (
"347 393 LINE",
"386 560 LINE",
"237 331 LINE",
"298 261 LINE",
"540 615 LINE",
"520 661 OFFCURVE",
"470 714 OFFCURVE",
"428 736 CURVE",
"378 717 LINE"
);
}
);
};
layerId = "B08EA6CB-0345-4FE8-BF44-53271D6C1876";
paths = (
{
closed = 1;
nodes = (
"519 99 LINE",
"464 172 OFFCURVE",
"412 277 OFFCURVE",
"373 374 CURVE",
"581 631 LINE",
"573 660 OFFCURVE",
"545 705 OFFCURVE",
"528 720 CURVE",
"493 720 LINE",
"320 481 LINE",
"254 634 LINE",
"224 667 OFFCURVE",
"154 708 OFFCURVE",
"94 722 CURVE",
"4 669 LINE",
"7 638 OFFCURVE",
"27 600 OFFCURVE",
"38 584 CURVE",
"110 607 LINE",
"158 540 OFFCURVE",
"202 461 OFFCURVE",
"239 377 CURVE",
"27 131 LINE",
"30 81 OFFCURVE",
"50 32 OFFCURVE",
"72 0 CURVE",
"123 0 LINE",
"287 278 LINE",
"371 72 LINE",
"401 39 OFFCURVE",
"471 -2 OFFCURVE",
"531 -16 CURVE",
"621 37 LINE",
"618 68 OFFCURVE",
"601 106 OFFCURVE",
"589 122 CURVE"
);
}
);
width = 621;
}
);
unicode = 0058;
},
{
color = 4;
glyphname = Y;
lastChange = "2016-08-09 15:24:24 +0000";
layers = (
{
anchors = (
{
name = bottom;
position = "{267, 0}";
},
{
name = top;
position = "{287, 700}";
},
{
name = topleft;
position = "{-10, 700}";
}
);
background = {
paths = (
{
closed = 1;
nodes = (
"381 393 LINE",
"420 560 LINE",
"281 331 LINE",
"270 281 LINE",
"342 261 LINE",
"574 615 LINE",
"554 661 OFFCURVE",
"504 714 OFFCURVE",
"462 736 CURVE",
"412 717 LINE"
);
},
{
closed = 1;
nodes = (
"232 249 LINE",
"305 249 LINE",
"342 261 LINE",
"317 302 LINE",
"203 545 LINE",
"170 689 LINE",
"136 724 OFFCURVE",
"81 732 OFFCURVE",
"33 736 CURVE",
"2 692 LINE"
);
},
{
closed = 1;
nodes = (
"348 323 LINE",
"243 336 LINE",
"194 76 LINE",
"217 33 OFFCURVE",
"256 3 OFFCURVE",
"291 -14 CURVE",
"349 0 LINE"
);
}
);
};
layerId = "B08EA6CB-0345-4FE8-BF44-53271D6C1876";
paths = (
{
closed = 1;
nodes = (
"554 645 OFFCURVE",
"504 698 OFFCURVE",
"462 720 CURVE",
"412 701 LINE",
"393 516 LINE",
"294 352 LINE",
"203 545 LINE",
"170 673 LINE",
"136 708 OFFCURVE",
"81 716 OFFCURVE",
"33 720 CURVE",
"2 676 LINE",
"228 256 LINE",
"194 74 LINE",
"217 31 OFFCURVE",
"256 1 OFFCURVE",
"291 -16 CURVE",
"349 -2 LINE",
"348 270 LINE",
"574 599 LINE"
);
}
);
width = 579;
}
);
leftKerningGroup = Y;
rightKerningGroup = Y;
unicode = 0059;
},
{
color = 4;
glyphname = Z;
lastChange = "2016-08-09 15:24:24 +0000";
layers = (
{
anchors = (
{
name = bottom;
position = "{264, 0}";
},
{
name = top;
position = "{284, 700}";
}
);
background = {
paths = (
{
closed = 1;
nodes = (
"111 90 LINE",
"127 18 LINE",
"456 -14 LINE",
"492 16 OFFCURVE",
"528 58 OFFCURVE",
"547 98 CURVE",
"522 148 LINE"
);
},
{
closed = 1;
nodes = (
"84 115 LINE",
"14 31 LINE",
"29 11 OFFCURVE",
"53 -5 OFFCURVE",
"79 -14 CURVE",
"156 33 LINE"
);
}
);
};
layerId = "B08EA6CB-0345-4FE8-BF44-53271D6C1876";
paths = (
{
closed = 1;
nodes = (
"286 256 OFFCURVE",
"404 412 OFFCURVE",
"547 579 CURVE",
"536 616 OFFCURVE",
"496 677 OFFCURVE",
"471 700 CURVE",
"102 700 LINE",
"84 687 OFFCURVE",
"55 655 OFFCURVE",
"42 637 CURVE",
"56 457 LINE",
"79 449 OFFCURVE",
"103 450 OFFCURVE",
"130 454 CURVE",
"158 580 LINE",
"409 607 LINE",
"4 58 LINE",
"15 29 OFFCURVE",
"42 -1 OFFCURVE",
"69 -16 CURVE",
"125 16 LINE",
"456 -16 LINE",
"492 14 OFFCURVE",
"528 56 OFFCURVE",
"547 96 CURVE",
"522 146 LINE",
"189 106 LINE"
);
}
);
width = 562;
}
);
leftKerningGroup = Z;
rightKerningGroup = Z;
unicode = 005A;
},
{
color = 4;
glyphname = a;
lastChange = "2016-08-09 15:24:24 +0000";
layers = (
{
anchors = (
{
name = bottom;
position = "{272, 0}";
},
{
name = ogonek;
position = "{552, 0}";
},
{
name = top;
position = "{302, 500}";
}
);
background = {
paths = (
{
closed = 1;
nodes = (
"416 500 OFFCURVE",
"363 500 OFFCURVE",
"333 492 CURVE",
"336 239 LINE",
"346 207 LINE",
"327 38 LINE",
"345 23 OFFCURVE",
"400 -12 OFFCURVE",
"420 -14 CURVE",
"555 52 LINE",
"552 83 OFFCURVE",
"535 120 OFFCURVE",
"526 136 CURVE",
"402 99 LINE",
"447 22 LINE",
"437 246 LINE",
"446 492 LINE"
);
},
{
closed = 1;
nodes = (
"340 527 OFFCURVE",
"230 516 OFFCURVE",
"123 502 CURVE",
"86 469 OFFCURVE",
"68 436 OFFCURVE",
"54 403 CURVE",
"38 107 LINE",
"50 60 OFFCURVE",
"95 2 OFFCURVE",
"125 -14 CURVE",
"219 -14 OFFCURVE",
"447 174 OFFCURVE",
"497 417 CURVE",
"494 432 OFFCURVE",
"467 468 OFFCURVE",
"446 492 CURVE",
"406 492 LINE",
"406 349 OFFCURVE",
"263 128 OFFCURVE",
"172 106 CURVE SMOOTH",
"149 100 OFFCURVE",
"131 279 OFFCURVE",
"200 427 CURVE",
"158 389 LINE",
"245 409 OFFCURVE",
"315 412 OFFCURVE",
"393 401 CURVE",
"446 492 LINE"
);
}
);
};
layerId = "B08EA6CB-0345-4FE8-BF44-53271D6C1876";
paths = (
{
closed = 1;
nodes = (
"439 107 LINE",
"427 241 LINE",
"457 292 OFFCURVE",
"480 348 OFFCURVE",
"493 407 CURVE",
"490 422 OFFCURVE",
"471 468 OFFCURVE",
"450 492 CURVE",
"340 527 OFFCURVE",
"256 517 OFFCURVE",
"160 500 CURVE",
"123 473 OFFCURVE",
"81 426 OFFCURVE",
"61 383 CURVE",
"40 107 LINE",
"52 60 OFFCURVE",
"111 0 OFFCURVE",
"141 -16 CURVE",
"191 -11 OFFCURVE",
"264 36 OFFCURVE",
"331 109 CURVE",
"327 36 LINE",
"345 18 OFFCURVE",
"388 -7 OFFCURVE",
"420 -16 CURVE",
"555 50 LINE",
"552 81 OFFCURVE",
"538 113 OFFCURVE",
"526 129 CURVE"
);
},
{
closed = 1;
nodes = (
"157 101 OFFCURVE",
"141 263 OFFCURVE",
"190 396 CURVE",
"235 409 OFFCURVE",
"286 416 OFFCURVE",
"341 415 CURVE",
"337 264 LINE",
"289 185 OFFCURVE",
"226 123 OFFCURVE",
"178 106 CURVE"
);
}
);
width = 545;
},
{
associatedMasterId = "B08EA6CB-0345-4FE8-BF44-53271D6C1876";
background = {
paths = (
{
closed = 1;
nodes = (
"478 509 OFFCURVE",
"445 509 OFFCURVE",
"415 501 CURVE",
"419 169 LINE",
"428 163 LINE",
"418 13 LINE",
"436 -2 OFFCURVE",
"462 -13 OFFCURVE",
"482 -15 CURVE",
"609 11 LINE",
"607 23 OFFCURVE",
"604 46 OFFCURVE",
"598 58 CURVE",
"464 58 LINE",
"509 21 LINE",
"499 245 LINE",
"508 501 LINE"
);
},
{
closed = 1;
nodes = (
"316 288 OFFCURVE",
"220 269 OFFCURVE",
"91 238 CURVE",
"39 160 OFFCURVE",
"108 -16 OFFCURVE",
"239 -16 CURVE SMOOTH",
"366 -16 OFFCURVE",
"424 102 OFFCURVE",
"466 206 CURVE",
"440 236 LINE",
"383 155 OFFCURVE",
"358 62 OFFCURVE",
"258 62 CURVE SMOOTH",
"203 62 OFFCURVE",
"169 120 OFFCURVE",
"167 173 CURVE",
"254 212 OFFCURVE",
"346 240 OFFCURVE",
"453 253 CURVE",
"445 299 LINE"
);
},
{
closed = 1;
nodes = (
"450 458 LINE",
"320 502 OFFCURVE",
"229 516 OFFCURVE",
"99 500 CURVE",
"94 462 OFFCURVE",
"102 441 OFFCURVE",
"117 403 CURVE",
"240 436 OFFCURVE",
"328 430 OFFCURVE",
"451 403 CURVE"
);
}
);
};
layerId = "52A5A4B5-AF09-46BE-A244-DCDB15B44143";
name = "Regular Jul 12 15, 20:19";
paths = (
{
closed = 1;
nodes = (
"478 509 OFFCURVE",
"445 509 OFFCURVE",
"415 501 CURVE",
"419 169 LINE",
"428 163 LINE",
"418 13 LINE",
"436 -2 OFFCURVE",
"462 -13 OFFCURVE",
"482 -15 CURVE",
"609 11 LINE",
"607 23 OFFCURVE",
"604 46 OFFCURVE",
"598 58 CURVE",
"464 58 LINE",
"509 21 LINE",
"499 245 LINE",
"508 501 LINE"
);
},
{
closed = 1;
nodes = (
"316 288 OFFCURVE",
"220 269 OFFCURVE",
"91 238 CURVE",
"39 160 OFFCURVE",
"108 -16 OFFCURVE",
"239 -16 CURVE SMOOTH",
"366 -16 OFFCURVE",
"424 102 OFFCURVE",
"466 206 CURVE",
"440 236 LINE",
"383 155 OFFCURVE",
"358 62 OFFCURVE",
"258 62 CURVE SMOOTH",
"203 62 OFFCURVE",
"169 120 OFFCURVE",
"167 173 CURVE",
"254 212 OFFCURVE",
"346 240 OFFCURVE",
"453 253 CURVE",
"445 299 LINE"
);
},
{
closed = 1;
nodes = (
"450 458 LINE",
"320 502 OFFCURVE",
"229 516 OFFCURVE",
"99 500 CURVE",
"94 462 OFFCURVE",
"102 441 OFFCURVE",
"117 403 CURVE",
"240 436 OFFCURVE",
"328 430 OFFCURVE",
"451 403 CURVE"
);
}
);
width = 600;
},
{
associatedMasterId = "B08EA6CB-0345-4FE8-BF44-53271D6C1876";
background = {
paths = (
{
closed = 1;
nodes = (
"389 518 OFFCURVE",
"336 518 OFFCURVE",
"306 510 CURVE",
"309 247 LINE",
"319 215 LINE",
"309 22 LINE",
"327 7 OFFCURVE",
"373 -4 OFFCURVE",
"393 -6 CURVE",
"528 20 LINE",
"529 57 OFFCURVE",
"523 95 OFFCURVE",
"517 107 CURVE",
"375 107 LINE",
"420 30 LINE",
"410 254 LINE",
"419 510 LINE"
);
},
{
closed = 1;
nodes = (
"168 460 OFFCURVE",
"144 495 OFFCURVE",
"131 513 CURVE",
"97 518 OFFCURVE",
"51 517 OFFCURVE",
"21 510 CURVE",
"1 115 LINE",
"13 68 OFFCURVE",
"58 10 OFFCURVE",
"88 -6 CURVE",
"222 -6 OFFCURVE",
"420 182 OFFCURVE",
"470 425 CURVE",
"467 440 OFFCURVE",
"440 486 OFFCURVE",
"419 510 CURVE",
"379 510 LINE",
"379 367 OFFCURVE",
"266 156 OFFCURVE",
"135 134 CURVE SMOOTH",
"112 130 OFFCURVE",
"104 287 OFFCURVE",
"173 435 CURVE"
);
},
{
closed = 1;
nodes = (
"419 510 LINE",
"289 554 OFFCURVE",
"151 526 OFFCURVE",
"21 510 CURVE",
"16 472 OFFCURVE",
"102 441 OFFCURVE",
"117 403 CURVE",
"240 436 OFFCURVE",
"328 430 OFFCURVE",
"451 403 CURVE"
);
}
);
};
layerId = "EFAB7853-CA7D-48ED-A818-0922BBFD85D0";
name = "Regular Jul 12 15, 20:20";
paths = (
{
closed = 1;
nodes = (
"389 518 OFFCURVE",
"336 518 OFFCURVE",
"306 510 CURVE",
"309 247 LINE",
"319 215 LINE",
"309 22 LINE",
"327 7 OFFCURVE",
"373 -4 OFFCURVE",
"393 -6 CURVE",
"528 20 LINE",
"529 57 OFFCURVE",
"523 95 OFFCURVE",
"517 107 CURVE",
"375 107 LINE",
"420 30 LINE",
"410 254 LINE",
"419 510 LINE"
);
},
{
closed = 1;
nodes = (
"168 460 OFFCURVE",
"144 495 OFFCURVE",
"131 513 CURVE",
"97 518 OFFCURVE",
"51 517 OFFCURVE",
"21 510 CURVE",
"1 115 LINE",
"13 68 OFFCURVE",
"58 10 OFFCURVE",
"88 -6 CURVE",
"222 -6 OFFCURVE",
"420 182 OFFCURVE",
"470 425 CURVE",
"467 440 OFFCURVE",
"440 486 OFFCURVE",
"419 510 CURVE",
"379 510 LINE",
"379 367 OFFCURVE",
"266 156 OFFCURVE",
"135 134 CURVE SMOOTH",
"112 130 OFFCURVE",
"104 287 OFFCURVE",
"173 435 CURVE"
);
},
{
closed = 1;
nodes = (
"419 510 LINE",
"289 554 OFFCURVE",
"151 526 OFFCURVE",
"21 510 CURVE",
"16 472 OFFCURVE",
"102 441 OFFCURVE",
"117 403 CURVE",
"240 436 OFFCURVE",
"328 430 OFFCURVE",
"451 403 CURVE"
);
}
);
width = 600;
},
{
associatedMasterId = "B08EA6CB-0345-4FE8-BF44-53271D6C1876";
background = {
paths = (
{
closed = 1;
nodes = (
"389 518 OFFCURVE",
"336 518 OFFCURVE",
"306 510 CURVE",
"309 247 LINE",
"319 215 LINE",
"309 22 LINE",
"327 7 OFFCURVE",
"373 -4 OFFCURVE",
"393 -6 CURVE",
"528 20 LINE",
"529 57 OFFCURVE",
"523 95 OFFCURVE",
"517 107 CURVE",
"375 107 LINE",
"420 30 LINE",
"410 254 LINE",
"419 510 LINE"
);
},
{
closed = 1;
nodes = (
"168 460 OFFCURVE",
"144 495 OFFCURVE",
"131 513 CURVE",
"97 518 OFFCURVE",
"51 517 OFFCURVE",
"21 510 CURVE",
"1 115 LINE",
"13 68 OFFCURVE",
"58 10 OFFCURVE",
"88 -6 CURVE",
"222 -6 OFFCURVE",
"420 182 OFFCURVE",
"470 425 CURVE",
"467 440 OFFCURVE",
"440 486 OFFCURVE",
"419 510 CURVE",
"379 510 LINE",
"379 367 OFFCURVE",
"266 156 OFFCURVE",
"135 134 CURVE SMOOTH",
"112 130 OFFCURVE",
"104 287 OFFCURVE",
"173 435 CURVE"
);
},
{
closed = 1;
nodes = (
"419 510 LINE",
"289 554 OFFCURVE",
"151 526 OFFCURVE",
"21 510 CURVE",
"16 472 OFFCURVE",
"102 441 OFFCURVE",
"117 403 CURVE",
"240 436 OFFCURVE",
"328 430 OFFCURVE",
"451 403 CURVE"
);
}
);
};
layerId = "2C998B74-426A-4077-A3BF-06F4B441E139";
name = "Regular Jul 12 15, 21:32";
paths = (
{
closed = 1;
nodes = (
"389 500 OFFCURVE",
"336 500 OFFCURVE",
"306 492 CURVE",
"309 238 LINE",
"319 206 LINE",
"309 13 LINE",
"327 -2 OFFCURVE",
"373 -13 OFFCURVE",
"393 -15 CURVE",
"528 11 LINE",
"529 48 OFFCURVE",
"523 86 OFFCURVE",
"517 98 CURVE",
"375 98 LINE",
"420 21 LINE",
"410 245 LINE",
"419 492 LINE"
);
},
{
closed = 1;
nodes = (
"59 469 OFFCURVE",
"33 436 OFFCURVE",
"16 403 CURVE",
"1 106 LINE",
"13 59 OFFCURVE",
"58 1 OFFCURVE",
"88 -15 CURVE",
"222 -15 OFFCURVE",
"420 164 OFFCURVE",
"470 407 CURVE",
"467 422 OFFCURVE",
"440 468 OFFCURVE",
"419 492 CURVE",
"313 527 OFFCURVE",
"203 516 OFFCURVE",
"96 502 CURVE"
);
},
{
closed = 1;
nodes = (
"111 101 OFFCURVE",
"104 286 OFFCURVE",
"184 439 CURVE",
"131 389 LINE",
"218 409 OFFCURVE",
"288 412 OFFCURVE",
"366 401 CURVE",
"333 273 OFFCURVE",
"240 123 OFFCURVE",
"135 105 CURVE SMOOTH"
);
}
);
width = 600;
},
{
associatedMasterId = "B08EA6CB-0345-4FE8-BF44-53271D6C1876";
background = {
paths = (
{
closed = 1;
nodes = (
"389 500 OFFCURVE",
"336 500 OFFCURVE",
"306 492 CURVE",
"309 238 LINE",
"319 206 LINE",
"309 13 LINE",
"327 -2 OFFCURVE",
"373 -13 OFFCURVE",
"393 -15 CURVE",
"528 11 LINE",
"529 48 OFFCURVE",
"523 86 OFFCURVE",
"517 98 CURVE",
"375 98 LINE",
"420 21 LINE",
"410 245 LINE",
"419 492 LINE"
);
},
{
closed = 1;
nodes = (
"59 489 OFFCURVE",
"33 456 OFFCURVE",
"16 423 CURVE",
"1 126 LINE",
"13 79 OFFCURVE",
"58 21 OFFCURVE",
"88 5 CURVE",
"222 5 OFFCURVE",
"420 184 OFFCURVE",
"470 427 CURVE",
"467 442 OFFCURVE",
"440 488 OFFCURVE",
"419 512 CURVE",
"313 547 OFFCURVE",
"203 536 OFFCURVE",
"96 522 CURVE"
);
},
{
closed = 1;
nodes = (
"111 121 OFFCURVE",
"104 306 OFFCURVE",
"184 459 CURVE",
"131 409 LINE",
"218 429 OFFCURVE",
"288 432 OFFCURVE",
"366 421 CURVE",
"333 293 OFFCURVE",
"240 143 OFFCURVE",
"135 125 CURVE SMOOTH"
);
}
);
};
layerId = "ED2D0B91-3A95-49C5-BA81-1BB39976B29D";
name = "Regular Jul 12 15, 21:34";
paths = (
{
closed = 1;
nodes = (
"389 510 OFFCURVE",
"336 510 OFFCURVE",
"306 502 CURVE",
"309 239 LINE",
"319 207 LINE",
"300 38 LINE",
"318 23 OFFCURVE",
"373 -12 OFFCURVE",
"393 -14 CURVE",
"528 52 LINE",
"525 83 OFFCURVE",
"508 120 OFFCURVE",
"499 136 CURVE",
"375 99 LINE",
"420 22 LINE",
"410 246 LINE",
"419 502 LINE"
);
},
{
closed = 1;
nodes = (
"56 404 LINE",
"31 449 LINE",
"11 107 LINE",
"23 60 OFFCURVE",
"68 2 OFFCURVE",
"98 -14 CURVE",
"192 -14 OFFCURVE",
"420 174 OFFCURVE",
"470 417 CURVE",
"467 432 OFFCURVE",
"440 478 OFFCURVE",
"419 502 CURVE",
"379 502 LINE",
"379 359 OFFCURVE",
"236 128 OFFCURVE",
"145 106 CURVE SMOOTH",
"122 100 OFFCURVE",
"104 279 OFFCURVE",
"173 427 CURVE",
"150 470 OFFCURVE",
"120 500 OFFCURVE",
"85 517 CURVE",
"-62 485 LINE",
"-63 448 OFFCURVE",
"-59 419 OFFCURVE",
"-53 407 CURVE"
);
},
{
closed = 0;
nodes = (
"419 492 LINE",
"313 527 OFFCURVE",
"203 516 OFFCURVE",
"96 502 CURVE",
"59 469 OFFCURVE",
"33 436 OFFCURVE",
"16 403 CURVE"
);
},
{
closed = 0;
nodes = (
"184 439 LINE",
"131 389 LINE",
"218 409 OFFCURVE",
"288 412 OFFCURVE",
"366 401 CURVE"
);
}
);
width = 600;
},
{
associatedMasterId = "B08EA6CB-0345-4FE8-BF44-53271D6C1876";
background = {
paths = (
{
closed = 1;
nodes = (
"408 500 OFFCURVE",
"355 500 OFFCURVE",
"325 492 CURVE",
"328 239 LINE",
"338 207 LINE",
"319 38 LINE",
"337 23 OFFCURVE",
"392 -12 OFFCURVE",
"412 -14 CURVE",
"547 52 LINE",
"544 83 OFFCURVE",
"527 120 OFFCURVE",
"518 136 CURVE",
"394 99 LINE",
"439 22 LINE",
"429 246 LINE",
"438 492 LINE"
);
},
{
closed = 1;
nodes = (
"332 527 OFFCURVE",
"222 516 OFFCURVE",
"115 502 CURVE",
"78 469 OFFCURVE",
"60 436 OFFCURVE",
"46 403 CURVE",
"30 107 LINE",
"42 60 OFFCURVE",
"87 2 OFFCURVE",
"117 -14 CURVE",
"211 -14 OFFCURVE",
"439 174 OFFCURVE",
"489 417 CURVE",
"486 432 OFFCURVE",
"459 468 OFFCURVE",
"438 492 CURVE",
"398 492 LINE",
"398 349 OFFCURVE",
"255 128 OFFCURVE",
"164 106 CURVE SMOOTH",
"141 100 OFFCURVE",
"123 279 OFFCURVE",
"192 427 CURVE",
"150 389 LINE",
"237 409 OFFCURVE",
"307 412 OFFCURVE",
"385 401 CURVE",
"438 492 LINE"
);
}
);
};
layerId = "E47A9656-FB60-44D9-9EC7-E704DBCAF03F";
name = "Regular Jul 12 15, 23:59";
paths = (
{
closed = 1;
nodes = (
"408 500 OFFCURVE",
"355 500 OFFCURVE",
"325 492 CURVE",
"328 239 LINE",
"338 207 LINE",
"319 38 LINE",
"337 23 OFFCURVE",
"392 -12 OFFCURVE",
"412 -14 CURVE",
"547 52 LINE",
"544 83 OFFCURVE",
"527 120 OFFCURVE",
"518 136 CURVE",
"394 99 LINE",
"439 22 LINE",
"429 246 LINE",
"438 492 LINE"
);
},
{
closed = 1;
nodes = (
"332 527 OFFCURVE",
"222 516 OFFCURVE",
"115 502 CURVE",
"78 469 OFFCURVE",
"60 436 OFFCURVE",
"46 403 CURVE",
"30 107 LINE",
"42 60 OFFCURVE",
"87 2 OFFCURVE",
"117 -14 CURVE",
"211 -14 OFFCURVE",
"439 174 OFFCURVE",
"489 417 CURVE",
"486 432 OFFCURVE",
"459 468 OFFCURVE",
"438 492 CURVE",
"398 492 LINE",
"398 349 OFFCURVE",
"255 128 OFFCURVE",
"164 106 CURVE SMOOTH",
"141 100 OFFCURVE",
"123 279 OFFCURVE",
"192 427 CURVE",
"150 389 LINE",
"237 409 OFFCURVE",
"307 412 OFFCURVE",
"385 401 CURVE",
"438 492 LINE"
);
}
);
width = 532;
}
);
leftKerningGroup = o;
leftMetricsKey = o;
rightKerningGroup = u;
rightMetricsKey = n;
unicode = 0061;
},
{
color = 4;
glyphname = b;
lastChange = "2016-08-09 15:24:24 +0000";
layers = (
{
background = {
paths = (
{
closed = 1;
nodes = (
"86 0 LINE",
"116 -8 OFFCURVE",
"159 -8 OFFCURVE",
"189 0 CURVE",
"189 263 LINE",
"178 295 LINE",
"210 764 LINE",
"192 782 OFFCURVE",
"137 814 OFFCURVE",
"117 816 CURVE",
"-18 750 LINE",
"-15 719 OFFCURVE",
"2 688 OFFCURVE",
"11 672 CURVE",
"135 704 LINE",
"90 780 LINE",
"83 256 LINE",
"66 66 LINE"
);
}
);
};
layerId = "B08EA6CB-0345-4FE8-BF44-53271D6C1876";
paths = (
{
closed = 1;
nodes = (
"360 516 OFFCURVE",
"263 454 OFFCURVE",
"182 355 CURVE",
"210 764 LINE",
"192 782 OFFCURVE",
"137 814 OFFCURVE",
"117 816 CURVE",
"-18 750 LINE",
"-15 719 OFFCURVE",
"2 688 OFFCURVE",
"11 672 CURVE",
"89 692 LINE",
"86 257 LINE",
"85 194 LINE",
"70 158 OFFCURVE",
"58 120 OFFCURVE",
"52 81 CURVE",
"55 66 OFFCURVE",
"82 24 OFFCURVE",
"103 0 CURVE",
"183 -23 OFFCURVE",
"290 -16 OFFCURVE",
"387 -2 CURVE",
"428 22 OFFCURVE",
"479 71 OFFCURVE",
"497 105 CURVE",
"512 402 LINE",
"497 449 OFFCURVE",
"450 500 OFFCURVE",
"414 516 CURVE"
);
},
{
closed = 1;
nodes = (
"189 173 LINE",
"243 281 OFFCURVE",
"329 383 OFFCURVE",
"388 402 CURVE",
"400 347 OFFCURVE",
"401 224 OFFCURVE",
"366 101 CURVE",
"306 89 OFFCURVE",
"249 81 OFFCURVE",
"193 84 CURVE"
);
}
);
width = 542;
},
{
associatedMasterId = "B08EA6CB-0345-4FE8-BF44-53271D6C1876";
background = {
paths = (
{
closed = 1;
nodes = (
"136 -8 OFFCURVE",
"171 -8 OFFCURVE",
"201 0 CURVE",
"192 363 LINE",
"197 698 LINE",
"179 713 OFFCURVE",
"153 724 OFFCURVE",
"133 726 CURVE",
"6 700 LINE",
"8 688 OFFCURVE",
"11 665 OFFCURVE",
"17 653 CURVE",
"151 653 LINE",
"106 690 LINE",
"115 356 LINE",
"106 0 LINE"
);
},
{
closed = 1;
nodes = (
"266 30 OFFCURVE",
"321 -11 OFFCURVE",
"369 -11 CURVE SMOOTH",
"500 -11 OFFCURVE",
"567 130 OFFCURVE",
"567 266 CURVE SMOOTH",
"567 393 OFFCURVE",
"524 519 OFFCURVE",
"406 517 CURVE SMOOTH",
"304 515 OFFCURVE",
"203 408 OFFCURVE",
"154 249 CURVE",
"177 226 LINE",
"235 329 OFFCURVE",
"351 417 OFFCURVE",
"403 417 CURVE SMOOTH",
"465 417 OFFCURVE",
"481 373 OFFCURVE",
"481 296 CURVE SMOOTH",
"481 158 OFFCURVE",
"443 66 OFFCURVE",
"357 66 CURVE SMOOTH",
"309 66 OFFCURVE",
"228 101 OFFCURVE",
"173 157 CURVE",
"169 112 LINE"
);
},
{
closed = 1;
nodes = (
"142 211 LINE",
"123 157 OFFCURVE",
"106 98 OFFCURVE",
"95 35 CURVE",
"98 20 OFFCURVE",
"99 15 OFFCURVE",
"106 0 CURVE",
"146 0 LINE",
"146 49 OFFCURVE",
"159 111 OFFCURVE",
"183 171 CURVE"
);
}
);
};
layerId = "CCBEB497-DF2F-4071-91E8-72E7D14E1849";
name = "Regular Jul 12 15, 19:27";
paths = (
{
closed = 1;
nodes = (
"136 -8 OFFCURVE",
"171 -8 OFFCURVE",
"201 0 CURVE",
"190 305 LINE",
"197 698 LINE",
"179 713 OFFCURVE",
"153 724 OFFCURVE",
"133 726 CURVE",
"6 700 LINE",
"8 688 OFFCURVE",
"11 665 OFFCURVE",
"17 653 CURVE",
"151 653 LINE",
"106 690 LINE",
"115 356 LINE",
"106 0 LINE"
);
},
{
closed = 1;
nodes = (
"189 40 OFFCURVE",
"273 -11 OFFCURVE",
"321 -11 CURVE SMOOTH",
"452 -11 OFFCURVE",
"567 96 OFFCURVE",
"567 266 CURVE SMOOTH",
"567 393 OFFCURVE",
"477 517 OFFCURVE",
"406 517 CURVE SMOOTH",
"304 517 OFFCURVE",
"203 408 OFFCURVE",
"154 249 CURVE",
"177 226 LINE",
"235 329 OFFCURVE",
"351 417 OFFCURVE",
"403 417 CURVE SMOOTH",
"457 417 OFFCURVE",
"483 350 OFFCURVE",
"483 275 CURVE SMOOTH",
"483 146 OFFCURVE",
"404 64 OFFCURVE",
"309 64 CURVE SMOOTH",
"263 64 OFFCURVE",
"213 83 OFFCURVE",
"167 127 CURVE",
"163 82 LINE"
);
},
{
closed = 1;
nodes = (
"132 210 LINE",
"113 156 OFFCURVE",
"100 98 OFFCURVE",
"95 35 CURVE",
"98 20 OFFCURVE",
"99 15 OFFCURVE",
"106 0 CURVE",
"146 0 LINE",
"146 49 OFFCURVE",
"159 111 OFFCURVE",
"183 171 CURVE"
);
}
);
width = 600;
},
{
associatedMasterId = "B08EA6CB-0345-4FE8-BF44-53271D6C1876";
background = {
paths = (
{
closed = 1;
nodes = (
"135 -8 OFFCURVE",
"170 -8 OFFCURVE",
"200 0 CURVE",
"191 363 LINE",
"196 698 LINE",
"178 713 OFFCURVE",
"152 724 OFFCURVE",
"132 726 CURVE",
"5 700 LINE",
"7 688 OFFCURVE",
"10 665 OFFCURVE",
"16 653 CURVE",
"150 653 LINE",
"105 690 LINE",
"114 356 LINE",
"105 0 LINE"
);
},
{
closed = 1;
nodes = (
"265 30 OFFCURVE",
"320 -11 OFFCURVE",
"368 -11 CURVE SMOOTH",
"499 -11 OFFCURVE",
"566 130 OFFCURVE",
"566 266 CURVE SMOOTH",
"566 393 OFFCURVE",
"523 519 OFFCURVE",
"405 517 CURVE SMOOTH",
"303 515 OFFCURVE",
"202 408 OFFCURVE",
"153 249 CURVE",
"176 226 LINE",
"234 329 OFFCURVE",
"350 417 OFFCURVE",
"402 417 CURVE SMOOTH",
"464 417 OFFCURVE",
"480 373 OFFCURVE",
"480 296 CURVE SMOOTH",
"480 158 OFFCURVE",
"442 66 OFFCURVE",
"356 66 CURVE SMOOTH",
"308 66 OFFCURVE",
"227 101 OFFCURVE",
"172 157 CURVE",
"168 112 LINE"
);
},
{
closed = 1;
nodes = (
"141 211 LINE",
"122 157 OFFCURVE",
"105 98 OFFCURVE",
"94 35 CURVE",
"97 20 OFFCURVE",
"98 15 OFFCURVE",
"105 0 CURVE",
"145 0 LINE",
"145 49 OFFCURVE",
"158 111 OFFCURVE",
"182 171 CURVE"
);
}
);
};
layerId = "60DEB84B-A780-4E61-9B2B-44BC4710CFF2";
name = "Regular Jul 12 15, 22:07";
paths = (
{
closed = 1;
nodes = (
"135 -8 OFFCURVE",
"170 -8 OFFCURVE",
"200 0 CURVE",
"189 305 LINE",
"196 698 LINE",
"178 713 OFFCURVE",
"152 724 OFFCURVE",
"132 726 CURVE",
"5 700 LINE",
"7 688 OFFCURVE",
"10 665 OFFCURVE",
"16 653 CURVE",
"150 653 LINE",
"105 690 LINE",
"114 356 LINE",
"105 0 LINE"
);
},
{
closed = 1;
nodes = (
"188 40 OFFCURVE",
"272 -11 OFFCURVE",
"320 -11 CURVE SMOOTH",
"451 -11 OFFCURVE",
"566 96 OFFCURVE",
"566 266 CURVE SMOOTH",
"566 393 OFFCURVE",
"476 515 OFFCURVE",
"405 517 CURVE",
"303 517 OFFCURVE",
"202 408 OFFCURVE",
"153 249 CURVE",
"176 226 LINE",
"234 329 OFFCURVE",
"350 417 OFFCURVE",
"402 417 CURVE SMOOTH",
"456 417 OFFCURVE",
"482 350 OFFCURVE",
"482 275 CURVE SMOOTH",
"482 146 OFFCURVE",
"403 64 OFFCURVE",
"308 64 CURVE SMOOTH",
"262 64 OFFCURVE",
"212 83 OFFCURVE",
"166 127 CURVE",
"162 82 LINE"
);
},
{
closed = 1;
nodes = (
"131 210 LINE",
"112 156 OFFCURVE",
"99 98 OFFCURVE",
"94 35 CURVE",
"97 20 OFFCURVE",
"98 15 OFFCURVE",
"105 0 CURVE",
"145 0 LINE",
"145 49 OFFCURVE",
"158 111 OFFCURVE",
"182 171 CURVE"
);
}
);
width = 599;
},
{
associatedMasterId = "B08EA6CB-0345-4FE8-BF44-53271D6C1876";
background = {
paths = (
{
closed = 1;
nodes = (
"238 -28 OFFCURVE",
"348 -17 OFFCURVE",
"455 -3 CURVE",
"492 30 OFFCURVE",
"510 63 OFFCURVE",
"524 96 CURVE",
"540 392 LINE",
"528 439 OFFCURVE",
"483 499 OFFCURVE",
"453 515 CURVE",
"359 515 OFFCURVE",
"131 325 OFFCURVE",
"81 82 CURVE",
"84 67 OFFCURVE",
"111 31 OFFCURVE",
"132 7 CURVE",
"172 7 LINE",
"172 150 OFFCURVE",
"315 371 OFFCURVE",
"406 393 CURVE SMOOTH",
"429 399 OFFCURVE",
"447 220 OFFCURVE",
"378 72 CURVE",
"420 110 LINE",
"333 90 OFFCURVE",
"263 87 OFFCURVE",
"185 98 CURVE",
"132 7 LINE"
);
}
);
};
layerId = "58EA6861-1E95-4326-8EA1-E58E6EB29F00";
name = "Regular Jul 15 15, 22:07";
paths = (
{
closed = 1;
nodes = (
"247 -26 OFFCURVE",
"357 -15 OFFCURVE",
"464 -1 CURVE",
"501 32 OFFCURVE",
"519 65 OFFCURVE",
"533 98 CURVE",
"539 394 LINE",
"527 441 OFFCURVE",
"482 500 OFFCURVE",
"452 516 CURVE",
"358 516 OFFCURVE",
"140 327 OFFCURVE",
"90 84 CURVE",
"93 69 OFFCURVE",
"120 33 OFFCURVE",
"141 9 CURVE",
"181 9 LINE",
"181 152 OFFCURVE",
"314 373 OFFCURVE",
"405 395 CURVE SMOOTH",
"428 401 OFFCURVE",
"456 222 OFFCURVE",
"387 74 CURVE",
"429 112 LINE",
"342 92 OFFCURVE",
"272 89 OFFCURVE",
"194 100 CURVE",
"141 9 LINE"
);
},
{
closed = 1;
nodes = (
"200 779 OFFCURVE",
"145 814 OFFCURVE",
"125 816 CURVE",
"-10 750 LINE",
"-7 719 OFFCURVE",
"10 688 OFFCURVE",
"19 672 CURVE",
"143 704 LINE",
"98 780 LINE",
"108 406 LINE",
"68 76 LINE",
"93 42 OFFCURVE",
"108 30 OFFCURVE",
"141 9 CURVE",
"250 42 LINE",
"185 99 LINE",
"210 54 LINE",
"209 413 LINE",
"218 764 LINE"
);
}
);
width = 579;
}
);
leftKerningGroup = l;
rightKerningGroup = o;
rightMetricsKey = o;
unicode = 0062;
},
{
color = 4;
glyphname = c;
lastChange = "2016-08-09 15:24:24 +0000";
layers = (
{
anchors = (
{
name = bottom;
position = "{244, 0}";
},
{
name = top;
position = "{254, 500}";
}
);
background = {
paths = (
{
closed = 1;
nodes = (
"418 457 OFFCURVE",
"371 500 OFFCURVE",
"354 511 CURVE",
"286 522 OFFCURVE",
"211 517 OFFCURVE",
"134 500 CURVE",
"100 470 OFFCURVE",
"63 436 OFFCURVE",
"44 403 CURVE",
"40 97 LINE",
"54 48 OFFCURVE",
"155 -1 OFFCURVE",
"207 -16 CURVE",
"259 2 OFFCURVE",
"364 46 OFFCURVE",
"451 86 CURVE",
"452 113 OFFCURVE",
"437 155 OFFCURVE",
"428 167 CURVE",
"142 88 LINE",
"174 56 LINE",
"147 155 OFFCURVE",
"125 336 OFFCURVE",
"188 442 CURVE",
"140 389 LINE",
"214 411 OFFCURVE",
"278 412 OFFCURVE",
"353 403 CURVE",
"309 464 LINE",
"337 291 LINE",
"425 282 LINE",
"429 441 LINE"
);
}
);
};
layerId = "B08EA6CB-0345-4FE8-BF44-53271D6C1876";
paths = (
{
closed = 1;
nodes = (
"155 184 OFFCURVE",
"158 307 OFFCURVE",
"186 399 CURVE",
"232 411 OFFCURVE",
"274 413 OFFCURVE",
"318 409 CURVE",
"331 293 LINE",
"358 285 OFFCURVE",
"391 285 OFFCURVE",
"414 293 CURVE",
"428 453 LINE",
"415 469 OFFCURVE",
"381 500 OFFCURVE",
"364 511 CURVE",
"296 522 OFFCURVE",
"221 517 OFFCURVE",
"144 500 CURVE",
"111 472 OFFCURVE",
"73 436 OFFCURVE",
"54 403 CURVE",
"40 97 LINE",
"64 48 OFFCURVE",
"145 -1 OFFCURVE",
"207 -16 CURVE",
"251 2 OFFCURVE",
"342 37 OFFCURVE",
"427 73 CURVE",
"428 100 OFFCURVE",
"415 142 OFFCURVE",
"406 154 CURVE",
"169 96 LINE"
);
}
);
width = 463;
}
);
leftKerningGroup = o;
leftMetricsKey = o;
rightKerningGroup = c;
unicode = 0063;
},
{
color = 4;
glyphname = d;
lastChange = "2016-08-09 15:24:24 +0000";
layers = (
{
anchors = (
{
name = bottom;
position = "{282, 0}";
},
{
name = center;
position = "{391, 592}";
},
{
name = top;
position = "{282, 500}";
},
{
name = topright;
position = "{506, 500}";
}
);
background = {
paths = (
{
closed = 1;
nodes = (
"359 0 LINE",
"389 -8 OFFCURVE",
"432 -8 OFFCURVE",
"462 0 CURVE",
"462 263 LINE",
"451 295 LINE",
"483 764 LINE",
"465 782 OFFCURVE",
"410 814 OFFCURVE",
"390 816 CURVE",
"255 750 LINE",
"258 719 OFFCURVE",
"275 688 OFFCURVE",
"284 672 CURVE",
"408 704 LINE",
"363 780 LINE",
"356 256 LINE",
"339 66 LINE"
);
}
);
};
layerId = "B08EA6CB-0345-4FE8-BF44-53271D6C1876";
paths = (
{
closed = 1;
nodes = (
"462 107 LINE",
"453 246 LINE",
"483 764 LINE",
"465 782 OFFCURVE",
"410 814 OFFCURVE",
"390 816 CURVE",
"255 750 LINE",
"258 719 OFFCURVE",
"275 688 OFFCURVE",
"284 672 CURVE",
"363 692 LINE",
"362 507 LINE",
"294 520 OFFCURVE",
"229 518 OFFCURVE",
"160 500 CURVE",
"123 473 OFFCURVE",
"81 426 OFFCURVE",
"61 383 CURVE",
"40 107 LINE",
"52 60 OFFCURVE",
"111 0 OFFCURVE",
"141 -16 CURVE",
"193 -11 OFFCURVE",
"278 47 OFFCURVE",
"353 137 CURVE",
"348 36 LINE",
"366 21 OFFCURVE",
"421 -14 OFFCURVE",
"441 -16 CURVE",
"576 50 LINE",
"573 81 OFFCURVE",
"559 113 OFFCURVE",
"547 129 CURVE"
);
},
{
closed = 1;
nodes = (
"157 101 OFFCURVE",
"141 257 OFFCURVE",
"191 397 CURVE",
"242 410 OFFCURVE",
"304 417 OFFCURVE",
"362 404 CURVE",
"361 313 LINE",
"313 215 OFFCURVE",
"236 126 OFFCURVE",
"178 106 CURVE"
);
}
);
width = 566;
}
);
leftKerningGroup = o;
leftMetricsKey = o;
rightKerningGroup = l;
rightMetricsKey = n;
unicode = 0064;
},
{
color = 4;
glyphname = e;
lastChange = "2016-08-09 15:24:24 +0000";
layers = (
{
anchors = (
{
name = bottom;
position = "{234, 0}";
},
{
name = ogonek;
position = "{442, 0}";
},
{
name = top;
position = "{264, 500}";
}
);
background = {
paths = (
{
closed = 1;
nodes = (
"415 469 OFFCURVE",
"381 500 OFFCURVE",
"364 511 CURVE",
"296 522 OFFCURVE",
"221 517 OFFCURVE",
"144 500 CURVE",
"111 472 OFFCURVE",
"73 436 OFFCURVE",
"54 403 CURVE",
"40 97 LINE",
"64 48 OFFCURVE",
"145 -1 OFFCURVE",
"207 -16 CURVE",
"251 2 OFFCURVE",
"342 37 OFFCURVE",
"427 73 CURVE",
"428 100 OFFCURVE",
"415 142 OFFCURVE",
"406 154 CURVE",
"139 89 LINE",
"178 56 LINE",
"151 155 OFFCURVE",
"153 337 OFFCURVE",
"202 442 CURVE",
"154 389 LINE",
"228 415 OFFCURVE",
"292 415 OFFCURVE",
"360 404 CURVE",
"312 458 LINE",
"331 293 LINE",
"358 285 OFFCURVE",
"391 285 OFFCURVE",
"414 293 CURVE",
"428 453 LINE"
);
}
);
};
layerId = "B08EA6CB-0345-4FE8-BF44-53271D6C1876";
paths = (
{
closed = 1;
nodes = (
"170 95 LINE",
"166 117 OFFCURVE",
"163 141 OFFCURVE",
"162 167 CURVE",
"268 196 OFFCURVE",
"382 244 OFFCURVE",
"435 282 CURVE",
"439 431 LINE",
"428 447 OFFCURVE",
"381 500 OFFCURVE",
"364 511 CURVE",
"296 522 OFFCURVE",
"221 517 OFFCURVE",
"144 500 CURVE",
"111 472 OFFCURVE",
"73 436 OFFCURVE",
"54 403 CURVE",
"40 97 LINE",
"64 48 OFFCURVE",
"145 -1 OFFCURVE",
"207 -16 CURVE",
"259 2 OFFCURVE",
"364 41 OFFCURVE",
"451 76 CURVE",
"452 103 OFFCURVE",
"437 145 OFFCURVE",
"428 157 CURVE"
);
},
{
closed = 1;
nodes = (
"339 343 LINE",
"287 310 OFFCURVE",
"219 277 OFFCURVE",
"162 259 CURVE",
"166 308 OFFCURVE",
"173 357 OFFCURVE",
"187 399 CURVE",
"236 412 OFFCURVE",
"280 414 OFFCURVE",
"328 408 CURVE"
);
}
);
width = 479;
},
{
associatedMasterId = "B08EA6CB-0345-4FE8-BF44-53271D6C1876";
background = {
paths = (
{
closed = 1;
nodes = (
"411 477 OFFCURVE",
"389 500 OFFCURVE",
"372 511 CURVE",
"274 522 OFFCURVE",
"219 519 OFFCURVE",
"122 500 CURVE",
"88 470 OFFCURVE",
"62 436 OFFCURVE",
"43 403 CURVE",
"26 97 LINE",
"40 48 OFFCURVE",
"106 -1 OFFCURVE",
"158 -16 CURVE",
"200 -8 OFFCURVE",
"332 60 OFFCURVE",
"421 103 CURVE",
"422 130 OFFCURVE",
"409 162 OFFCURVE",
"400 174 CURVE",
"123 92 LINE",
"155 56 LINE",
"128 155 OFFCURVE",
"137 337 OFFCURVE",
"186 442 CURVE",
"138 389 LINE",
"210 411 OFFCURVE",
"254 418 OFFCURVE",
"318 420 CURVE",
"325 291 LINE",
"352 289 OFFCURVE",
"385 292 OFFCURVE",
"408 300 CURVE",
"422 461 LINE"
);
},
{
closed = 1;
nodes = (
"267 199 OFFCURVE",
"353 214 OFFCURVE",
"444 292 CURVE",
"378 391 LINE",
"311 314 OFFCURVE",
"229 277 OFFCURVE",
"122 238 CURVE",
"113 141 LINE"
);
}
);
};
layerId = "4E2DD381-945D-411F-9C6B-89F93F0FEF1F";
name = "Regular Aug 19 15, 18:29";
paths = (
{
closed = 1;
nodes = (
"277 179 OFFCURVE",
"353 214 OFFCURVE",
"444 292 CURVE",
"378 391 LINE",
"311 314 OFFCURVE",
"239 257 OFFCURVE",
"122 238 CURVE",
"113 141 LINE"
);
},
{
closed = 1;
nodes = (
"439 476 OFFCURVE",
"431 488 OFFCURVE",
"417 501 CURVE",
"319 524 OFFCURVE",
"211 513 OFFCURVE",
"115 500 CURVE",
"78 467 OFFCURVE",
"60 436 OFFCURVE",
"46 403 CURVE",
"30 107 LINE",
"42 60 OFFCURVE",
"87 0 OFFCURVE",
"117 -16 CURVE",
"161 -14 OFFCURVE",
"189 -4 OFFCURVE",
"428 36 CURVE",
"429 73 OFFCURVE",
"425 102 OFFCURVE",
"419 114 CURVE",
"164 106 LINE",
"143 100 OFFCURVE",
"126 255 OFFCURVE",
"179 395 CURVE",
"238 406 OFFCURVE",
"290 410 OFFCURVE",
"343 406 CURVE",
"369 281 LINE",
"396 279 OFFCURVE",
"420 282 OFFCURVE",
"443 290 CURVE",
"447 461 LINE"
);
}
);
width = 467;
}
);
leftKerningGroup = o;
leftMetricsKey = o;
rightKerningGroup = c;
unicode = 0065;
},
{
color = 4;
glyphname = f;
lastChange = "2020-11-26 11:54:22 +0000";
layers = (
{
background = {
paths = (
{
closed = 1;
nodes = (
"179 810 LINE",
"145 799 OFFCURVE",
"80 713 OFFCURVE",
"63 683 CURVE",
"134 463 LINE",
"108 406 LINE",
"217 413 LINE",
"237 466 LINE",
"178 728 LINE"
);
},
{
closed = 1;
nodes = (
"364 424 LINE",
"354 504 LINE",
"280 510 OFFCURVE",
"212 506 OFFCURVE",
"145 496 CURVE",
"125 537 LINE",
"7 436 LINE",
"32 368 LINE",
"161 393 LINE",
"219 397 OFFCURVE",
"268 397 OFFCURVE",
"333 392 CURVE"
);
},
{
closed = 1;
nodes = (
"220 413 LINE",
"127 406 LINE",
"71 74 LINE",
"94 31 OFFCURVE",
"123 1 OFFCURVE",
"158 -16 CURVE",
"214 -2 LINE"
);
},
{
closed = 1;
nodes = (
"195 723 OFFCURVE",
"316 706 OFFCURVE",
"369 688 CURVE",
"398 713 OFFCURVE",
"416 760 OFFCURVE",
"407 808 CURVE",
"342 832 OFFCURVE",
"242 832 OFFCURVE",
"179 810 CURVE",
"142 687 LINE"
);
}
);
};
layerId = "B08EA6CB-0345-4FE8-BF44-53271D6C1876";
paths = (
{
closed = 1;
nodes = (
"342 822 OFFCURVE",
"242 821 OFFCURVE",
"179 800 CURVE",
"145 789 OFFCURVE",
"80 704 OFFCURVE",
"63 673 CURVE",
"113 526 LINE",
"7 436 LINE",
"32 368 LINE",
"124 386 LINE",
"71 74 LINE",
"94 31 OFFCURVE",
"123 1 OFFCURVE",
"158 -16 CURVE",
"214 -2 LINE",
"220 396 LINE",
"255 396 OFFCURVE",
"291 395 OFFCURVE",
"333 392 CURVE",
"364 424 LINE",
"354 504 LINE",
"310 508 OFFCURVE",
"269 508 OFFCURVE",
"228 505 CURVE",
"184 693 LINE",
"243 706 OFFCURVE",
"327 692 OFFCURVE",
"369 678 CURVE",
"398 703 OFFCURVE",
"416 750 OFFCURVE",
"407 798 CURVE"
);
}
);
width = 369;
},
{
associatedMasterId = "B08EA6CB-0345-4FE8-BF44-53271D6C1876";
background = {
paths = (
{
closed = 1;
nodes = (
"226 810 LINE",
"192 799 OFFCURVE",
"132 729 OFFCURVE",
"115 704 CURVE",
"151 466 LINE",
"135 406 LINE",
"85 -59 LINE",
"-60 -152 LINE",
"-51 -197 OFFCURVE",
"-13 -247 OFFCURVE",
"15 -252 CURVE",
"120 -164 OFFCURVE",
"176 -99 OFFCURVE",
"208 -14 CURVE",
"236 413 LINE",
"254 466 LINE",
"225 728 LINE"
);
},
{
closed = 1;
nodes = (
"232 713 OFFCURVE",
"339 703 OFFCURVE",
"382 685 CURVE",
"411 710 OFFCURVE",
"430 747 OFFCURVE",
"421 795 CURVE",
"366 812 OFFCURVE",
"279 815 OFFCURVE",
"226 810 CURVE",
"189 687 LINE"
);
},
{
closed = 1;
nodes = (
"401 424 LINE",
"401 500 LINE",
"327 506 OFFCURVE",
"259 508 OFFCURVE",
"192 502 CURVE",
"162 517 LINE",
"79 467 LINE",
"88 400 LINE",
"151 393 LINE",
"198 403 LINE",
"256 407 OFFCURVE",
"305 397 OFFCURVE",
"370 392 CURVE"
);
}
);
};
layerId = "80A22321-7CED-475B-AF98-B2F5630354FE";
name = "Regular Aug 19 15, 19:47";
paths = (
{
closed = 1;
nodes = (
"226 810 LINE",
"192 799 OFFCURVE",
"132 729 OFFCURVE",
"115 704 CURVE",
"151 466 LINE",
"135 406 LINE",
"85 -59 LINE",
"-60 -152 LINE",
"-51 -197 OFFCURVE",
"-13 -247 OFFCURVE",
"15 -252 CURVE",
"120 -164 OFFCURVE",
"176 -99 OFFCURVE",
"208 -14 CURVE",
"236 413 LINE",
"254 466 LINE",
"225 728 LINE"
);
},
{
closed = 1;
nodes = (
"232 713 OFFCURVE",
"339 703 OFFCURVE",
"382 685 CURVE",
"411 710 OFFCURVE",
"430 747 OFFCURVE",
"421 795 CURVE",
"366 812 OFFCURVE",
"279 815 OFFCURVE",
"226 810 CURVE",
"189 687 LINE"
);
},
{
closed = 1;
nodes = (
"411 434 LINE",
"401 500 LINE",
"270 510 OFFCURVE",
"160 510 OFFCURVE",
"39 470 CURVE",
"18 440 LINE",
"38 382 LINE",
"152 402 OFFCURVE",
"256 412 OFFCURVE",
"380 402 CURVE"
);
}
);
width = 363;
},
{
associatedMasterId = "B08EA6CB-0345-4FE8-BF44-53271D6C1876";
background = {
paths = (
{
closed = 1;
nodes = (
"179 810 LINE",
"145 799 OFFCURVE",
"80 713 OFFCURVE",
"63 683 CURVE",
"134 463 LINE",
"108 406 LINE",
"85 -39 LINE",
"-69 -136 LINE",
"-24 -207 LINE",
"47 -168 OFFCURVE",
"169 -75 OFFCURVE",
"205 -5 CURVE",
"217 413 LINE",
"227 466 LINE",
"178 728 LINE"
);
},
{
closed = 1;
nodes = (
"185 713 OFFCURVE",
"282 713 OFFCURVE",
"335 695 CURVE",
"364 720 OFFCURVE",
"382 767 OFFCURVE",
"373 815 CURVE",
"318 832 OFFCURVE",
"232 822 OFFCURVE",
"179 810 CURVE",
"142 687 LINE"
);
},
{
closed = 1;
nodes = (
"364 424 LINE",
"354 504 LINE",
"280 510 OFFCURVE",
"212 506 OFFCURVE",
"145 496 CURVE",
"115 537 LINE",
"7 436 LINE",
"32 368 LINE",
"124 385 LINE",
"161 393 LINE",
"219 397 OFFCURVE",
"268 397 OFFCURVE",
"333 392 CURVE"
);
}
);
};
layerId = "448C50D9-8D05-4016-9BA6-5720B0CE5A0F";
name = "Regular Aug 28 15, 17:10";
paths = (
{
closed = 1;
nodes = (
"179 810 LINE",
"145 799 OFFCURVE",
"80 713 OFFCURVE",
"63 683 CURVE",
"134 463 LINE",
"108 406 LINE",
"83 -49 LINE",
"-82 -123 LINE",
"-73 -164 OFFCURVE",
"-53 -202 OFFCURVE",
"-24 -237 CURVE",
"47 -198 OFFCURVE",
"169 -97 OFFCURVE",
"205 -27 CURVE",
"217 413 LINE",
"227 466 LINE",
"178 728 LINE"
);
},
{
closed = 1;
nodes = (
"185 713 OFFCURVE",
"282 713 OFFCURVE",
"335 695 CURVE",
"364 720 OFFCURVE",
"382 767 OFFCURVE",
"373 815 CURVE",
"318 832 OFFCURVE",
"232 822 OFFCURVE",
"179 810 CURVE",
"142 687 LINE"
);
},
{
closed = 1;
nodes = (
"364 424 LINE",
"354 504 LINE",
"280 510 OFFCURVE",
"212 506 OFFCURVE",
"145 496 CURVE",
"115 537 LINE",
"7 436 LINE",
"32 368 LINE",
"124 385 LINE",
"161 393 LINE",
"219 397 OFFCURVE",
"268 397 OFFCURVE",
"333 392 CURVE"
);
}
);
width = 339;
},
{
associatedMasterId = "B08EA6CB-0345-4FE8-BF44-53271D6C1876";
background = {
paths = (
{
closed = 1;
nodes = (
"179 810 LINE",
"145 799 OFFCURVE",
"80 713 OFFCURVE",
"63 683 CURVE",
"134 463 LINE",
"108 406 LINE",
"85 -39 LINE",
"-69 -136 LINE",
"-24 -207 LINE",
"47 -168 OFFCURVE",
"169 -75 OFFCURVE",
"205 -5 CURVE",
"217 413 LINE",
"227 466 LINE",
"178 728 LINE"
);
},
{
closed = 1;
nodes = (
"185 713 OFFCURVE",
"282 713 OFFCURVE",
"335 695 CURVE",
"364 720 OFFCURVE",
"382 767 OFFCURVE",
"373 815 CURVE",
"318 832 OFFCURVE",
"232 822 OFFCURVE",
"179 810 CURVE",
"142 687 LINE"
);
},
{
closed = 1;
nodes = (
"364 424 LINE",
"354 504 LINE",
"280 510 OFFCURVE",
"212 506 OFFCURVE",
"145 496 CURVE",
"115 537 LINE",
"7 436 LINE",
"32 368 LINE",
"124 385 LINE",
"161 393 LINE",
"219 397 OFFCURVE",
"268 397 OFFCURVE",
"333 392 CURVE"
);
}
);
};
layerId = "B31FA154-03DD-4FC2-9DBC-23F0B2231EF9";
name = "Regular Sep 4 15, 12:21";
paths = (
{
closed = 1;
nodes = (
"179 810 LINE",
"145 799 OFFCURVE",
"80 713 OFFCURVE",
"63 683 CURVE",
"134 463 LINE",
"108 406 LINE",
"83 -49 LINE",
"-82 -123 LINE",
"-73 -164 OFFCURVE",
"-53 -202 OFFCURVE",
"-24 -237 CURVE",
"47 -198 OFFCURVE",
"169 -97 OFFCURVE",
"205 -27 CURVE",
"217 413 LINE",
"227 466 LINE",
"178 728 LINE"
);
},
{
closed = 1;
nodes = (
"185 713 OFFCURVE",
"282 713 OFFCURVE",
"335 695 CURVE",
"364 720 OFFCURVE",
"382 767 OFFCURVE",
"373 815 CURVE",
"318 832 OFFCURVE",
"232 822 OFFCURVE",
"179 810 CURVE",
"142 687 LINE"
);
},
{
closed = 1;
nodes = (
"364 424 LINE",
"354 504 LINE",
"280 510 OFFCURVE",
"212 506 OFFCURVE",
"145 496 CURVE",
"115 537 LINE",
"7 436 LINE",
"32 368 LINE",
"124 385 LINE",
"161 393 LINE",
"219 397 OFFCURVE",
"268 397 OFFCURVE",
"333 392 CURVE"
);
}
);
width = 339;
},
{
associatedMasterId = "B08EA6CB-0345-4FE8-BF44-53271D6C1876";
background = {
paths = (
{
closed = 1;
nodes = (
"132 -14 LINE",
"167 3 OFFCURVE",
"196 33 OFFCURVE",
"219 76 CURVE",
"219 406 LINE",
"126 413 LINE",
"76 0 LINE"
);
},
{
closed = 1;
nodes = (
"179 810 LINE",
"145 799 OFFCURVE",
"80 713 OFFCURVE",
"63 683 CURVE",
"134 463 LINE",
"108 406 LINE",
"217 413 LINE",
"237 466 LINE",
"178 728 LINE"
);
},
{
closed = 1;
nodes = (
"185 713 OFFCURVE",
"282 713 OFFCURVE",
"335 695 CURVE",
"364 720 OFFCURVE",
"382 767 OFFCURVE",
"373 815 CURVE",
"318 832 OFFCURVE",
"232 822 OFFCURVE",
"179 810 CURVE",
"142 687 LINE"
);
},
{
closed = 1;
nodes = (
"364 424 LINE",
"354 504 LINE",
"280 510 OFFCURVE",
"212 506 OFFCURVE",
"145 496 CURVE",
"115 537 LINE",
"7 436 LINE",
"32 368 LINE",
"124 385 LINE",
"161 393 LINE",
"219 397 OFFCURVE",
"268 397 OFFCURVE",
"333 392 CURVE"
);
}
);
};
layerId = "87A6575B-3488-4067-A8FB-08589F34FF35";
name = "Regular Sep 10 15, 15:03";
paths = (
{
closed = 1;
nodes = (
"179 810 LINE",
"145 799 OFFCURVE",
"80 713 OFFCURVE",
"63 683 CURVE",
"134 463 LINE",
"108 406 LINE",
"217 413 LINE",
"237 466 LINE",
"178 728 LINE"
);
},
{
closed = 1;
nodes = (
"185 713 OFFCURVE",
"282 713 OFFCURVE",
"335 695 CURVE",
"364 720 OFFCURVE",
"382 767 OFFCURVE",
"373 815 CURVE",
"318 832 OFFCURVE",
"232 822 OFFCURVE",
"179 810 CURVE",
"142 687 LINE"
);
},
{
closed = 1;
nodes = (
"364 424 LINE",
"354 504 LINE",
"280 510 OFFCURVE",
"212 506 OFFCURVE",
"145 496 CURVE",
"125 537 LINE",
"7 436 LINE",
"32 368 LINE",
"161 393 LINE",
"219 397 OFFCURVE",
"268 397 OFFCURVE",
"333 392 CURVE"
);
},
{
closed = 1;
nodes = (
"220 413 LINE",
"127 406 LINE",
"71 76 LINE",
"94 33 OFFCURVE",
"123 3 OFFCURVE",
"158 -14 CURVE",
"214 0 LINE"
);
}
);
width = 330;
},
{
associatedMasterId = "B08EA6CB-0345-4FE8-BF44-53271D6C1876";
background = {
paths = (
{
closed = 1;
nodes = (
"179 810 LINE",
"145 799 OFFCURVE",
"80 713 OFFCURVE",
"63 683 CURVE",
"134 463 LINE",
"108 406 LINE",
"217 413 LINE",
"237 466 LINE",
"178 728 LINE"
);
},
{
closed = 1;
nodes = (
"364 424 LINE",
"354 504 LINE",
"280 510 OFFCURVE",
"212 506 OFFCURVE",
"145 496 CURVE",
"125 537 LINE",
"7 436 LINE",
"32 368 LINE",
"161 393 LINE",
"219 397 OFFCURVE",
"268 397 OFFCURVE",
"333 392 CURVE"
);
},
{
closed = 1;
nodes = (
"220 413 LINE",
"127 406 LINE",
"71 74 LINE",
"94 31 OFFCURVE",
"123 1 OFFCURVE",
"158 -16 CURVE",
"214 -2 LINE"
);
},
{
closed = 1;
nodes = (
"195 723 OFFCURVE",
"316 706 OFFCURVE",
"369 688 CURVE",
"398 713 OFFCURVE",
"416 760 OFFCURVE",
"407 808 CURVE",
"342 832 OFFCURVE",
"242 832 OFFCURVE",
"179 810 CURVE",
"142 687 LINE"
);
}
);
};
layerId = "E28801B0-C0B0-476E-9D12-1F059CE4DB81";
name = "Regular Sep 27 15, 17:31";
paths = (
{
closed = 1;
nodes = (
"179 810 LINE",
"145 799 OFFCURVE",
"80 713 OFFCURVE",
"63 683 CURVE",
"134 463 LINE",
"108 406 LINE",
"217 413 LINE",
"237 466 LINE",
"178 728 LINE"
);
},
{
closed = 1;
nodes = (
"364 424 LINE",
"354 504 LINE",
"280 510 OFFCURVE",
"212 506 OFFCURVE",
"145 496 CURVE",
"125 537 LINE",
"7 436 LINE",
"32 368 LINE",
"161 393 LINE",
"219 397 OFFCURVE",
"268 397 OFFCURVE",
"333 392 CURVE"
);
},
{
closed = 1;
nodes = (
"220 413 LINE",
"127 406 LINE",
"71 74 LINE",
"94 31 OFFCURVE",
"123 1 OFFCURVE",
"158 -16 CURVE",
"214 -2 LINE"
);
},
{
closed = 1;
nodes = (
"195 723 OFFCURVE",
"316 706 OFFCURVE",
"369 688 CURVE",
"398 713 OFFCURVE",
"416 760 OFFCURVE",
"407 808 CURVE",
"342 832 OFFCURVE",
"242 832 OFFCURVE",
"179 810 CURVE",
"142 687 LINE"
);
}
);
width = 330;
}
);
leftKerningGroup = f;
rightKerningGroup = f;
unicode = 0066;
},
{
color = 4;
glyphname = g;
lastChange = "2016-08-09 15:24:24 +0000";
layers = (
{
anchors = (
{
name = bottom;
position = "{261, 0}";
},
{
name = top;
position = "{294, 500}";
}
);
background = {
paths = (
{
closed = 1;
nodes = (
"356 38 OFFCURVE",
"349 -43 OFFCURVE",
"309 -125 CURVE",
"371 -107 LINE",
"294 -127 OFFCURVE",
"170 -123 OFFCURVE",
"92 -99 CURVE",
"78 -128 OFFCURVE",
"71 -188 OFFCURVE",
"73 -220 CURVE",
"160 -234 OFFCURVE",
"259 -234 OFFCURVE",
"346 -210 CURVE",
"391 -178 OFFCURVE",
"449 -103 OFFCURVE",
"465 -60 CURVE",
"442 288 LINE",
"447 492 LINE",
"417 500 OFFCURVE",
"374 500 OFFCURVE",
"344 492 CURVE",
"345 239 LINE",
"353 207 LINE"
);
}
);
};
layerId = "B08EA6CB-0345-4FE8-BF44-53271D6C1876";
paths = (
{
closed = 1;
nodes = (
"490 422 OFFCURVE",
"471 468 OFFCURVE",
"450 492 CURVE",
"340 527 OFFCURVE",
"256 517 OFFCURVE",
"160 500 CURVE",
"123 473 OFFCURVE",
"81 426 OFFCURVE",
"61 383 CURVE",
"40 107 LINE",
"52 60 OFFCURVE",
"111 0 OFFCURVE",
"141 -16 CURVE",
"197 -11 OFFCURVE",
"281 47 OFFCURVE",
"354 135 CURVE",
"353 27 OFFCURVE",
"346 -44 OFFCURVE",
"316 -114 CURVE",
"242 -125 OFFCURVE",
"139 -118 OFFCURVE",
"76 -94 CURVE",
"62 -123 OFFCURVE",
"55 -185 OFFCURVE",
"57 -217 CURVE",
"143 -234 OFFCURVE",
"260 -235 OFFCURVE",
"347 -210 CURVE",
"392 -178 OFFCURVE",
"445 -105 OFFCURVE",
"466 -60 CURVE",
"443 269 LINE",
"465 312 OFFCURVE",
"482 359 OFFCURVE",
"493 407 CURVE"
);
},
{
closed = 1;
nodes = (
"157 101 OFFCURVE",
"141 263 OFFCURVE",
"190 396 CURVE",
"236 409 OFFCURVE",
"289 416 OFFCURVE",
"344 415 CURVE",
"345 278 LINE",
"296 192 OFFCURVE",
"229 124 OFFCURVE",
"178 106 CURVE"
);
}
);
width = 513;
},
{
associatedMasterId = "B08EA6CB-0345-4FE8-BF44-53271D6C1876";
layerId = "56A0EA90-2111-4E2D-A051-BD4ABD74C590";
name = "Regular Jul 12 15, 23:51";
paths = (
{
closed = 1;
nodes = (
"332 527 OFFCURVE",
"222 516 OFFCURVE",
"115 502 CURVE",
"78 469 OFFCURVE",
"60 436 OFFCURVE",
"46 403 CURVE",
"30 107 LINE",
"42 60 OFFCURVE",
"87 2 OFFCURVE",
"117 -14 CURVE",
"211 -14 OFFCURVE",
"439 174 OFFCURVE",
"489 417 CURVE",
"486 432 OFFCURVE",
"459 468 OFFCURVE",
"438 492 CURVE",
"398 492 LINE",
"398 349 OFFCURVE",
"255 128 OFFCURVE",
"164 106 CURVE SMOOTH",
"141 100 OFFCURVE",
"123 279 OFFCURVE",
"192 427 CURVE",
"150 389 LINE",
"237 409 OFFCURVE",
"307 412 OFFCURVE",
"385 401 CURVE",
"438 492 LINE"
);
},
{
closed = 1;
nodes = (
"313 -16 OFFCURVE",
"301 -68 OFFCURVE",
"274 -125 CURVE",
"316 -87 LINE",
"229 -107 OFFCURVE",
"116 -106 OFFCURVE",
"38 -95 CURVE",
"30 -127 OFFCURVE",
"26 -158 OFFCURVE",
"28 -190 CURVE",
"134 -225 OFFCURVE",
"244 -214 OFFCURVE",
"351 -200 CURVE",
"388 -167 OFFCURVE",
"416 -134 OFFCURVE",
"430 -101 CURVE",
"438 43 LINE",
"429 246 LINE",
"438 492 LINE",
"408 500 OFFCURVE",
"355 500 OFFCURVE",
"325 492 CURVE",
"328 239 LINE",
"338 207 LINE",
"319 38 LINE"
);
}
);
width = 600;
},
{
associatedMasterId = "B08EA6CB-0345-4FE8-BF44-53271D6C1876";
background = {
components = (
{
name = rounded.a;
transform = "{1, 0, 0, 1, 11, 0}";
}
);
paths = (
{
closed = 1;
nodes = (
"341 -16 OFFCURVE",
"329 -68 OFFCURVE",
"302 -125 CURVE",
"354 -107 LINE",
"277 -127 OFFCURVE",
"153 -103 OFFCURVE",
"75 -79 CURVE",
"61 -108 OFFCURVE",
"54 -158 OFFCURVE",
"56 -190 CURVE",
"143 -213 OFFCURVE",
"242 -214 OFFCURVE",
"329 -200 CURVE",
"374 -168 OFFCURVE",
"432 -103 OFFCURVE",
"448 -60 CURVE",
"447 246 LINE",
"450 492 LINE",
"420 500 OFFCURVE",
"377 500 OFFCURVE",
"347 492 CURVE",
"348 239 LINE",
"366 207 LINE",
"347 38 LINE"
);
}
);
};
components = (
{
name = rounded.a;
transform = "{1, 0, 0, 1, 11, 0}";
}
);
layerId = "EF883020-AC71-47F7-85F7-88E41A937BF6";
name = "Regular Sep 4 15, 12:20";
paths = (
{
closed = 1;
nodes = (
"359 38 OFFCURVE",
"352 -43 OFFCURVE",
"312 -125 CURVE",
"374 -107 LINE",
"297 -127 OFFCURVE",
"173 -103 OFFCURVE",
"95 -79 CURVE",
"81 -108 OFFCURVE",
"74 -168 OFFCURVE",
"76 -200 CURVE",
"163 -223 OFFCURVE",
"262 -224 OFFCURVE",
"349 -210 CURVE",
"394 -178 OFFCURVE",
"452 -103 OFFCURVE",
"468 -60 CURVE",
"445 288 LINE",
"450 492 LINE",
"420 500 OFFCURVE",
"377 500 OFFCURVE",
"347 492 CURVE",
"348 239 LINE",
"356 207 LINE"
);
}
);
width = 516;
}
);
leftKerningGroup = o;
leftMetricsKey = o;
rightKerningGroup = y;
rightMetricsKey = q;
unicode = 0067;
},
{
color = 4;
glyphname = h;
lastChange = "2016-08-09 15:24:24 +0000";
layers = (
{
anchors = (
{
name = bottom;
position = "{273, 0}";
},
{
name = center;
position = "{171, 592}";
},
{
name = top;
position = "{273, 500}";
}
);
background = {
paths = (
{
closed = 1;
nodes = (
"200 779 OFFCURVE",
"145 814 OFFCURVE",
"125 816 CURVE",
"-10 750 LINE",
"-7 719 OFFCURVE",
"10 688 OFFCURVE",
"19 672 CURVE",
"143 704 LINE",
"98 780 LINE",
"118 556 LINE",
"109 300 LINE",
"139 292 OFFCURVE",
"182 292 OFFCURVE",
"212 300 CURVE",
"219 563 LINE",
"209 595 LINE",
"218 764 LINE"
);
}
);
};
layerId = "B08EA6CB-0345-4FE8-BF44-53271D6C1876";
paths = (
{
closed = 1;
nodes = (
"475 108 LINE",
"492 395 LINE",
"480 442 OFFCURVE",
"435 500 OFFCURVE",
"405 516 CURVE",
"354 516 OFFCURVE",
"268 462 OFFCURVE",
"191 372 CURVE",
"218 764 LINE",
"200 782 OFFCURVE",
"145 814 OFFCURVE",
"125 816 CURVE",
"-10 750 LINE",
"-7 719 OFFCURVE",
"10 688 OFFCURVE",
"19 672 CURVE",
"97 692 LINE",
"91 256 LINE",
"87 209 LINE",
"68 167 OFFCURVE",
"52 122 OFFCURVE",
"43 75 CURVE",
"56 47 OFFCURVE",
"73 22 OFFCURVE",
"94 0 CURVE",
"124 -8 OFFCURVE",
"167 -8 OFFCURVE",
"197 0 CURVE",
"197 204 LINE",
"245 296 OFFCURVE",
"313 378 OFFCURVE",
"365 401 CURVE",
"382 330 OFFCURVE",
"384 189 OFFCURVE",
"349 64 CURVE",
"371 31 OFFCURVE",
"415 1 OFFCURVE",
"450 -16 CURVE",
"585 50 LINE",
"582 81 OFFCURVE",
"568 113 OFFCURVE",
"556 129 CURVE"
);
}
);
width = 575;
},
{
associatedMasterId = "B08EA6CB-0345-4FE8-BF44-53271D6C1876";
background = {
paths = (
{
closed = 1;
nodes = (
"210 779 OFFCURVE",
"145 814 OFFCURVE",
"125 816 CURVE",
"-10 750 LINE",
"-7 719 OFFCURVE",
"10 688 OFFCURVE",
"19 672 CURVE",
"143 704 LINE",
"108 780 LINE",
"91 256 LINE",
"83 40 LINE",
"197 0 LINE",
"187 263 LINE",
"186 295 LINE",
"228 764 LINE"
);
},
{
closed = 1;
nodes = (
"184 -23 OFFCURVE",
"291 -16 OFFCURVE",
"388 -2 CURVE",
"429 22 OFFCURVE",
"480 71 OFFCURVE",
"498 105 CURVE",
"513 402 LINE",
"498 449 OFFCURVE",
"451 500 OFFCURVE",
"415 516 CURVE",
"321 516 OFFCURVE",
"93 324 OFFCURVE",
"53 81 CURVE",
"56 66 OFFCURVE",
"83 24 OFFCURVE",
"104 0 CURVE",
"140 0 LINE",
"140 152 OFFCURVE",
"323 410 OFFCURVE",
"410 405 CURVE",
"384 421 LINE",
"401 380 OFFCURVE",
"408 220 OFFCURVE",
"358 71 CURVE",
"402 109 LINE",
"315 89 OFFCURVE",
"235 76 OFFCURVE",
"157 87 CURVE",
"104 0 LINE"
);
}
);
};
layerId = "43C9AAE0-A262-4F2C-BF6B-0E35A8E8C481";
name = "Regular Aug 19 15, 22:31";
paths = (
{
closed = 1;
nodes = (
"482 97 LINE",
"507 52 LINE",
"527 395 LINE",
"515 442 OFFCURVE",
"470 500 OFFCURVE",
"440 516 CURVE",
"346 516 OFFCURVE",
"108 328 OFFCURVE",
"58 85 CURVE",
"61 70 OFFCURVE",
"88 24 OFFCURVE",
"109 0 CURVE",
"149 0 LINE",
"149 143 OFFCURVE",
"302 374 OFFCURVE",
"393 396 CURVE SMOOTH",
"416 402 OFFCURVE",
"434 222 OFFCURVE",
"365 74 CURVE",
"388 31 OFFCURVE",
"418 1 OFFCURVE",
"453 -16 CURVE",
"600 16 LINE",
"601 53 OFFCURVE",
"597 82 OFFCURVE",
"591 94 CURVE"
);
},
{
closed = 1;
nodes = (
"210 779 OFFCURVE",
"155 814 OFFCURVE",
"135 816 CURVE",
"0 750 LINE",
"3 719 OFFCURVE",
"20 688 OFFCURVE",
"29 672 CURVE",
"153 704 LINE",
"108 780 LINE",
"118 256 LINE",
"109 0 LINE",
"139 -8 OFFCURVE",
"192 -8 OFFCURVE",
"222 0 CURVE",
"219 263 LINE",
"209 295 LINE",
"228 764 LINE"
);
}
);
width = 585;
},
{
anchors = (
{
name = bottom;
position = "{293, 0}";
},
{
name = center;
position = "{171, 592}";
},
{
name = top;
position = "{293, 500}";
}
);
associatedMasterId = "B08EA6CB-0345-4FE8-BF44-53271D6C1876";
background = {
paths = (
{
closed = 1;
nodes = (
"220 779 OFFCURVE",
"165 814 OFFCURVE",
"145 816 CURVE",
"10 750 LINE",
"13 719 OFFCURVE",
"30 688 OFFCURVE",
"39 672 CURVE",
"163 704 LINE",
"118 780 LINE",
"138 556 LINE",
"129 300 LINE",
"159 292 OFFCURVE",
"202 292 OFFCURVE",
"232 300 CURVE",
"239 563 LINE",
"229 595 LINE",
"238 764 LINE"
);
}
);
};
layerId = "460C9D55-70B7-4D40-964D-26C109406E9D";
name = "Regular Sep 27 15, 18:53";
paths = (
{
closed = 1;
nodes = (
"114 0 LINE",
"144 -8 OFFCURVE",
"187 -8 OFFCURVE",
"217 0 CURVE",
"217 263 LINE",
"206 295 LINE",
"238 764 LINE",
"220 779 OFFCURVE",
"155 814 OFFCURVE",
"135 816 CURVE",
"0 750 LINE",
"3 719 OFFCURVE",
"20 688 OFFCURVE",
"29 672 CURVE",
"153 704 LINE",
"118 780 LINE",
"111 256 LINE",
"94 66 LINE"
);
},
{
closed = 1;
nodes = (
"463 100 LINE",
"492 52 LINE",
"512 395 LINE",
"500 442 OFFCURVE",
"455 500 OFFCURVE",
"425 516 CURVE",
"331 516 OFFCURVE",
"113 328 OFFCURVE",
"63 75 CURVE",
"76 47 OFFCURVE",
"93 22 OFFCURVE",
"114 0 CURVE",
"154 0 LINE",
"154 152 OFFCURVE",
"327 413 OFFCURVE",
"414 408 CURVE",
"372 437 LINE",
"399 390 OFFCURVE",
"412 215 OFFCURVE",
"369 64 CURVE",
"391 31 OFFCURVE",
"435 1 OFFCURVE",
"470 -16 CURVE",
"605 50 LINE",
"602 81 OFFCURVE",
"588 113 OFFCURVE",
"576 129 CURVE"
);
}
);
width = 595;
}
);
leftKerningGroup = l;
rightKerningGroup = n;
rightMetricsKey = n;
unicode = 0068;
},
{
color = 4;
glyphname = i;
lastChange = "2016-08-09 15:24:24 +0000";
layers = (
{
anchors = (
{
name = bottom;
position = "{143, 0}";
},
{
name = ogonek;
position = "{307, 0}";
},
{
name = top;
position = "{163, 770}";
}
);
background = {
paths = (
{
closed = 1;
nodes = (
"197 243 LINE",
"231 424 LINE",
"208 460 OFFCURVE",
"165 504 OFFCURVE",
"135 516 CURVE",
"0 450 LINE",
"3 419 OFFCURVE",
"20 382 OFFCURVE",
"29 366 CURVE",
"153 403 LINE",
"108 480 LINE",
"86 76 LINE",
"104 41 OFFCURVE",
"140 9 OFFCURVE",
"190 -14 CURVE",
"325 52 LINE",
"322 83 OFFCURVE",
"305 120 OFFCURVE",
"296 136 CURVE",
"172 99 LINE",
"217 22 LINE",
"207 79 LINE"
);
},
{
closed = 1;
nodes = (
"215 582 OFFCURVE",
"258 632 OFFCURVE",
"261 667 CURVE",
"254 698 OFFCURVE",
"199 742 OFFCURVE",
"168 743 CURVE",
"136 734 OFFCURVE",
"92 678 OFFCURVE",
"91 647 CURVE",
"118 617 OFFCURVE",
"149 592 OFFCURVE",
"185 573 CURVE"
);
}
);
};
layerId = "B08EA6CB-0345-4FE8-BF44-53271D6C1876";
paths = (
{
closed = 1;
nodes = (
"201 582 OFFCURVE",
"244 632 OFFCURVE",
"247 667 CURVE",
"240 698 OFFCURVE",
"185 742 OFFCURVE",
"154 743 CURVE",
"122 734 OFFCURVE",
"78 678 OFFCURVE",
"77 647 CURVE",
"104 617 OFFCURVE",
"135 592 OFFCURVE",
"171 573 CURVE"
);
},
{
closed = 1;
nodes = (
"192 107 LINE",
"192 243 LINE",
"220 463 LINE",
"200 479 OFFCURVE",
"145 514 OFFCURVE",
"125 516 CURVE",
"-10 450 LINE",
"-7 419 OFFCURVE",
"10 382 OFFCURVE",
"19 366 CURVE",
"92 388 LINE",
"71 74 LINE",
"89 39 OFFCURVE",
"125 7 OFFCURVE",
"175 -16 CURVE",
"310 50 LINE",
"307 81 OFFCURVE",
"290 118 OFFCURVE",
"281 134 CURVE"
);
}
);
width = 300;
},
{
associatedMasterId = "B08EA6CB-0345-4FE8-BF44-53271D6C1876";
background = {
paths = (
{
closed = 1;
nodes = (
"271 434 LINE",
"246 470 OFFCURVE",
"208 504 OFFCURVE",
"178 516 CURVE",
"43 450 LINE",
"46 419 OFFCURVE",
"63 382 OFFCURVE",
"72 366 CURVE",
"196 403 LINE",
"142 480 LINE",
"136 256 LINE",
"103 73 LINE",
"121 38 OFFCURVE",
"183 -12 OFFCURVE",
"203 -14 CURVE",
"338 52 LINE",
"335 83 OFFCURVE",
"318 120 OFFCURVE",
"309 136 CURVE",
"185 99 LINE",
"230 22 LINE",
"229 246 LINE"
);
}
);
};
layerId = "F484F81A-AF74-4A38-8208-856F06BDA71E";
name = "Regular Aug 19 15, 20:04";
paths = (
{
closed = 1;
nodes = (
"210 569 OFFCURVE",
"257 623 OFFCURVE",
"256 658 CURVE",
"251 689 OFFCURVE",
"194 735 OFFCURVE",
"163 734 CURVE",
"131 729 OFFCURVE",
"85 669 OFFCURVE",
"86 638 CURVE",
"113 606 OFFCURVE",
"143 583 OFFCURVE",
"180 564 CURVE"
);
},
{
closed = 1;
nodes = (
"210 479 OFFCURVE",
"155 514 OFFCURVE",
"135 516 CURVE",
"0 450 LINE",
"3 419 OFFCURVE",
"20 388 OFFCURVE",
"29 372 CURVE",
"153 404 LINE",
"108 480 LINE",
"118 256 LINE",
"78 74 LINE",
"101 31 OFFCURVE",
"131 1 OFFCURVE",
"166 -16 CURVE",
"313 16 LINE",
"314 53 OFFCURVE",
"310 82 OFFCURVE",
"304 94 CURVE",
"195 97 LINE",
"220 52 LINE",
"219 263 LINE",
"228 464 LINE"
);
}
);
width = 298;
},
{
associatedMasterId = "B08EA6CB-0345-4FE8-BF44-53271D6C1876";
background = {
paths = (
{
closed = 1;
nodes = (
"231 424 LINE",
"208 460 OFFCURVE",
"165 504 OFFCURVE",
"135 516 CURVE",
"0 450 LINE",
"3 419 OFFCURVE",
"20 382 OFFCURVE",
"29 366 CURVE",
"153 403 LINE",
"114 480 LINE",
"86 76 LINE",
"104 41 OFFCURVE",
"140 9 OFFCURVE",
"190 -14 CURVE",
"325 52 LINE",
"322 83 OFFCURVE",
"305 120 OFFCURVE",
"296 136 CURVE",
"172 99 LINE",
"217 22 LINE",
"197 79 LINE SMOOTH"
);
},
{
closed = 1;
nodes = (
"216 579 OFFCURVE",
"263 633 OFFCURVE",
"262 668 CURVE",
"257 699 OFFCURVE",
"200 745 OFFCURVE",
"169 744 CURVE",
"137 739 OFFCURVE",
"91 679 OFFCURVE",
"92 648 CURVE",
"109 616 OFFCURVE",
"139 591 OFFCURVE",
"186 574 CURVE"
);
}
);
};
layerId = "5325888B-16D4-4D35-9EB0-6C624161FCE4";
name = "Regular Aug 31 15, 19:40";
paths = (
{
closed = 1;
nodes = (
"197 243 LINE",
"231 424 LINE",
"208 460 OFFCURVE",
"165 504 OFFCURVE",
"135 516 CURVE",
"0 450 LINE",
"3 419 OFFCURVE",
"20 382 OFFCURVE",
"29 366 CURVE",
"153 403 LINE",
"108 480 LINE",
"86 76 LINE",
"104 41 OFFCURVE",
"140 9 OFFCURVE",
"190 -14 CURVE",
"325 52 LINE",
"322 83 OFFCURVE",
"305 120 OFFCURVE",
"296 136 CURVE",
"172 99 LINE",
"217 22 LINE",
"207 79 LINE SMOOTH"
);
},
{
closed = 1;
nodes = (
"215 578 OFFCURVE",
"262 632 OFFCURVE",
"261 667 CURVE",
"256 698 OFFCURVE",
"199 744 OFFCURVE",
"168 743 CURVE",
"136 738 OFFCURVE",
"90 678 OFFCURVE",
"91 647 CURVE",
"118 615 OFFCURVE",
"149 592 OFFCURVE",
"185 573 CURVE"
);
}
);
width = 315;
},
{
associatedMasterId = "B08EA6CB-0345-4FE8-BF44-53271D6C1876";
background = {
paths = (
{
closed = 1;
nodes = (
"231 424 LINE",
"208 460 OFFCURVE",
"165 504 OFFCURVE",
"135 516 CURVE",
"0 450 LINE",
"3 419 OFFCURVE",
"20 382 OFFCURVE",
"29 366 CURVE",
"153 403 LINE",
"114 480 LINE",
"86 76 LINE",
"104 41 OFFCURVE",
"140 9 OFFCURVE",
"190 -14 CURVE",
"325 52 LINE",
"322 83 OFFCURVE",
"305 120 OFFCURVE",
"296 136 CURVE",
"172 99 LINE",
"217 22 LINE",
"197 79 LINE SMOOTH"
);
},
{
closed = 1;
nodes = (
"216 579 OFFCURVE",
"263 633 OFFCURVE",
"262 668 CURVE",
"257 699 OFFCURVE",
"200 745 OFFCURVE",
"169 744 CURVE",
"137 739 OFFCURVE",
"91 679 OFFCURVE",
"92 648 CURVE",
"109 616 OFFCURVE",
"139 591 OFFCURVE",
"186 574 CURVE"
);
}
);
};
layerId = "C40F06C6-BE0E-4D4C-ADEB-9D5CA2B8797B";
name = "Regular Aug 31 15, 23:23";
paths = (
{
closed = 1;
nodes = (
"197 243 LINE",
"231 424 LINE",
"208 460 OFFCURVE",
"165 504 OFFCURVE",
"135 516 CURVE",
"0 450 LINE",
"3 419 OFFCURVE",
"20 382 OFFCURVE",
"29 366 CURVE",
"153 403 LINE",
"108 480 LINE",
"86 76 LINE",
"104 41 OFFCURVE",
"140 9 OFFCURVE",
"190 -14 CURVE",
"325 52 LINE",
"322 83 OFFCURVE",
"305 120 OFFCURVE",
"296 136 CURVE",
"172 99 LINE",
"217 22 LINE",
"207 79 LINE"
);
},
{
closed = 1;
nodes = (
"215 582 OFFCURVE",
"258 632 OFFCURVE",
"261 667 CURVE",
"254 698 OFFCURVE",
"199 742 OFFCURVE",
"168 743 CURVE",
"136 734 OFFCURVE",
"92 678 OFFCURVE",
"91 647 CURVE",
"118 617 OFFCURVE",
"149 592 OFFCURVE",
"185 573 CURVE"
);
}
);
width = 315;
},
{
associatedMasterId = "B08EA6CB-0345-4FE8-BF44-53271D6C1876";
background = {
paths = (
{
closed = 1;
nodes = (
"197 243 LINE",
"231 424 LINE",
"208 460 OFFCURVE",
"165 504 OFFCURVE",
"135 516 CURVE",
"0 450 LINE",
"3 419 OFFCURVE",
"20 382 OFFCURVE",
"29 366 CURVE",
"153 403 LINE",
"108 480 LINE",
"86 76 LINE",
"104 41 OFFCURVE",
"140 9 OFFCURVE",
"190 -14 CURVE",
"325 52 LINE",
"322 83 OFFCURVE",
"305 120 OFFCURVE",
"296 136 CURVE",
"172 99 LINE",
"217 22 LINE",
"207 79 LINE"
);
},
{
closed = 1;
nodes = (
"215 582 OFFCURVE",
"258 632 OFFCURVE",
"261 667 CURVE",
"254 698 OFFCURVE",
"199 742 OFFCURVE",
"168 743 CURVE",
"136 734 OFFCURVE",
"92 678 OFFCURVE",
"91 647 CURVE",
"118 617 OFFCURVE",
"149 592 OFFCURVE",
"185 573 CURVE"
);
}
);
};
layerId = "F5B81380-217E-4EAB-B232-FDB191998215";
name = "Regular Aug 31 15, 23:26";
paths = (
{
closed = 1;
nodes = (
"197 243 LINE",
"231 424 LINE",
"208 460 OFFCURVE",
"165 504 OFFCURVE",
"135 516 CURVE",
"0 450 LINE",
"3 419 OFFCURVE",
"20 382 OFFCURVE",
"29 366 CURVE",
"153 403 LINE",
"108 480 LINE",
"86 76 LINE",
"104 41 OFFCURVE",
"140 9 OFFCURVE",
"190 -14 CURVE",
"325 52 LINE",
"322 83 OFFCURVE",
"305 120 OFFCURVE",
"296 136 CURVE",
"172 99 LINE",
"217 22 LINE",
"207 79 LINE"
);
},
{
closed = 1;
nodes = (
"215 582 OFFCURVE",
"258 632 OFFCURVE",
"261 667 CURVE",
"254 698 OFFCURVE",
"199 742 OFFCURVE",
"168 743 CURVE",
"136 734 OFFCURVE",
"92 678 OFFCURVE",
"91 647 CURVE",
"118 617 OFFCURVE",
"149 592 OFFCURVE",
"185 573 CURVE"
);
}
);
width = 315;
}
);
leftKerningGroup = n;
leftMetricsKey = n;
rightKerningGroup = n;
unicode = 0069;
},
{
color = 4;
glyphname = j;
lastChange = "2016-08-09 15:24:24 +0000";
layers = (
{
anchors = (
{
name = bottom;
position = "{149, 0}";
},
{
name = top;
position = "{162, 770}";
}
);
background = {
paths = (
{
closed = 1;
nodes = (
"323 186 OFFCURVE",
"299 224 OFFCURVE",
"278 246 CURVE",
"229 210 OFFCURVE",
"184 158 OFFCURVE",
"137 96 CURVE",
"134 92 OFFCURVE",
"117 96 OFFCURVE",
"114 91 CURVE SMOOTH",
"70 31 OFFCURVE",
"34 -60 OFFCURVE",
"18 -135 CURVE",
"38 -181 OFFCURVE",
"58 -206 OFFCURVE",
"79 -230 CURVE",
"119 -230 LINE",
"119 -181 OFFCURVE",
"151 -74 OFFCURVE",
"180 23 CURVE",
"333 155 LINE"
);
},
{
closed = 1;
nodes = (
"209 460 OFFCURVE",
"165 504 OFFCURVE",
"135 516 CURVE",
"0 450 LINE",
"3 419 OFFCURVE",
"20 382 OFFCURVE",
"29 366 CURVE",
"152 404 LINE",
"107 480 LINE",
"105 66 LINE",
"79 -230 LINE",
"109 -238 OFFCURVE",
"162 -238 OFFCURVE",
"192 -230 CURVE",
"199 63 LINE",
"191 95 LINE",
"231 424 LINE"
);
},
{
closed = 1;
nodes = (
"210 582 OFFCURVE",
"253 632 OFFCURVE",
"256 667 CURVE",
"249 698 OFFCURVE",
"194 742 OFFCURVE",
"163 743 CURVE",
"131 734 OFFCURVE",
"87 678 OFFCURVE",
"86 647 CURVE",
"113 617 OFFCURVE",
"144 592 OFFCURVE",
"180 573 CURVE"
);
}
);
};
layerId = "B08EA6CB-0345-4FE8-BF44-53271D6C1876";
paths = (
{
closed = 1;
nodes = (
"200 582 OFFCURVE",
"243 632 OFFCURVE",
"246 667 CURVE",
"239 698 OFFCURVE",
"184 742 OFFCURVE",
"153 743 CURVE",
"121 734 OFFCURVE",
"77 678 OFFCURVE",
"76 647 CURVE",
"103 617 OFFCURVE",
"134 592 OFFCURVE",
"170 573 CURVE"
);
},
{
closed = 1;
nodes = (
"313 186 OFFCURVE",
"289 224 OFFCURVE",
"268 246 CURVE",
"241 226 OFFCURVE",
"215 201 OFFCURVE",
"189 172 CURVE",
"220 463 LINE",
"200 479 OFFCURVE",
"145 514 OFFCURVE",
"125 516 CURVE",
"-10 450 LINE",
"-7 419 OFFCURVE",
"10 382 OFFCURVE",
"19 366 CURVE",
"97 389 LINE",
"95 79 LINE",
"55 21 OFFCURVE",
"23 -61 OFFCURVE",
"8 -129 CURVE",
"28 -175 OFFCURVE",
"48 -200 OFFCURVE",
"69 -224 CURVE",
"99 -232 OFFCURVE",
"152 -232 OFFCURVE",
"182 -224 CURVE",
"188 39 LINE",
"323 155 LINE"
);
}
);
width = 306;
},
{
associatedMasterId = "B08EA6CB-0345-4FE8-BF44-53271D6C1876";
background = {
paths = (
{
closed = 1;
nodes = (
"139 -208 OFFCURVE",
"192 -208 OFFCURVE",
"222 -200 CURVE",
"219 123 LINE",
"209 155 LINE",
"219 488 LINE",
"201 503 OFFCURVE",
"155 514 OFFCURVE",
"135 516 CURVE",
"0 490 LINE",
"-1 453 OFFCURVE",
"5 415 OFFCURVE",
"11 403 CURVE",
"153 403 LINE",
"108 480 LINE",
"118 56 LINE",
"109 -200 LINE"
);
},
{
closed = 1;
nodes = (
"417 313 OFFCURVE",
"406 347 OFFCURVE",
"390 360 CURVE",
"277 294 OFFCURVE",
"95 64 OFFCURVE",
"58 -115 CURVE",
"61 -130 OFFCURVE",
"88 -176 OFFCURVE",
"109 -200 CURVE",
"149 -200 LINE",
"149 -69 OFFCURVE",
"318 193 OFFCURVE",
"423 292 CURVE"
);
}
);
};
layerId = "13E0914B-FDE6-43D7-AC68-B0CBE3A0EE72";
name = "Regular Jul 12 15, 20:31";
paths = (
{
closed = 1;
nodes = (
"139 -208 OFFCURVE",
"192 -208 OFFCURVE",
"222 -200 CURVE",
"219 123 LINE",
"209 155 LINE",
"219 488 LINE",
"201 503 OFFCURVE",
"155 514 OFFCURVE",
"135 516 CURVE",
"0 490 LINE",
"-1 453 OFFCURVE",
"5 415 OFFCURVE",
"11 403 CURVE",
"153 403 LINE",
"108 480 LINE",
"118 56 LINE",
"109 -200 LINE"
);
},
{
closed = 1;
nodes = (
"417 313 OFFCURVE",
"406 347 OFFCURVE",
"390 360 CURVE",
"277 294 OFFCURVE",
"95 64 OFFCURVE",
"58 -115 CURVE",
"61 -130 OFFCURVE",
"88 -176 OFFCURVE",
"109 -200 CURVE",
"149 -200 LINE",
"149 -69 OFFCURVE",
"318 193 OFFCURVE",
"423 292 CURVE"
);
}
);
width = 600;
},
{
associatedMasterId = "B08EA6CB-0345-4FE8-BF44-53271D6C1876";
background = {
paths = (
{
closed = 1;
nodes = (
"139 -208 OFFCURVE",
"192 -208 OFFCURVE",
"222 -200 CURVE",
"219 63 LINE",
"209 95 LINE",
"228 464 LINE",
"210 479 OFFCURVE",
"155 514 OFFCURVE",
"135 516 CURVE",
"0 450 LINE",
"3 419 OFFCURVE",
"20 382 OFFCURVE",
"29 366 CURVE",
"153 403 LINE",
"108 480 LINE",
"118 56 LINE",
"109 -200 LINE"
);
},
{
closed = 1;
nodes = (
"348 184 OFFCURVE",
"319 237 OFFCURVE",
"305 254 CURVE",
"204 180 OFFCURVE",
"81 44 OFFCURVE",
"48 -115 CURVE",
"51 -130 OFFCURVE",
"88 -176 OFFCURVE",
"109 -200 CURVE",
"149 -200 LINE",
"149 -151 OFFCURVE",
"160 -67 OFFCURVE",
"189 0 CURVE",
"234 68 OFFCURVE",
"263 95 OFFCURVE",
"360 154 CURVE"
);
},
{
closed = 1;
nodes = (
"210 569 OFFCURVE",
"257 623 OFFCURVE",
"256 658 CURVE",
"251 689 OFFCURVE",
"194 735 OFFCURVE",
"163 734 CURVE",
"131 729 OFFCURVE",
"85 669 OFFCURVE",
"86 638 CURVE",
"113 606 OFFCURVE",
"143 583 OFFCURVE",
"180 564 CURVE"
);
}
);
};
layerId = "0765280A-9DEC-4DC2-8453-E600138AF88C";
name = "Regular Jul 12 15, 21:54";
paths = (
{
closed = 1;
nodes = (
"139 -208 OFFCURVE",
"192 -208 OFFCURVE",
"222 -200 CURVE",
"219 63 LINE",
"209 95 LINE",
"228 464 LINE",
"210 479 OFFCURVE",
"155 514 OFFCURVE",
"135 516 CURVE",
"0 450 LINE",
"3 419 OFFCURVE",
"20 382 OFFCURVE",
"29 366 CURVE",
"153 403 LINE",
"108 480 LINE",
"118 56 LINE",
"109 -200 LINE"
);
},
{
closed = 1;
nodes = (
"348 194 OFFCURVE",
"324 234 OFFCURVE",
"305 253 CURVE",
"256 217 OFFCURVE",
"214 158 OFFCURVE",
"167 96 CURVE",
"164 92 OFFCURVE",
"147 96 OFFCURVE",
"144 91 CURVE SMOOTH",
"100 31 OFFCURVE",
"64 -40 OFFCURVE",
"48 -115 CURVE",
"51 -130 OFFCURVE",
"88 -176 OFFCURVE",
"109 -200 CURVE",
"149 -200 LINE",
"149 -151 OFFCURVE",
"160 -67 OFFCURVE",
"189 0 CURVE",
"234 68 OFFCURVE",
"263 95 OFFCURVE",
"360 154 CURVE"
);
},
{
closed = 1;
nodes = (
"210 569 OFFCURVE",
"257 623 OFFCURVE",
"256 658 CURVE",
"251 689 OFFCURVE",
"194 735 OFFCURVE",
"163 734 CURVE",
"131 729 OFFCURVE",
"85 669 OFFCURVE",
"86 638 CURVE",
"113 606 OFFCURVE",
"143 583 OFFCURVE",
"180 564 CURVE"
);
}
);
width = 310;
},
{
associatedMasterId = "B08EA6CB-0345-4FE8-BF44-53271D6C1876";
layerId = "94BFC0B4-446B-4468-ACD8-B9D89D24C9F6";
name = "Regular Aug 19 15, 22:39";
paths = (
{
closed = 1;
nodes = (
"343 192 OFFCURVE",
"329 224 OFFCURVE",
"308 246 CURVE",
"259 210 OFFCURVE",
"214 158 OFFCURVE",
"167 96 CURVE",
"164 92 OFFCURVE",
"147 96 OFFCURVE",
"144 91 CURVE SMOOTH",
"100 31 OFFCURVE",
"64 -40 OFFCURVE",
"48 -115 CURVE",
"51 -130 OFFCURVE",
"88 -176 OFFCURVE",
"109 -200 CURVE",
"149 -200 LINE",
"149 -151 OFFCURVE",
"151 -44 OFFCURVE",
"180 23 CURVE",
"353 155 LINE"
);
},
{
closed = 1;
nodes = (
"210 569 OFFCURVE",
"257 623 OFFCURVE",
"256 658 CURVE",
"251 689 OFFCURVE",
"194 735 OFFCURVE",
"163 734 CURVE",
"131 729 OFFCURVE",
"85 669 OFFCURVE",
"86 638 CURVE",
"113 606 OFFCURVE",
"143 583 OFFCURVE",
"180 564 CURVE"
);
},
{
closed = 1;
nodes = (
"210 479 OFFCURVE",
"155 514 OFFCURVE",
"135 516 CURVE",
"0 450 LINE",
"3 419 OFFCURVE",
"20 388 OFFCURVE",
"29 372 CURVE",
"153 404 LINE",
"108 480 LINE",
"118 56 LINE",
"109 -200 LINE",
"139 -208 OFFCURVE",
"192 -208 OFFCURVE",
"222 -200 CURVE",
"219 63 LINE",
"209 95 LINE",
"228 464 LINE"
);
}
);
width = 310;
},
{
associatedMasterId = "B08EA6CB-0345-4FE8-BF44-53271D6C1876";
background = {
paths = (
{
closed = 1;
nodes = (
"231 424 LINE",
"209 460 OFFCURVE",
"165 504 OFFCURVE",
"135 516 CURVE",
"0 450 LINE",
"3 419 OFFCURVE",
"20 382 OFFCURVE",
"29 366 CURVE",
"153 403 LINE",
"114 480 LINE",
"87 85 LINE",
"105 50 OFFCURVE",
"140 9 OFFCURVE",
"190 -14 CURVE",
"325 52 LINE",
"322 83 OFFCURVE",
"305 120 OFFCURVE",
"296 136 CURVE",
"172 99 LINE",
"217 22 LINE",
"197 79 LINE SMOOTH"
);
}
);
};
layerId = "8629F5EB-A51D-4BF1-A51E-0DD85762D99E";
name = "Regular Aug 31 15, 23:29";
paths = (
{
closed = 1;
nodes = (
"323 186 OFFCURVE",
"299 224 OFFCURVE",
"278 246 CURVE",
"229 210 OFFCURVE",
"184 158 OFFCURVE",
"137 96 CURVE",
"134 92 OFFCURVE",
"117 96 OFFCURVE",
"114 91 CURVE SMOOTH",
"70 31 OFFCURVE",
"34 -60 OFFCURVE",
"18 -135 CURVE",
"38 -181 OFFCURVE",
"58 -206 OFFCURVE",
"79 -230 CURVE",
"119 -230 LINE",
"119 -181 OFFCURVE",
"151 -74 OFFCURVE",
"180 23 CURVE",
"333 155 LINE"
);
},
{
closed = 1;
nodes = (
"209 460 OFFCURVE",
"165 504 OFFCURVE",
"135 516 CURVE",
"0 450 LINE",
"3 419 OFFCURVE",
"20 382 OFFCURVE",
"29 366 CURVE",
"152 404 LINE",
"107 480 LINE",
"105 66 LINE",
"79 -230 LINE",
"109 -238 OFFCURVE",
"162 -238 OFFCURVE",
"192 -230 CURVE",
"199 63 LINE",
"191 95 LINE",
"231 424 LINE"
);
},
{
closed = 1;
nodes = (
"210 582 OFFCURVE",
"253 632 OFFCURVE",
"256 667 CURVE",
"249 698 OFFCURVE",
"194 742 OFFCURVE",
"163 743 CURVE",
"131 734 OFFCURVE",
"87 678 OFFCURVE",
"86 647 CURVE",
"113 617 OFFCURVE",
"144 592 OFFCURVE",
"180 573 CURVE"
);
}
);
width = 318;
}
);
leftKerningGroup = j;
leftMetricsKey = n;
rightKerningGroup = j;
unicode = 006A;
},
{
color = 4;
glyphname = k;
lastChange = "2020-11-19 14:18:12 +0000";
layers = (
{
anchors = (
{
name = bottom;
position = "{267, 0}";
},
{
name = top;
position = "{267, 500}";
}
);
background = {
paths = (
{
closed = 1;
nodes = (
"94 0 LINE",
"124 -8 OFFCURVE",
"167 -8 OFFCURVE",
"197 0 CURVE",
"197 263 LINE",
"186 295 LINE",
"218 764 LINE",
"200 782 OFFCURVE",
"145 814 OFFCURVE",
"125 816 CURVE",
"-10 750 LINE",
"-7 719 OFFCURVE",
"10 688 OFFCURVE",
"19 672 CURVE",
"143 704 LINE",
"98 780 LINE",
"91 256 LINE",
"74 66 LINE"
);
}
);
};
layerId = "B08EA6CB-0345-4FE8-BF44-53271D6C1876";
paths = (
{
closed = 1;
nodes = (
"437 98 LINE",
"390 167 OFFCURVE",
"360 250 OFFCURVE",
"351 306 CURVE",
"397 333 OFFCURVE",
"449 360 OFFCURVE",
"511 389 CURVE",
"510 428 OFFCURVE",
"496 472 OFFCURVE",
"474 500 CURVE",
"444 507 OFFCURVE",
"398 504 OFFCURVE",
"368 496 CURVE",
"344 466 OFFCURVE",
"332 441 OFFCURVE",
"323 415 CURVE",
"279 385 OFFCURVE",
"233 350 OFFCURVE",
"190 312 CURVE",
"218 764 LINE",
"200 782 OFFCURVE",
"145 814 OFFCURVE",
"125 816 CURVE",
"-10 750 LINE",
"-7 719 OFFCURVE",
"10 688 OFFCURVE",
"19 672 CURVE",
"97 692 LINE",
"91 256 LINE",
"86 196 LINE",
"61 160 OFFCURVE",
"43 122 OFFCURVE",
"36 85 CURVE",
"51 51 OFFCURVE",
"70 23 OFFCURVE",
"94 0 CURVE",
"124 -8 OFFCURVE",
"177 -8 OFFCURVE",
"207 0 CURVE",
"200 181 LINE",
"218 205 OFFCURVE",
"239 227 OFFCURVE",
"263 246 CURVE",
"267 171 OFFCURVE",
"289 113 OFFCURVE",
"303 72 CURVE",
"333 39 OFFCURVE",
"394 -2 OFFCURVE",
"454 -16 CURVE",
"569 48 LINE",
"566 79 OFFCURVE",
"551 116 OFFCURVE",
"540 132 CURVE"
);
}
);
width = 559;
},
{
associatedMasterId = "B08EA6CB-0345-4FE8-BF44-53271D6C1876";
layerId = "153F907A-4B05-40B8-A2B8-B27438D041DA";
name = "Regular Jul 15 15, 16:30";
paths = (
{
closed = 1;
nodes = (
"139 -8 OFFCURVE",
"192 -8 OFFCURVE",
"222 0 CURVE",
"219 413 LINE",
"228 764 LINE",
"210 779 OFFCURVE",
"155 814 OFFCURVE",
"135 816 CURVE",
"0 750 LINE",
"3 719 OFFCURVE",
"20 682 OFFCURVE",
"29 666 CURVE",
"153 703 LINE",
"108 780 LINE",
"118 406 LINE",
"109 0 LINE"
);
},
{
closed = 1;
nodes = (
"436 640 OFFCURVE",
"108 328 OFFCURVE",
"58 85 CURVE",
"61 70 OFFCURVE",
"88 24 OFFCURVE",
"109 0 CURVE",
"149 0 LINE",
"149 143 OFFCURVE",
"392 478 OFFCURVE",
"483 500 CURVE",
"530 640 LINE"
);
}
);
width = 600;
},
{
associatedMasterId = "B08EA6CB-0345-4FE8-BF44-53271D6C1876";
background = {
paths = (
{
closed = 1;
nodes = (
"385 550 OFFCURVE",
"108 328 OFFCURVE",
"58 85 CURVE",
"61 70 OFFCURVE",
"88 24 OFFCURVE",
"109 0 CURVE",
"149 0 LINE",
"206 275 OFFCURVE",
"377 423 OFFCURVE",
"499 515 CURVE",
"503 557 OFFCURVE",
"503 598 OFFCURVE",
"499 640 CURVE"
);
},
{
closed = 1;
nodes = (
"273 434 OFFCURVE",
"221 173 OFFCURVE",
"318 56 CURVE",
"348 21 OFFCURVE",
"400 -14 OFFCURVE",
"457 -14 CURVE",
"593 52 LINE",
"590 83 OFFCURVE",
"573 115 OFFCURVE",
"564 131 CURVE",
"405 90 LINE",
"470 39 LINE",
"283 186 OFFCURVE",
"419 493 OFFCURVE",
"499 640 CURVE",
"469 646 OFFCURVE",
"440 646 OFFCURVE",
"410 640 CURVE"
);
},
{
closed = 1;
nodes = (
"210 779 OFFCURVE",
"155 814 OFFCURVE",
"135 816 CURVE",
"0 750 LINE",
"3 719 OFFCURVE",
"20 688 OFFCURVE",
"29 672 CURVE",
"153 704 LINE",
"108 780 LINE",
"118 256 LINE",
"109 0 LINE",
"139 -8 OFFCURVE",
"192 -8 OFFCURVE",
"222 0 CURVE",
"219 263 LINE",
"209 295 LINE",
"228 764 LINE"
);
}
);
};
layerId = "6CAF50AF-ACA8-4A0F-89FD-72F2AC54D253";
name = "Regular Jul 15 15, 17:27";
paths = (
{
closed = 1;
nodes = (
"385 550 OFFCURVE",
"108 328 OFFCURVE",
"58 85 CURVE",
"61 70 OFFCURVE",
"88 24 OFFCURVE",
"109 0 CURVE",
"149 0 LINE",
"206 275 OFFCURVE",
"377 423 OFFCURVE",
"499 515 CURVE",
"503 557 OFFCURVE",
"503 598 OFFCURVE",
"499 640 CURVE"
);
},
{
closed = 1;
nodes = (
"273 434 OFFCURVE",
"221 173 OFFCURVE",
"318 56 CURVE",
"348 21 OFFCURVE",
"400 -14 OFFCURVE",
"457 -14 CURVE",
"593 52 LINE",
"590 83 OFFCURVE",
"573 115 OFFCURVE",
"564 131 CURVE",
"405 90 LINE",
"470 39 LINE",
"283 186 OFFCURVE",
"419 493 OFFCURVE",
"499 640 CURVE",
"469 646 OFFCURVE",
"440 646 OFFCURVE",
"410 640 CURVE"
);
},
{
closed = 1;
nodes = (
"210 779 OFFCURVE",
"155 814 OFFCURVE",
"135 816 CURVE",
"0 750 LINE",
"3 719 OFFCURVE",
"20 688 OFFCURVE",
"29 672 CURVE",
"153 704 LINE",
"108 780 LINE",
"118 256 LINE",
"109 0 LINE",
"139 -8 OFFCURVE",
"192 -8 OFFCURVE",
"222 0 CURVE",
"219 263 LINE",
"209 295 LINE",
"228 764 LINE"
);
}
);
width = 600;
},
{
associatedMasterId = "B08EA6CB-0345-4FE8-BF44-53271D6C1876";
background = {
paths = (
{
closed = 1;
nodes = (
"385 550 OFFCURVE",
"108 328 OFFCURVE",
"58 85 CURVE",
"61 70 OFFCURVE",
"88 24 OFFCURVE",
"109 0 CURVE",
"149 0 LINE",
"206 275 OFFCURVE",
"384 403 OFFCURVE",
"506 495 CURVE",
"510 537 OFFCURVE",
"503 598 OFFCURVE",
"499 640 CURVE"
);
},
{
closed = 1;
nodes = (
"269 477 OFFCURVE",
"221 173 OFFCURVE",
"318 56 CURVE",
"348 21 OFFCURVE",
"400 -14 OFFCURVE",
"457 -14 CURVE",
"593 52 LINE",
"590 83 OFFCURVE",
"573 115 OFFCURVE",
"564 131 CURVE",
"405 90 LINE",
"470 39 LINE",
"283 186 OFFCURVE",
"419 493 OFFCURVE",
"499 640 CURVE",
"469 646 OFFCURVE",
"436 646 OFFCURVE",
"406 640 CURVE"
);
},
{
closed = 1;
nodes = (
"210 779 OFFCURVE",
"155 814 OFFCURVE",
"135 816 CURVE",
"0 750 LINE",
"3 719 OFFCURVE",
"20 688 OFFCURVE",
"29 672 CURVE",
"153 704 LINE",
"108 780 LINE",
"118 256 LINE",
"109 0 LINE",
"139 -8 OFFCURVE",
"192 -8 OFFCURVE",
"222 0 CURVE",
"219 263 LINE",
"209 295 LINE",
"228 764 LINE"
);
}
);
};
layerId = "83438929-B913-49E0-8BB1-239C65E027A4";
name = "Regular Jul 15 15, 17:28";
paths = (
{
closed = 1;
nodes = (
"385 550 OFFCURVE",
"108 328 OFFCURVE",
"58 85 CURVE",
"61 70 OFFCURVE",
"88 24 OFFCURVE",
"109 0 CURVE",
"149 0 LINE",
"206 275 OFFCURVE",
"384 403 OFFCURVE",
"506 495 CURVE",
"510 537 OFFCURVE",
"503 598 OFFCURVE",
"499 640 CURVE"
);
},
{
closed = 1;
nodes = (
"269 477 OFFCURVE",
"254 200 OFFCURVE",
"318 56 CURVE",
"348 21 OFFCURVE",
"400 -14 OFFCURVE",
"457 -14 CURVE",
"593 52 LINE",
"590 83 OFFCURVE",
"573 115 OFFCURVE",
"564 131 CURVE",
"405 90 LINE",
"489 39 LINE",
"302 186 OFFCURVE",
"419 493 OFFCURVE",
"499 640 CURVE",
"469 646 OFFCURVE",
"436 646 OFFCURVE",
"406 640 CURVE"
);
},
{
closed = 1;
nodes = (
"210 779 OFFCURVE",
"155 814 OFFCURVE",
"135 816 CURVE",
"0 750 LINE",
"3 719 OFFCURVE",
"20 688 OFFCURVE",
"29 672 CURVE",
"153 704 LINE",
"108 780 LINE",
"118 256 LINE",
"109 0 LINE",
"139 -8 OFFCURVE",
"192 -8 OFFCURVE",
"222 0 CURVE",
"219 263 LINE",
"209 295 LINE",
"228 764 LINE"
);
}
);
width = 600;
},
{
associatedMasterId = "B08EA6CB-0345-4FE8-BF44-53271D6C1876";
background = {
paths = (
{
closed = 1;
nodes = (
"385 550 OFFCURVE",
"108 328 OFFCURVE",
"58 85 CURVE",
"61 70 OFFCURVE",
"88 24 OFFCURVE",
"109 0 CURVE",
"149 0 LINE",
"206 275 OFFCURVE",
"384 403 OFFCURVE",
"506 495 CURVE",
"510 537 OFFCURVE",
"503 598 OFFCURVE",
"499 640 CURVE"
);
},
{
closed = 1;
nodes = (
"269 477 OFFCURVE",
"221 173 OFFCURVE",
"318 56 CURVE",
"348 21 OFFCURVE",
"400 -14 OFFCURVE",
"457 -14 CURVE",
"593 52 LINE",
"590 83 OFFCURVE",
"573 115 OFFCURVE",
"564 131 CURVE",
"405 90 LINE",
"470 39 LINE",
"283 186 OFFCURVE",
"419 493 OFFCURVE",
"499 640 CURVE",
"469 646 OFFCURVE",
"436 646 OFFCURVE",
"406 640 CURVE"
);
},
{
closed = 1;
nodes = (
"210 779 OFFCURVE",
"155 814 OFFCURVE",
"135 816 CURVE",
"0 750 LINE",
"3 719 OFFCURVE",
"20 688 OFFCURVE",
"29 672 CURVE",
"153 704 LINE",
"108 780 LINE",
"118 256 LINE",
"109 0 LINE",
"139 -8 OFFCURVE",
"192 -8 OFFCURVE",
"222 0 CURVE",
"219 263 LINE",
"209 295 LINE",
"228 764 LINE"
);
}
);
};
layerId = "DEAEDDB3-BB87-4376-A94C-CFA4FA53FBE0";
name = "Regular Jul 15 15, 17:29";
paths = (
{
closed = 1;
nodes = (
"405 550 OFFCURVE",
"108 328 OFFCURVE",
"58 85 CURVE",
"61 70 OFFCURVE",
"88 24 OFFCURVE",
"109 0 CURVE",
"149 0 LINE",
"206 275 OFFCURVE",
"404 403 OFFCURVE",
"526 495 CURVE",
"530 537 OFFCURVE",
"523 598 OFFCURVE",
"519 640 CURVE"
);
},
{
closed = 1;
nodes = (
"373 577 OFFCURVE",
"336 498 OFFCURVE",
"313 416 CURVE SMOOTH",
"277 284 OFFCURVE",
"279 145 OFFCURVE",
"318 56 CURVE",
"348 23 OFFCURVE",
"400 -10 OFFCURVE",
"457 -14 CURVE",
"593 52 LINE",
"590 83 OFFCURVE",
"573 115 OFFCURVE",
"564 131 CURVE",
"405 90 LINE",
"489 39 LINE",
"302 186 OFFCURVE",
"439 493 OFFCURVE",
"519 640 CURVE",
"489 646 OFFCURVE",
"456 646 OFFCURVE",
"426 640 CURVE"
);
},
{
closed = 1;
nodes = (
"210 779 OFFCURVE",
"155 814 OFFCURVE",
"135 816 CURVE",
"0 750 LINE",
"3 719 OFFCURVE",
"20 688 OFFCURVE",
"29 672 CURVE",
"153 704 LINE",
"108 780 LINE",
"118 256 LINE",
"109 0 LINE",
"139 -8 OFFCURVE",
"192 -8 OFFCURVE",
"222 0 CURVE",
"219 263 LINE",
"209 295 LINE",
"228 764 LINE"
);
}
);
width = 600;
},
{
associatedMasterId = "B08EA6CB-0345-4FE8-BF44-53271D6C1876";
background = {
paths = (
{
closed = 1;
nodes = (
"405 550 OFFCURVE",
"98 307 OFFCURVE",
"48 85 CURVE",
"51 70 OFFCURVE",
"78 24 OFFCURVE",
"99 0 CURVE",
"139 0 LINE",
"196 275 OFFCURVE",
"422 426 OFFCURVE",
"544 518 CURVE",
"545 560 OFFCURVE",
"533 598 OFFCURVE",
"519 640 CURVE"
);
},
{
closed = 1;
nodes = (
"367 583 OFFCURVE",
"333 518 OFFCURVE",
"329 436 CURVE",
"310 375 LINE",
"271 256 OFFCURVE",
"273 156 OFFCURVE",
"308 76 CURVE",
"338 43 OFFCURVE",
"400 -10 OFFCURVE",
"457 -14 CURVE",
"593 52 LINE",
"590 83 OFFCURVE",
"573 115 OFFCURVE",
"564 131 CURVE",
"405 90 LINE",
"500 39 LINE",
"377 135 OFFCURVE",
"383 301 OFFCURVE",
"412 444 CURVE",
"457 520 OFFCURVE",
"491 589 OFFCURVE",
"519 640 CURVE",
"489 646 OFFCURVE",
"456 646 OFFCURVE",
"426 640 CURVE"
);
},
{
closed = 1;
nodes = (
"200 779 OFFCURVE",
"145 814 OFFCURVE",
"125 816 CURVE",
"-10 750 LINE",
"-7 719 OFFCURVE",
"10 688 OFFCURVE",
"19 672 CURVE",
"143 704 LINE",
"98 780 LINE",
"108 256 LINE",
"99 0 LINE",
"129 -8 OFFCURVE",
"182 -8 OFFCURVE",
"212 0 CURVE",
"209 263 LINE",
"199 295 LINE",
"218 764 LINE"
);
}
);
};
layerId = "92A6BB12-4DAB-4DFE-AB69-D31E7E380AB1";
name = "Regular Jul 15 15, 17:38";
paths = (
{
closed = 1;
nodes = (
"405 550 OFFCURVE",
"98 307 OFFCURVE",
"48 85 CURVE",
"51 70 OFFCURVE",
"78 24 OFFCURVE",
"99 0 CURVE",
"139 0 LINE",
"196 275 OFFCURVE",
"422 426 OFFCURVE",
"544 518 CURVE",
"545 560 OFFCURVE",
"533 598 OFFCURVE",
"519 640 CURVE"
);
},
{
closed = 1;
nodes = (
"367 583 OFFCURVE",
"333 518 OFFCURVE",
"329 436 CURVE",
"310 375 LINE",
"271 256 OFFCURVE",
"273 156 OFFCURVE",
"308 76 CURVE",
"338 43 OFFCURVE",
"400 -10 OFFCURVE",
"457 -14 CURVE",
"593 52 LINE",
"590 83 OFFCURVE",
"573 115 OFFCURVE",
"564 131 CURVE",
"405 90 LINE",
"500 39 LINE",
"377 135 OFFCURVE",
"383 301 OFFCURVE",
"412 444 CURVE",
"457 520 OFFCURVE",
"491 589 OFFCURVE",
"519 640 CURVE",
"489 646 OFFCURVE",
"456 646 OFFCURVE",
"426 640 CURVE"
);
},
{
closed = 1;
nodes = (
"200 779 OFFCURVE",
"145 814 OFFCURVE",
"125 816 CURVE",
"-10 750 LINE",
"-7 719 OFFCURVE",
"10 688 OFFCURVE",
"19 672 CURVE",
"143 704 LINE",
"98 780 LINE",
"108 256 LINE",
"99 0 LINE",
"129 -8 OFFCURVE",
"182 -8 OFFCURVE",
"212 0 CURVE",
"209 263 LINE",
"199 295 LINE",
"218 764 LINE"
);
}
);
width = 583;
},
{
associatedMasterId = "B08EA6CB-0345-4FE8-BF44-53271D6C1876";
background = {
paths = (
{
closed = 1;
nodes = (
"405 550 OFFCURVE",
"98 307 OFFCURVE",
"48 85 CURVE",
"51 70 OFFCURVE",
"78 24 OFFCURVE",
"99 0 CURVE",
"139 0 LINE",
"196 275 OFFCURVE",
"422 426 OFFCURVE",
"544 518 CURVE",
"545 560 OFFCURVE",
"533 598 OFFCURVE",
"519 640 CURVE"
);
},
{
closed = 1;
nodes = (
"367 583 OFFCURVE",
"333 518 OFFCURVE",
"329 436 CURVE",
"310 375 LINE",
"271 256 OFFCURVE",
"273 156 OFFCURVE",
"308 76 CURVE",
"338 43 OFFCURVE",
"400 -10 OFFCURVE",
"457 -14 CURVE",
"593 52 LINE",
"590 83 OFFCURVE",
"573 115 OFFCURVE",
"564 131 CURVE",
"405 90 LINE",
"500 39 LINE",
"377 135 OFFCURVE",
"383 301 OFFCURVE",
"412 444 CURVE",
"457 520 OFFCURVE",
"491 589 OFFCURVE",
"519 640 CURVE",
"489 646 OFFCURVE",
"456 646 OFFCURVE",
"426 640 CURVE"
);
},
{
closed = 1;
nodes = (
"200 779 OFFCURVE",
"145 814 OFFCURVE",
"125 816 CURVE",
"-10 750 LINE",
"-7 719 OFFCURVE",
"10 688 OFFCURVE",
"19 672 CURVE",
"143 704 LINE",
"98 780 LINE",
"108 256 LINE",
"99 0 LINE",
"129 -8 OFFCURVE",
"182 -8 OFFCURVE",
"212 0 CURVE",
"209 263 LINE",
"199 295 LINE",
"218 764 LINE"
);
}
);
};
layerId = "4CE6B0C6-CCED-4C3C-8565-EC689B091061";
name = "Regular Jul 15 15, 17:40";
paths = (
{
closed = 1;
nodes = (
"405 550 OFFCURVE",
"108 297 OFFCURVE",
"48 85 CURVE",
"51 70 OFFCURVE",
"78 24 OFFCURVE",
"99 0 CURVE",
"139 0 LINE",
"196 275 OFFCURVE",
"422 426 OFFCURVE",
"544 518 CURVE",
"545 560 OFFCURVE",
"533 598 OFFCURVE",
"519 640 CURVE"
);
},
{
closed = 1;
nodes = (
"367 583 OFFCURVE",
"333 518 OFFCURVE",
"329 436 CURVE",
"310 375 LINE",
"271 256 OFFCURVE",
"273 156 OFFCURVE",
"308 76 CURVE",
"338 43 OFFCURVE",
"400 -10 OFFCURVE",
"457 -14 CURVE",
"593 52 LINE",
"590 83 OFFCURVE",
"573 115 OFFCURVE",
"564 131 CURVE",
"405 90 LINE",
"500 39 LINE",
"377 135 OFFCURVE",
"383 301 OFFCURVE",
"412 444 CURVE",
"457 520 OFFCURVE",
"491 589 OFFCURVE",
"519 640 CURVE",
"489 646 OFFCURVE",
"456 646 OFFCURVE",
"426 640 CURVE"
);
},
{
closed = 1;
nodes = (
"200 779 OFFCURVE",
"145 814 OFFCURVE",
"125 816 CURVE",
"-10 750 LINE",
"-7 719 OFFCURVE",
"10 688 OFFCURVE",
"19 672 CURVE",
"143 704 LINE",
"98 780 LINE",
"108 256 LINE",
"99 0 LINE",
"129 -8 OFFCURVE",
"182 -8 OFFCURVE",
"212 0 CURVE",
"209 263 LINE",
"199 295 LINE",
"218 764 LINE"
);
}
);
width = 583;
},
{
associatedMasterId = "B08EA6CB-0345-4FE8-BF44-53271D6C1876";
background = {
paths = (
{
closed = 1;
nodes = (
"405 550 OFFCURVE",
"98 307 OFFCURVE",
"48 85 CURVE",
"51 70 OFFCURVE",
"78 24 OFFCURVE",
"99 0 CURVE",
"139 0 LINE",
"196 275 OFFCURVE",
"422 426 OFFCURVE",
"544 518 CURVE",
"545 560 OFFCURVE",
"533 598 OFFCURVE",
"519 640 CURVE"
);
},
{
closed = 1;
nodes = (
"367 583 OFFCURVE",
"333 518 OFFCURVE",
"329 436 CURVE",
"310 375 LINE",
"271 256 OFFCURVE",
"273 156 OFFCURVE",
"308 76 CURVE",
"338 43 OFFCURVE",
"400 -10 OFFCURVE",
"457 -14 CURVE",
"593 52 LINE",
"590 83 OFFCURVE",
"573 115 OFFCURVE",
"564 131 CURVE",
"405 90 LINE",
"500 39 LINE",
"377 135 OFFCURVE",
"383 301 OFFCURVE",
"412 444 CURVE",
"457 520 OFFCURVE",
"491 589 OFFCURVE",
"519 640 CURVE",
"489 646 OFFCURVE",
"456 646 OFFCURVE",
"426 640 CURVE"
);
},
{
closed = 1;
nodes = (
"200 779 OFFCURVE",
"145 814 OFFCURVE",
"125 816 CURVE",
"-10 750 LINE",
"-7 719 OFFCURVE",
"10 688 OFFCURVE",
"19 672 CURVE",
"143 704 LINE",
"98 780 LINE",
"108 256 LINE",
"99 0 LINE",
"129 -8 OFFCURVE",
"182 -8 OFFCURVE",
"212 0 CURVE",
"209 263 LINE",
"199 295 LINE",
"218 764 LINE"
);
}
);
};
layerId = "781E7F0B-1E18-445B-9B78-14E135CEB6D8";
name = "Regular Jul 15 15, 17:41";
paths = (
{
closed = 1;
nodes = (
"417 551 OFFCURVE",
"108 297 OFFCURVE",
"48 85 CURVE",
"51 70 OFFCURVE",
"78 24 OFFCURVE",
"99 0 CURVE",
"139 0 LINE",
"196 275 OFFCURVE",
"428 426 OFFCURVE",
"555 514 CURVE",
"558 556 OFFCURVE",
"548 594 OFFCURVE",
"536 637 CURVE"
);
},
{
closed = 1;
nodes = (
"381 585 OFFCURVE",
"344 521 OFFCURVE",
"335 439 CURVE",
"313 379 LINE",
"274 260 OFFCURVE",
"261 161 OFFCURVE",
"296 81 CURVE",
"324 47 OFFCURVE",
"383 -8 OFFCURVE",
"440 -14 CURVE",
"579 47 LINE",
"578 78 OFFCURVE",
"562 110 OFFCURVE",
"554 127 CURVE",
"393 91 LINE",
"486 37 LINE",
"368 137 OFFCURVE",
"382 303 OFFCURVE",
"419 445 CURVE",
"468 519 OFFCURVE",
"505 587 OFFCURVE",
"536 637 CURVE",
"506 644 OFFCURVE",
"473 645 OFFCURVE",
"443 640 CURVE"
);
},
{
closed = 1;
nodes = (
"200 779 OFFCURVE",
"145 814 OFFCURVE",
"125 816 CURVE",
"-10 750 LINE",
"-7 719 OFFCURVE",
"10 688 OFFCURVE",
"19 672 CURVE",
"143 704 LINE",
"98 780 LINE",
"108 256 LINE",
"99 0 LINE",
"129 -8 OFFCURVE",
"182 -8 OFFCURVE",
"212 0 CURVE",
"209 263 LINE",
"199 295 LINE",
"218 764 LINE"
);
}
);
width = 583;
},
{
associatedMasterId = "B08EA6CB-0345-4FE8-BF44-53271D6C1876";
background = {
paths = (
{
closed = 1;
nodes = (
"405 550 OFFCURVE",
"98 307 OFFCURVE",
"48 85 CURVE",
"51 70 OFFCURVE",
"78 24 OFFCURVE",
"99 0 CURVE",
"139 0 LINE",
"196 275 OFFCURVE",
"422 426 OFFCURVE",
"544 518 CURVE",
"545 560 OFFCURVE",
"533 598 OFFCURVE",
"519 640 CURVE"
);
},
{
closed = 1;
nodes = (
"367 583 OFFCURVE",
"333 518 OFFCURVE",
"329 436 CURVE",
"310 375 LINE",
"271 256 OFFCURVE",
"273 156 OFFCURVE",
"308 76 CURVE",
"338 43 OFFCURVE",
"400 -10 OFFCURVE",
"457 -14 CURVE",
"593 52 LINE",
"590 83 OFFCURVE",
"573 115 OFFCURVE",
"564 131 CURVE",
"405 90 LINE",
"500 39 LINE",
"377 135 OFFCURVE",
"383 301 OFFCURVE",
"412 444 CURVE",
"457 520 OFFCURVE",
"491 589 OFFCURVE",
"519 640 CURVE",
"489 646 OFFCURVE",
"456 646 OFFCURVE",
"426 640 CURVE"
);
},
{
closed = 1;
nodes = (
"200 779 OFFCURVE",
"145 814 OFFCURVE",
"125 816 CURVE",
"-10 750 LINE",
"-7 719 OFFCURVE",
"10 688 OFFCURVE",
"19 672 CURVE",
"143 704 LINE",
"98 780 LINE",
"108 256 LINE",
"99 0 LINE",
"129 -8 OFFCURVE",
"182 -8 OFFCURVE",
"212 0 CURVE",
"209 263 LINE",
"199 295 LINE",
"218 764 LINE"
);
}
);
};
layerId = "1FEB747F-D92A-4287-A35F-651480211640";
name = "Regular Jul 15 15, 17:42";
paths = (
{
closed = 1;
nodes = (
"417 551 OFFCURVE",
"108 297 OFFCURVE",
"48 85 CURVE",
"51 70 OFFCURVE",
"78 24 OFFCURVE",
"99 0 CURVE",
"139 0 LINE",
"196 275 OFFCURVE",
"428 426 OFFCURVE",
"555 514 CURVE",
"558 556 OFFCURVE",
"548 594 OFFCURVE",
"536 637 CURVE"
);
},
{
closed = 1;
nodes = (
"381 585 OFFCURVE",
"344 521 OFFCURVE",
"335 439 CURVE",
"313 379 LINE",
"274 260 OFFCURVE",
"261 161 OFFCURVE",
"296 81 CURVE",
"324 47 OFFCURVE",
"383 -8 OFFCURVE",
"440 -14 CURVE",
"579 47 LINE",
"578 78 OFFCURVE",
"562 110 OFFCURVE",
"554 127 CURVE",
"393 91 LINE",
"486 37 LINE",
"368 137 OFFCURVE",
"382 303 OFFCURVE",
"419 445 CURVE",
"468 519 OFFCURVE",
"505 587 OFFCURVE",
"536 637 CURVE",
"506 644 OFFCURVE",
"473 645 OFFCURVE",
"443 640 CURVE"
);
},
{
closed = 1;
nodes = (
"200 779 OFFCURVE",
"145 814 OFFCURVE",
"125 816 CURVE",
"-10 750 LINE",
"-7 719 OFFCURVE",
"10 688 OFFCURVE",
"19 672 CURVE",
"143 704 LINE",
"98 780 LINE",
"108 256 LINE",
"99 0 LINE",
"129 -8 OFFCURVE",
"182 -8 OFFCURVE",
"212 0 CURVE",
"209 263 LINE",
"199 295 LINE",
"218 764 LINE"
);
}
);
width = 583;
},
{
associatedMasterId = "B08EA6CB-0345-4FE8-BF44-53271D6C1876";
background = {
paths = (
{
closed = 1;
nodes = (
"405 550 OFFCURVE",
"98 307 OFFCURVE",
"48 85 CURVE",
"51 70 OFFCURVE",
"78 24 OFFCURVE",
"99 0 CURVE",
"139 0 LINE",
"196 275 OFFCURVE",
"422 426 OFFCURVE",
"544 518 CURVE",
"545 560 OFFCURVE",
"533 598 OFFCURVE",
"519 640 CURVE"
);
},
{
closed = 1;
nodes = (
"367 583 OFFCURVE",
"333 518 OFFCURVE",
"329 436 CURVE",
"310 375 LINE",
"271 256 OFFCURVE",
"273 156 OFFCURVE",
"308 76 CURVE",
"338 43 OFFCURVE",
"400 -10 OFFCURVE",
"457 -14 CURVE",
"593 52 LINE",
"590 83 OFFCURVE",
"573 115 OFFCURVE",
"564 131 CURVE",
"405 90 LINE",
"500 39 LINE",
"377 135 OFFCURVE",
"383 301 OFFCURVE",
"412 444 CURVE",
"457 520 OFFCURVE",
"491 589 OFFCURVE",
"519 640 CURVE",
"489 646 OFFCURVE",
"456 646 OFFCURVE",
"426 640 CURVE"
);
},
{
closed = 1;
nodes = (
"200 779 OFFCURVE",
"145 814 OFFCURVE",
"125 816 CURVE",
"-10 750 LINE",
"-7 719 OFFCURVE",
"10 688 OFFCURVE",
"19 672 CURVE",
"143 704 LINE",
"98 780 LINE",
"108 256 LINE",
"99 0 LINE",
"129 -8 OFFCURVE",
"182 -8 OFFCURVE",
"212 0 CURVE",
"209 263 LINE",
"199 295 LINE",
"218 764 LINE"
);
}
);
};
layerId = "45121515-FAFC-4F2F-BF4A-27CAFC0DA504";
name = "Regular Jul 15 15, 18:08";
paths = (
{
closed = 1;
nodes = (
"405 440 OFFCURVE",
"108 297 OFFCURVE",
"48 85 CURVE",
"51 70 OFFCURVE",
"78 24 OFFCURVE",
"99 0 CURVE",
"139 0 LINE",
"196 275 OFFCURVE",
"422 329 OFFCURVE",
"544 378 CURVE",
"545 420 OFFCURVE",
"533 458 OFFCURVE",
"519 500 CURVE"
);
},
{
closed = 1;
nodes = (
"363 437 OFFCURVE",
"349 398 OFFCURVE",
"329 316 CURVE",
"276 226 OFFCURVE",
"280 164 OFFCURVE",
"308 76 CURVE",
"338 43 OFFCURVE",
"400 -10 OFFCURVE",
"457 -14 CURVE",
"593 52 LINE",
"590 83 OFFCURVE",
"573 115 OFFCURVE",
"564 131 CURVE",
"405 90 LINE",
"500 39 LINE",
"377 135 OFFCURVE",
"383 181 OFFCURVE",
"412 324 CURVE",
"457 400 OFFCURVE",
"491 449 OFFCURVE",
"519 500 CURVE",
"489 506 OFFCURVE",
"443 506 OFFCURVE",
"413 500 CURVE"
);
},
{
closed = 1;
nodes = (
"200 779 OFFCURVE",
"145 814 OFFCURVE",
"125 816 CURVE",
"-10 750 LINE",
"-7 719 OFFCURVE",
"10 688 OFFCURVE",
"19 672 CURVE",
"143 704 LINE",
"98 780 LINE",
"108 256 LINE",
"99 0 LINE",
"129 -8 OFFCURVE",
"182 -8 OFFCURVE",
"212 0 CURVE",
"209 263 LINE",
"199 295 LINE",
"218 764 LINE"
);
}
);
width = 583;
},
{
anchors = (
{
name = bottom;
position = "{287, 0}";
},
{
name = top;
position = "{287, 500}";
}
);
associatedMasterId = "B08EA6CB-0345-4FE8-BF44-53271D6C1876";
background = {
paths = (
{
closed = 1;
nodes = (
"114 0 LINE",
"144 -8 OFFCURVE",
"187 -8 OFFCURVE",
"217 0 CURVE",
"217 263 LINE",
"206 295 LINE",
"238 764 LINE",
"220 782 OFFCURVE",
"165 814 OFFCURVE",
"145 816 CURVE",
"10 750 LINE",
"13 719 OFFCURVE",
"30 688 OFFCURVE",
"39 672 CURVE",
"163 704 LINE",
"118 780 LINE",
"111 256 LINE",
"94 66 LINE"
);
}
);
};
layerId = "A28E2153-CBBC-4378-B0A8-55313084D355";
name = "Regular Sep 27 15, 18:54";
paths = (
{
closed = 1;
nodes = (
"380 450 OFFCURVE",
"89 266 OFFCURVE",
"56 85 CURVE",
"71 51 OFFCURVE",
"90 23 OFFCURVE",
"114 0 CURVE",
"154 0 LINE",
"171 127 OFFCURVE",
"220 199 OFFCURVE",
"296 256 CURVE SMOOTH",
"359 303 OFFCURVE",
"432 342 OFFCURVE",
"531 389 CURVE",
"530 428 OFFCURVE",
"516 472 OFFCURVE",
"494 500 CURVE"
);
},
{
closed = 1;
nodes = (
"350 448 OFFCURVE",
"343 414 OFFCURVE",
"328 364 CURVE",
"287 326 LINE",
"271 212 OFFCURVE",
"305 127 OFFCURVE",
"323 72 CURVE",
"353 39 OFFCURVE",
"414 -2 OFFCURVE",
"474 -16 CURVE",
"589 48 LINE",
"586 79 OFFCURVE",
"571 116 OFFCURVE",
"560 132 CURVE",
"420 86 LINE",
"501 45 LINE",
"407 141 OFFCURVE",
"360 300 OFFCURVE",
"370 354 CURVE",
"422 381 LINE",
"450 427 OFFCURVE",
"474 463 OFFCURVE",
"494 500 CURVE",
"464 507 OFFCURVE",
"418 504 OFFCURVE",
"388 496 CURVE"
);
},
{
closed = 1;
nodes = (
"0 750 LINE",
"3 719 OFFCURVE",
"20 682 OFFCURVE",
"29 666 CURVE",
"153 703 LINE",
"118 780 LINE",
"111 256 LINE",
"94 66 LINE",
"114 0 LINE",
"144 -8 OFFCURVE",
"197 -8 OFFCURVE",
"227 0 CURVE",
"217 263 LINE",
"208 279 LINE",
"239 743 LINE",
"216 772 OFFCURVE",
"165 807 OFFCURVE",
"135 816 CURVE"
);
}
);
width = 574;
}
);
leftKerningGroup = l;
leftMetricsKey = h;
rightKerningGroup = k;
unicode = 006B;
},
{
color = 4;
glyphname = l;
lastChange = "2016-08-09 15:24:24 +0000";
layers = (
{
anchors = (
{
name = bottom;
position = "{163, 0}";
},
{
name = center;
position = "{142, 399}";
},
{
name = germinatedl;
position = "{179, 390}";
},
{
name = top;
position = "{143, 800}";
},
{
name = topright;
position = "{240, 500}";
}
);
background = {
paths = (
{
closed = 1;
nodes = (
"-10 750 LINE",
"-7 719 OFFCURVE",
"10 688 OFFCURVE",
"19 672 CURVE",
"143 704 LINE",
"98 780 LINE",
"91 256 LINE",
"74 66 LINE",
"94 0 LINE",
"124 -8 OFFCURVE",
"177 -8 OFFCURVE",
"207 0 CURVE",
"197 263 LINE",
"188 279 LINE",
"218 764 LINE",
"200 782 OFFCURVE",
"145 814 OFFCURVE",
"125 816 CURVE"
);
}
);
};
layerId = "B08EA6CB-0345-4FE8-BF44-53271D6C1876";
paths = (
{
closed = 1;
nodes = (
"194 106 LINE",
"186 394 LINE",
"229 764 LINE",
"211 782 OFFCURVE",
"145 814 OFFCURVE",
"125 816 CURVE",
"-10 750 LINE",
"-7 719 OFFCURVE",
"10 688 OFFCURVE",
"19 672 CURVE",
"97 692 LINE",
"89 403 LINE",
"68 75 LINE",
"86 40 OFFCURVE",
"125 7 OFFCURVE",
"175 -16 CURVE",
"310 50 LINE",
"307 81 OFFCURVE",
"292 113 OFFCURVE",
"281 129 CURVE"
);
}
);
width = 300;
},
{
associatedMasterId = "B08EA6CB-0345-4FE8-BF44-53271D6C1876";
layerId = "CAB1F0BC-53C7-4832-AD7A-DFFF49E37D93";
name = "Regular Jul 12 15, 19:06";
paths = (
{
closed = 1;
nodes = (
"136 -8 OFFCURVE",
"171 -8 OFFCURVE",
"201 0 CURVE",
"192 363 LINE",
"196 698 LINE",
"178 713 OFFCURVE",
"152 724 OFFCURVE",
"132 726 CURVE",
"5 700 LINE",
"7 688 OFFCURVE",
"10 665 OFFCURVE",
"16 653 CURVE",
"150 653 LINE",
"105 690 LINE",
"115 356 LINE",
"106 0 LINE"
);
}
);
width = 600;
},
{
associatedMasterId = "B08EA6CB-0345-4FE8-BF44-53271D6C1876";
background = {
paths = (
{
closed = 1;
nodes = (
"186 688 LINE",
"168 703 OFFCURVE",
"142 714 OFFCURVE",
"122 716 CURVE",
"-5 690 LINE",
"-3 678 OFFCURVE",
"0 655 OFFCURVE",
"6 643 CURVE",
"140 643 LINE",
"93 680 LINE",
"93 349 LINE",
"89 14 LINE",
"107 -1 OFFCURVE",
"135 -12 OFFCURVE",
"155 -14 CURVE",
"282 12 LINE",
"280 24 OFFCURVE",
"277 47 OFFCURVE",
"271 59 CURVE",
"137 59 LINE",
"182 22 LINE",
"172 353 LINE"
);
}
);
};
layerId = "FEB35498-C9D5-437C-B0A3-F61AB4198A0F";
name = "Regular Aug 20 15, 12:19";
paths = (
{
closed = 1;
nodes = (
"200 779 OFFCURVE",
"145 814 OFFCURVE",
"125 816 CURVE",
"-10 750 LINE",
"-7 719 OFFCURVE",
"10 688 OFFCURVE",
"19 672 CURVE",
"143 704 LINE",
"98 780 LINE",
"108 406 LINE",
"68 74 LINE",
"91 31 OFFCURVE",
"121 1 OFFCURVE",
"156 -16 CURVE",
"303 16 LINE",
"304 53 OFFCURVE",
"300 82 OFFCURVE",
"294 94 CURVE",
"185 97 LINE",
"210 52 LINE",
"209 413 LINE",
"218 764 LINE"
);
}
);
width = 288;
}
);
leftKerningGroup = l;
leftMetricsKey = h;
rightKerningGroup = l;
rightMetricsKey = n;
unicode = 006C;
},
{
color = 4;
glyphname = m;
lastChange = "2020-11-19 14:18:32 +0000";
layers = (
{
anchors = (
{
name = bottom;
position = "{419, 0}";
},
{
name = top;
position = "{439, 500}";
}
);
background = {
paths = (
{
closed = 1;
nodes = (
"458 100 LINE",
"487 52 LINE",
"507 395 LINE",
"495 442 OFFCURVE",
"450 500 OFFCURVE",
"420 516 CURVE",
"326 516 OFFCURVE",
"108 328 OFFCURVE",
"58 75 CURVE",
"71 47 OFFCURVE",
"88 22 OFFCURVE",
"109 0 CURVE",
"149 0 LINE",
"149 152 OFFCURVE",
"322 413 OFFCURVE",
"409 408 CURVE",
"367 437 LINE",
"394 390 OFFCURVE",
"407 215 OFFCURVE",
"364 64 CURVE",
"386 31 OFFCURVE",
"430 1 OFFCURVE",
"465 -16 CURVE",
"600 50 LINE",
"597 81 OFFCURVE",
"583 113 OFFCURVE",
"571 129 CURVE"
);
},
{
closed = 1;
nodes = (
"200 479 OFFCURVE",
"145 514 OFFCURVE",
"125 516 CURVE",
"-10 450 LINE",
"-7 419 OFFCURVE",
"10 388 OFFCURVE",
"19 372 CURVE",
"143 404 LINE",
"98 480 LINE",
"118 256 LINE",
"109 0 LINE",
"139 -8 OFFCURVE",
"182 -8 OFFCURVE",
"212 0 CURVE",
"219 263 LINE",
"209 295 LINE",
"218 464 LINE"
);
}
);
};
layerId = "B08EA6CB-0345-4FE8-BF44-53271D6C1876";
paths = (
{
closed = 1;
nodes = (
"747 108 LINE",
"764 395 LINE",
"752 442 OFFCURVE",
"707 500 OFFCURVE",
"677 516 CURVE",
"629 516 OFFCURVE",
"553 466 OFFCURVE",
"483 383 CURVE",
"472 430 OFFCURVE",
"423 499 OFFCURVE",
"390 516 CURVE",
"349 516 OFFCURVE",
"280 470 OFFCURVE",
"214 394 CURVE",
"218 464 LINE",
"200 479 OFFCURVE",
"145 514 OFFCURVE",
"125 516 CURVE",
"-10 450 LINE",
"-7 419 OFFCURVE",
"10 388 OFFCURVE",
"19 372 CURVE",
"106 394 LINE",
"118 256 LINE",
"118 248 LINE",
"91 195 OFFCURVE",
"70 137 OFFCURVE",
"58 75 CURVE",
"71 47 OFFCURVE",
"88 22 OFFCURVE",
"109 0 CURVE",
"139 -8 OFFCURVE",
"182 -8 OFFCURVE",
"212 0 CURVE",
"218 236 LINE",
"261 316 OFFCURVE",
"317 382 OFFCURVE",
"370 402 CURVE",
"380 359 OFFCURVE",
"385 290 OFFCURVE",
"380 216 CURVE",
"360 172 OFFCURVE",
"345 125 OFFCURVE",
"335 75 CURVE",
"348 47 OFFCURVE",
"365 22 OFFCURVE",
"386 0 CURVE",
"416 -8 OFFCURVE",
"459 -8 OFFCURVE",
"489 0 CURVE",
"495 243 LINE",
"537 321 OFFCURVE",
"591 383 OFFCURVE",
"637 402 CURVE",
"654 330 OFFCURVE",
"657 189 OFFCURVE",
"621 64 CURVE",
"643 31 OFFCURVE",
"687 1 OFFCURVE",
"722 -16 CURVE",
"857 50 LINE",
"854 81 OFFCURVE",
"840 113 OFFCURVE",
"828 129 CURVE"
);
}
);
width = 847;
},
{
associatedMasterId = "B08EA6CB-0345-4FE8-BF44-53271D6C1876";
layerId = "409DD61A-2C78-47E8-B08D-1ABF39C42628";
name = "Regular Jul 12 15, 20:17";
paths = (
{
closed = 1;
nodes = (
"136 -8 OFFCURVE",
"169 -8 OFFCURVE",
"199 0 CURVE",
"196 263 LINE",
"186 295 LINE",
"196 488 LINE",
"178 503 OFFCURVE",
"152 514 OFFCURVE",
"132 516 CURVE",
"5 490 LINE",
"7 478 OFFCURVE",
"10 455 OFFCURVE",
"16 443 CURVE",
"150 443 LINE",
"105 480 LINE",
"115 256 LINE",
"106 0 LINE"
);
},
{
closed = 1;
nodes = (
"283 516 OFFCURVE",
"145 308 OFFCURVE",
"95 35 CURVE",
"98 20 OFFCURVE",
"99 15 OFFCURVE",
"106 0 CURVE",
"146 0 LINE",
"146 143 OFFCURVE",
"259 394 OFFCURVE",
"410 416 CURVE",
"434 416 OFFCURVE",
"438 266 OFFCURVE",
"421 0 CURVE",
"451 -8 OFFCURVE",
"481 -8 OFFCURVE",
"511 0 CURVE",
"518 428 LINE",
"503 475 OFFCURVE",
"467 500 OFFCURVE",
"437 516 CURVE"
);
},
{
closed = 1;
nodes = (
"599 516 OFFCURVE",
"461 308 OFFCURVE",
"411 35 CURVE",
"414 20 OFFCURVE",
"415 15 OFFCURVE",
"422 0 CURVE",
"462 0 LINE",
"462 143 OFFCURVE",
"575 394 OFFCURVE",
"726 416 CURVE",
"750 416 OFFCURVE",
"754 266 OFFCURVE",
"737 0 CURVE",
"767 -8 OFFCURVE",
"797 -8 OFFCURVE",
"827 0 CURVE",
"834 428 LINE",
"819 475 OFFCURVE",
"783 500 OFFCURVE",
"753 516 CURVE"
);
}
);
width = 884;
},
{
associatedMasterId = "B08EA6CB-0345-4FE8-BF44-53271D6C1876";
background = {
paths = (
{
closed = 1;
nodes = (
"144 -8 OFFCURVE",
"197 -8 OFFCURVE",
"227 0 CURVE",
"224 263 LINE",
"214 295 LINE",
"224 488 LINE",
"206 503 OFFCURVE",
"160 514 OFFCURVE",
"140 516 CURVE",
"5 490 LINE",
"4 453 OFFCURVE",
"10 415 OFFCURVE",
"16 403 CURVE",
"158 403 LINE",
"113 480 LINE",
"123 256 LINE",
"114 0 LINE"
);
},
{
closed = 1;
nodes = (
"414 0 LINE",
"448 -5 OFFCURVE",
"502 -7 OFFCURVE",
"532 0 CURVE",
"532 395 LINE",
"520 442 OFFCURVE",
"475 500 OFFCURVE",
"445 516 CURVE",
"311 516 OFFCURVE",
"113 328 OFFCURVE",
"63 85 CURVE",
"66 70 OFFCURVE",
"93 24 OFFCURVE",
"114 0 CURVE",
"154 0 LINE",
"154 143 OFFCURVE",
"267 354 OFFCURVE",
"398 376 CURVE SMOOTH",
"421 380 OFFCURVE",
"439 223 OFFCURVE",
"370 75 CURVE"
);
},
{
closed = 1;
nodes = (
"675 50 OFFCURVE",
"689 15 OFFCURVE",
"702 -3 CURVE",
"736 -8 OFFCURVE",
"802 -7 OFFCURVE",
"832 0 CURVE",
"832 395 LINE",
"820 442 OFFCURVE",
"775 500 OFFCURVE",
"745 516 CURVE",
"611 516 OFFCURVE",
"413 328 OFFCURVE",
"363 85 CURVE",
"366 70 OFFCURVE",
"393 24 OFFCURVE",
"414 0 CURVE",
"454 0 LINE",
"454 143 OFFCURVE",
"567 354 OFFCURVE",
"698 376 CURVE SMOOTH",
"721 380 OFFCURVE",
"739 223 OFFCURVE",
"670 75 CURVE"
);
}
);
};
layerId = "A4A21643-56F9-4A13-9891-215C4B89DA4F";
name = "Regular Jul 12 15, 20:26";
paths = (
{
closed = 1;
nodes = (
"144 -8 OFFCURVE",
"197 -8 OFFCURVE",
"227 0 CURVE",
"224 263 LINE",
"214 295 LINE",
"224 488 LINE",
"206 503 OFFCURVE",
"160 514 OFFCURVE",
"140 516 CURVE",
"5 490 LINE",
"4 453 OFFCURVE",
"10 415 OFFCURVE",
"16 403 CURVE",
"158 403 LINE",
"113 480 LINE",
"123 256 LINE",
"114 0 LINE"
);
},
{
closed = 1;
nodes = (
"414 0 LINE",
"448 -5 OFFCURVE",
"502 -7 OFFCURVE",
"532 0 CURVE",
"532 395 LINE",
"520 442 OFFCURVE",
"475 500 OFFCURVE",
"445 516 CURVE",
"311 516 OFFCURVE",
"113 328 OFFCURVE",
"63 85 CURVE",
"66 70 OFFCURVE",
"93 24 OFFCURVE",
"114 0 CURVE",
"154 0 LINE",
"154 143 OFFCURVE",
"267 354 OFFCURVE",
"398 376 CURVE SMOOTH",
"421 380 OFFCURVE",
"439 223 OFFCURVE",
"370 75 CURVE"
);
},
{
closed = 1;
nodes = (
"675 50 OFFCURVE",
"689 15 OFFCURVE",
"702 -3 CURVE",
"736 -8 OFFCURVE",
"802 -7 OFFCURVE",
"832 0 CURVE",
"832 395 LINE",
"820 442 OFFCURVE",
"775 500 OFFCURVE",
"745 516 CURVE",
"611 516 OFFCURVE",
"413 328 OFFCURVE",
"363 85 CURVE",
"366 70 OFFCURVE",
"393 24 OFFCURVE",
"414 0 CURVE",
"454 0 LINE",
"454 143 OFFCURVE",
"567 354 OFFCURVE",
"698 376 CURVE SMOOTH",
"721 380 OFFCURVE",
"739 223 OFFCURVE",
"670 75 CURVE"
);
}
);
width = 879;
},
{
associatedMasterId = "B08EA6CB-0345-4FE8-BF44-53271D6C1876";
background = {
paths = (
{
closed = 1;
nodes = (
"144 -8 OFFCURVE",
"197 -8 OFFCURVE",
"227 0 CURVE",
"224 263 LINE",
"214 295 LINE",
"224 488 LINE",
"206 503 OFFCURVE",
"160 514 OFFCURVE",
"140 516 CURVE",
"5 490 LINE",
"4 453 OFFCURVE",
"10 415 OFFCURVE",
"16 403 CURVE",
"158 403 LINE",
"113 480 LINE",
"123 256 LINE",
"114 0 LINE"
);
},
{
closed = 1;
nodes = (
"414 0 LINE",
"448 -5 OFFCURVE",
"502 -7 OFFCURVE",
"532 0 CURVE",
"532 395 LINE",
"520 442 OFFCURVE",
"475 500 OFFCURVE",
"445 516 CURVE",
"311 516 OFFCURVE",
"113 328 OFFCURVE",
"63 85 CURVE",
"66 70 OFFCURVE",
"93 24 OFFCURVE",
"114 0 CURVE",
"154 0 LINE",
"154 143 OFFCURVE",
"267 354 OFFCURVE",
"398 376 CURVE SMOOTH",
"421 380 OFFCURVE",
"439 223 OFFCURVE",
"370 75 CURVE"
);
},
{
closed = 1;
nodes = (
"675 50 OFFCURVE",
"689 15 OFFCURVE",
"702 -3 CURVE",
"736 -8 OFFCURVE",
"802 -7 OFFCURVE",
"832 0 CURVE",
"832 395 LINE",
"820 442 OFFCURVE",
"775 500 OFFCURVE",
"745 516 CURVE",
"611 516 OFFCURVE",
"413 328 OFFCURVE",
"363 85 CURVE",
"366 70 OFFCURVE",
"393 24 OFFCURVE",
"414 0 CURVE",
"454 0 LINE",
"454 143 OFFCURVE",
"567 354 OFFCURVE",
"698 376 CURVE SMOOTH",
"721 380 OFFCURVE",
"739 223 OFFCURVE",
"670 75 CURVE"
);
}
);
};
layerId = "217E19BF-847E-48C6-AB8B-FF65E177A894";
name = "Regular Jul 12 15, 20:27";
paths = (
{
closed = 1;
nodes = (
"144 -8 OFFCURVE",
"197 -8 OFFCURVE",
"227 0 CURVE",
"224 263 LINE",
"214 295 LINE",
"224 488 LINE",
"206 503 OFFCURVE",
"160 514 OFFCURVE",
"140 516 CURVE",
"5 490 LINE",
"4 453 OFFCURVE",
"10 415 OFFCURVE",
"16 403 CURVE",
"158 403 LINE",
"113 480 LINE",
"123 256 LINE",
"114 0 LINE"
);
},
{
closed = 1;
nodes = (
"414 0 LINE",
"448 -5 OFFCURVE",
"502 -7 OFFCURVE",
"532 0 CURVE",
"532 395 LINE",
"520 442 OFFCURVE",
"475 500 OFFCURVE",
"445 516 CURVE",
"311 516 OFFCURVE",
"113 328 OFFCURVE",
"63 85 CURVE",
"66 70 OFFCURVE",
"93 24 OFFCURVE",
"114 0 CURVE",
"154 0 LINE",
"154 143 OFFCURVE",
"267 354 OFFCURVE",
"398 376 CURVE SMOOTH",
"421 380 OFFCURVE",
"439 223 OFFCURVE",
"370 75 CURVE"
);
},
{
closed = 1;
nodes = (
"675 50 OFFCURVE",
"689 15 OFFCURVE",
"702 -3 CURVE",
"736 -8 OFFCURVE",
"802 -7 OFFCURVE",
"832 0 CURVE",
"832 395 LINE",
"820 442 OFFCURVE",
"775 500 OFFCURVE",
"745 516 CURVE",
"611 516 OFFCURVE",
"413 328 OFFCURVE",
"363 85 CURVE",
"366 70 OFFCURVE",
"393 24 OFFCURVE",
"414 0 CURVE",
"454 0 LINE",
"454 143 OFFCURVE",
"567 354 OFFCURVE",
"698 376 CURVE SMOOTH",
"721 380 OFFCURVE",
"739 223 OFFCURVE",
"670 75 CURVE"
);
}
);
width = 879;
},
{
associatedMasterId = "B08EA6CB-0345-4FE8-BF44-53271D6C1876";
background = {
paths = (
{
closed = 1;
nodes = (
"144 -8 OFFCURVE",
"197 -8 OFFCURVE",
"227 0 CURVE",
"224 263 LINE",
"214 295 LINE",
"224 488 LINE",
"206 503 OFFCURVE",
"160 514 OFFCURVE",
"140 516 CURVE",
"5 490 LINE",
"4 453 OFFCURVE",
"10 415 OFFCURVE",
"16 403 CURVE",
"158 403 LINE",
"113 480 LINE",
"123 256 LINE",
"114 0 LINE"
);
},
{
closed = 1;
nodes = (
"414 0 LINE",
"448 -5 OFFCURVE",
"502 -7 OFFCURVE",
"532 0 CURVE",
"532 395 LINE",
"520 442 OFFCURVE",
"475 500 OFFCURVE",
"445 516 CURVE",
"311 516 OFFCURVE",
"113 328 OFFCURVE",
"63 85 CURVE",
"66 70 OFFCURVE",
"93 24 OFFCURVE",
"114 0 CURVE",
"154 0 LINE",
"154 143 OFFCURVE",
"267 354 OFFCURVE",
"398 376 CURVE SMOOTH",
"421 380 OFFCURVE",
"439 223 OFFCURVE",
"370 75 CURVE"
);
},
{
closed = 1;
nodes = (
"675 50 OFFCURVE",
"689 15 OFFCURVE",
"702 -3 CURVE",
"736 -8 OFFCURVE",
"802 -7 OFFCURVE",
"832 0 CURVE",
"832 395 LINE",
"820 442 OFFCURVE",
"775 500 OFFCURVE",
"745 516 CURVE",
"611 516 OFFCURVE",
"413 328 OFFCURVE",
"363 85 CURVE",
"366 70 OFFCURVE",
"393 24 OFFCURVE",
"414 0 CURVE",
"454 0 LINE",
"454 143 OFFCURVE",
"567 354 OFFCURVE",
"698 376 CURVE SMOOTH",
"721 380 OFFCURVE",
"739 223 OFFCURVE",
"670 75 CURVE"
);
}
);
};
layerId = "38C058F6-1927-4F6E-8983-F5FDD1A7915A";
name = "Regular Jul 12 15, 21:27";
paths = (
{
closed = 1;
nodes = (
"144 -8 OFFCURVE",
"197 -8 OFFCURVE",
"227 0 CURVE",
"224 263 LINE",
"214 295 LINE",
"224 488 LINE",
"206 503 OFFCURVE",
"160 514 OFFCURVE",
"140 516 CURVE",
"5 490 LINE",
"4 453 OFFCURVE",
"10 415 OFFCURVE",
"16 403 CURVE",
"158 403 LINE",
"113 480 LINE",
"123 256 LINE",
"114 0 LINE"
);
},
{
closed = 1;
nodes = (
"404 0 LINE",
"438 -5 OFFCURVE",
"492 -7 OFFCURVE",
"522 0 CURVE",
"522 395 LINE",
"510 442 OFFCURVE",
"465 500 OFFCURVE",
"435 516 CURVE",
"301 516 OFFCURVE",
"113 328 OFFCURVE",
"63 85 CURVE",
"66 70 OFFCURVE",
"93 24 OFFCURVE",
"114 0 CURVE",
"154 0 LINE",
"154 143 OFFCURVE",
"257 374 OFFCURVE",
"388 396 CURVE SMOOTH",
"411 400 OFFCURVE",
"429 223 OFFCURVE",
"360 75 CURVE"
);
},
{
closed = 1;
nodes = (
"767 98 LINE",
"802 53 LINE",
"812 395 LINE",
"800 442 OFFCURVE",
"755 500 OFFCURVE",
"725 516 CURVE",
"591 516 OFFCURVE",
"403 328 OFFCURVE",
"353 85 CURVE",
"356 70 OFFCURVE",
"383 24 OFFCURVE",
"404 0 CURVE",
"444 0 LINE",
"444 143 OFFCURVE",
"547 374 OFFCURVE",
"678 396 CURVE SMOOTH",
"701 400 OFFCURVE",
"719 223 OFFCURVE",
"650 75 CURVE",
"656 45 OFFCURVE",
"663 25 OFFCURVE",
"676 12 CURVE SMOOTH",
"691 -4 OFFCURVE",
"716 -11 OFFCURVE",
"758 -15 CURVE",
"893 11 LINE",
"894 48 OFFCURVE",
"888 86 OFFCURVE",
"882 98 CURVE"
);
}
);
width = 879;
},
{
associatedMasterId = "B08EA6CB-0345-4FE8-BF44-53271D6C1876";
background = {
paths = (
{
closed = 1;
nodes = (
"144 -8 OFFCURVE",
"197 -8 OFFCURVE",
"227 0 CURVE",
"224 263 LINE",
"214 295 LINE",
"224 488 LINE",
"206 503 OFFCURVE",
"160 514 OFFCURVE",
"140 516 CURVE",
"5 490 LINE",
"4 453 OFFCURVE",
"10 415 OFFCURVE",
"16 403 CURVE",
"158 403 LINE",
"113 480 LINE",
"123 256 LINE",
"114 0 LINE"
);
},
{
closed = 1;
nodes = (
"404 0 LINE",
"438 -5 OFFCURVE",
"492 -7 OFFCURVE",
"522 0 CURVE",
"522 395 LINE",
"510 442 OFFCURVE",
"465 500 OFFCURVE",
"435 516 CURVE",
"301 516 OFFCURVE",
"113 328 OFFCURVE",
"63 85 CURVE",
"66 70 OFFCURVE",
"93 24 OFFCURVE",
"114 0 CURVE",
"154 0 LINE",
"154 143 OFFCURVE",
"257 374 OFFCURVE",
"388 396 CURVE SMOOTH",
"411 400 OFFCURVE",
"429 223 OFFCURVE",
"360 75 CURVE"
);
},
{
closed = 1;
nodes = (
"767 98 LINE",
"802 53 LINE",
"812 395 LINE",
"800 442 OFFCURVE",
"755 500 OFFCURVE",
"725 516 CURVE",
"591 516 OFFCURVE",
"403 328 OFFCURVE",
"353 85 CURVE",
"356 70 OFFCURVE",
"383 24 OFFCURVE",
"404 0 CURVE",
"444 0 LINE",
"444 143 OFFCURVE",
"547 374 OFFCURVE",
"678 396 CURVE SMOOTH",
"701 400 OFFCURVE",
"719 223 OFFCURVE",
"650 75 CURVE",
"656 45 OFFCURVE",
"663 25 OFFCURVE",
"676 12 CURVE SMOOTH",
"691 -4 OFFCURVE",
"716 -11 OFFCURVE",
"758 -15 CURVE",
"893 11 LINE",
"894 48 OFFCURVE",
"888 86 OFFCURVE",
"882 98 CURVE"
);
}
);
};
layerId = "1B6BFDFB-B86A-4E19-A1F3-A05DADD0C396";
name = "Regular Jul 15 15, 17:17";
paths = (
{
closed = 0;
nodes = (
"108 480 LINE",
"118 256 LINE",
"109 0 LINE",
"139 -8 OFFCURVE",
"192 -8 OFFCURVE",
"222 0 CURVE",
"219 263 LINE",
"209 295 LINE",
"228 464 LINE"
);
},
{
closed = 1;
nodes = (
"487 53 LINE",
"507 395 LINE",
"495 442 OFFCURVE",
"450 500 OFFCURVE",
"420 516 CURVE",
"326 516 OFFCURVE",
"108 328 OFFCURVE",
"58 85 CURVE",
"61 70 OFFCURVE",
"88 24 OFFCURVE",
"109 0 CURVE",
"149 0 LINE",
"149 143 OFFCURVE",
"282 374 OFFCURVE",
"373 396 CURVE SMOOTH",
"396 402 OFFCURVE",
"414 223 OFFCURVE",
"345 75 CURVE"
);
},
{
closed = 1;
nodes = (
"423 -8 OFFCURVE",
"476 -8 OFFCURVE",
"506 0 CURVE",
"503 263 LINE",
"493 295 LINE",
"402 256 LINE",
"393 0 LINE"
);
},
{
closed = 1;
nodes = (
"746 98 LINE",
"771 53 LINE",
"791 395 LINE",
"779 442 OFFCURVE",
"734 500 OFFCURVE",
"704 516 CURVE",
"610 516 OFFCURVE",
"392 328 OFFCURVE",
"342 85 CURVE",
"345 70 OFFCURVE",
"372 24 OFFCURVE",
"393 0 CURVE",
"433 0 LINE",
"433 143 OFFCURVE",
"566 374 OFFCURVE",
"657 396 CURVE SMOOTH",
"680 402 OFFCURVE",
"698 223 OFFCURVE",
"629 75 CURVE",
"652 32 OFFCURVE",
"682 2 OFFCURVE",
"717 -15 CURVE",
"864 17 LINE",
"865 54 OFFCURVE",
"861 83 OFFCURVE",
"855 95 CURVE"
);
},
{
closed = 0;
nodes = (
"228 464 LINE",
"210 479 OFFCURVE",
"155 514 OFFCURVE",
"135 516 CURVE",
"0 450 LINE",
"3 419 OFFCURVE",
"20 382 OFFCURVE",
"29 366 CURVE",
"153 403 LINE",
"108 480 LINE"
);
}
);
width = 849;
},
{
associatedMasterId = "B08EA6CB-0345-4FE8-BF44-53271D6C1876";
background = {
paths = (
{
closed = 0;
nodes = (
"108 480 LINE",
"118 256 LINE",
"109 0 LINE",
"139 -8 OFFCURVE",
"192 -8 OFFCURVE",
"222 0 CURVE",
"219 263 LINE",
"209 295 LINE",
"228 464 LINE"
);
},
{
closed = 1;
nodes = (
"487 53 LINE",
"507 395 LINE",
"495 442 OFFCURVE",
"450 500 OFFCURVE",
"420 516 CURVE",
"326 516 OFFCURVE",
"108 328 OFFCURVE",
"58 85 CURVE",
"61 70 OFFCURVE",
"88 24 OFFCURVE",
"109 0 CURVE",
"149 0 LINE",
"149 143 OFFCURVE",
"282 374 OFFCURVE",
"373 396 CURVE SMOOTH",
"396 402 OFFCURVE",
"414 223 OFFCURVE",
"345 75 CURVE"
);
},
{
closed = 1;
nodes = (
"423 -8 OFFCURVE",
"476 -8 OFFCURVE",
"506 0 CURVE",
"503 263 LINE",
"493 295 LINE",
"402 256 LINE",
"393 0 LINE"
);
},
{
closed = 1;
nodes = (
"746 98 LINE",
"771 53 LINE",
"791 395 LINE",
"779 442 OFFCURVE",
"734 500 OFFCURVE",
"704 516 CURVE",
"610 516 OFFCURVE",
"392 328 OFFCURVE",
"342 85 CURVE",
"345 70 OFFCURVE",
"372 24 OFFCURVE",
"393 0 CURVE",
"433 0 LINE",
"433 143 OFFCURVE",
"566 374 OFFCURVE",
"657 396 CURVE SMOOTH",
"680 402 OFFCURVE",
"698 223 OFFCURVE",
"629 75 CURVE",
"652 32 OFFCURVE",
"682 2 OFFCURVE",
"717 -15 CURVE",
"864 17 LINE",
"865 54 OFFCURVE",
"861 83 OFFCURVE",
"855 95 CURVE"
);
},
{
closed = 0;
nodes = (
"228 464 LINE",
"210 479 OFFCURVE",
"155 514 OFFCURVE",
"135 516 CURVE",
"0 450 LINE",
"3 419 OFFCURVE",
"20 382 OFFCURVE",
"29 366 CURVE",
"153 403 LINE",
"108 480 LINE"
);
}
);
};
layerId = "31312DC2-BC9C-4B07-BEE1-6CD5BC2C34AD";
name = "Regular Aug 20 15, 12:25";
paths = (
{
closed = 1;
nodes = (
"487 53 LINE",
"507 395 LINE",
"495 442 OFFCURVE",
"450 500 OFFCURVE",
"420 516 CURVE",
"326 516 OFFCURVE",
"108 328 OFFCURVE",
"58 85 CURVE",
"61 70 OFFCURVE",
"88 24 OFFCURVE",
"109 0 CURVE",
"149 0 LINE",
"149 143 OFFCURVE",
"282 374 OFFCURVE",
"373 396 CURVE SMOOTH",
"396 402 OFFCURVE",
"414 223 OFFCURVE",
"345 75 CURVE"
);
},
{
closed = 1;
nodes = (
"423 -8 OFFCURVE",
"476 -8 OFFCURVE",
"506 0 CURVE",
"503 263 LINE",
"493 295 LINE",
"402 256 LINE",
"393 0 LINE"
);
},
{
closed = 1;
nodes = (
"746 97 LINE",
"771 52 LINE",
"791 395 LINE",
"779 442 OFFCURVE",
"734 500 OFFCURVE",
"704 516 CURVE",
"610 516 OFFCURVE",
"392 328 OFFCURVE",
"342 85 CURVE",
"345 70 OFFCURVE",
"372 24 OFFCURVE",
"393 0 CURVE",
"433 0 LINE",
"433 143 OFFCURVE",
"566 374 OFFCURVE",
"657 396 CURVE SMOOTH",
"680 402 OFFCURVE",
"698 222 OFFCURVE",
"629 74 CURVE",
"652 31 OFFCURVE",
"682 1 OFFCURVE",
"717 -16 CURVE",
"864 16 LINE",
"865 53 OFFCURVE",
"861 82 OFFCURVE",
"855 94 CURVE"
);
},
{
closed = 1;
nodes = (
"210 479 OFFCURVE",
"155 514 OFFCURVE",
"135 516 CURVE",
"0 450 LINE",
"3 419 OFFCURVE",
"20 388 OFFCURVE",
"29 372 CURVE",
"153 404 LINE",
"108 480 LINE",
"118 256 LINE",
"109 0 LINE",
"139 -8 OFFCURVE",
"192 -8 OFFCURVE",
"222 0 CURVE",
"219 263 LINE",
"209 295 LINE",
"228 464 LINE"
);
}
);
width = 849;
}
);
leftKerningGroup = n;
leftMetricsKey = n;
rightKerningGroup = n;
rightMetricsKey = n;
unicode = 006D;
},
